<?xml version="1.0" encoding="UTF-8" standalone="no"?>
<!-- Generator: Adobe Illustrator 19.0.0, SVG Export Plug-In . SVG Version: 6.00 Build 0)  -->

<svg
   xmlns:dc="http://purl.org/dc/elements/1.1/"
   xmlns:cc="http://creativecommons.org/ns#"
   xmlns:rdf="http://www.w3.org/1999/02/22-rdf-syntax-ns#"
   xmlns:svg="http://www.w3.org/2000/svg"
   xmlns="http://www.w3.org/2000/svg"
   xmlns:sodipodi="http://sodipodi.sourceforge.net/DTD/sodipodi-0.dtd"
   xmlns:inkscape="http://www.inkscape.org/namespaces/inkscape"
   version="1.1"
   id="Calque_1"
   x="0px"
   y="0px"
   viewBox="624 -452.5 955.05086 550.91434"
   xml:space="preserve"
   inkscape:version="0.48.5 r10040"
   width="100%"
   height="100%"
   sodipodi:docname="activity-1.svg"
   inkscape:export-filename="/home/alban/Labo/architecture/rapport/exports/activity-1.png"
   inkscape:export-xdpi="179.89999"
   inkscape:export-ydpi="179.89999"><metadata
     id="metadata661"><rdf:RDF><cc:Work
         rdf:about=""><dc:format>image/svg+xml</dc:format><dc:type
           rdf:resource="http://purl.org/dc/dcmitype/StillImage" /><dc:title /></cc:Work></rdf:RDF></metadata><defs
     id="defs659" /><sodipodi:namedview
     pagecolor="#ffffff"
     bordercolor="#666666"
     borderopacity="1"
     objecttolerance="10"
     gridtolerance="10"
     guidetolerance="10"
     inkscape:pageopacity="0"
     inkscape:pageshadow="2"
     inkscape:window-width="1366"
     inkscape:window-height="721"
     id="namedview657"
     showgrid="false"
     inkscape:zoom="0.7946128"
     inkscape:cx="239.27296"
     inkscape:cy="266.9843"
     inkscape:window-x="-2"
     inkscape:window-y="-3"
     inkscape:window-maximized="1"
     inkscape:current-layer="Calque_1"
     inkscape:snap-bbox="true"
     inkscape:object-paths="true"
     inkscape:snap-intersection-paths="true"
     inkscape:object-nodes="true"
     fit-margin-top="0"
     fit-margin-left="0"
     fit-margin-right="0"
     fit-margin-bottom="0" /><style
     type="text/css"
     id="style3">
	.st0{fill:none;stroke:#000000;}
	.st1{font-family:'ArialMT';}
	.st2{font-size:12px;}
	.st3{stroke:#000000;}
	.st4{fill:#FFFFFF;stroke:#000000;}
	.st5{fill:#FFFFFF;stroke:#FFFFFF;}
	.st6{fill:none;stroke:#333399;}
</style><rect
     style="fill:none;stroke:#000000;stroke-width:0.92361796"
     id="rect7"
     height="548.01941"
     width="817.12726"
     class="st0"
     y="-451.94241"
     x="624.46179" /><line
     style="fill:none;stroke:#000000;stroke-width:0.77365643"
     id="line15"
     y2="96.038818"
     x2="834.55084"
     y1="96.038818"
     x1="624.46179"
     class="st0" /><line
     style="fill:none;stroke:#000000"
     id="line25"
     y2="96.038803"
     x2="1441.5509"
     y1="96.038803"
     x1="834.55084"
     class="st0" /><line
     style="fill:none;stroke:#000000;stroke-width:0.74023175"
     id="line9"
     y2="96.038818"
     x2="834.55084"
     y1="-451.90424"
     x1="834.55084"
     class="st0" /><line
     style="fill:none;stroke:#000000;stroke-width:0.74023175"
     id="line11"
     y2="96.038826"
     x2="624.5"
     y1="-451.90424"
     x1="624.5"
     class="st0" /><line
     style="fill:none;stroke:#000000;stroke-width:0.77358609"
     id="line13"
     y2="-451.90424"
     x2="834.55084"
     y1="-451.90424"
     x1="624.5"
     class="st0" /><text
     style="font-size:12px;font-family:ArialMT"
     id="text17"
     class="st1 st2"
     x="697.92371"
     y="-438.02414">SAMU</text>
<line
     style="fill:none;stroke:#000000;stroke-width:0.77358609"
     id="line19"
     y2="-426.90424"
     x2="834.55084"
     y1="-426.90424"
     x1="624.5"
     class="st0" /><line
     style="fill:none;stroke:#000000;stroke-width:0.74173623"
     id="line21"
     y2="98.043472"
     x2="1442.5509"
     y1="-452.12915"
     x1="1442.5509"
     class="st0" /><line
     style="fill:none;stroke:#000000"
     id="line23"
     y2="-451.90424"
     x2="1442.5509"
     y1="-451.90424"
     x1="835.55084"
     class="st0" /><text
     style="font-size:12px;font-family:ArialMT"
     id="text27"
     class="st1 st2"
     x="1125.5509"
     y="-438.02414">SDIS</text>
<line
     style="fill:none;stroke:#000000"
     id="line29"
     y2="-426.90424"
     x2="1442.5509"
     y1="-426.90424"
     x1="835.55084"
     class="st0" /><polygon
     style="fill:#ffffff;stroke:#ffffff"
     id="polygon179"
     points="1566,-270.8 1582,-254.8 1566,-238.8 1550,-254.8 "
     class="st5"
     transform="translate(-562.44914,-13.104246)" /><g
     id="g4570"
     transform="translate(-562.44914,-13.104246)"><path
       class="st3"
       d="m 1283,18.2 h 61 c 28.7,0 52,11.2 52,25 l 0,0 c 0,13.8 -23.3,25 -52,25 h -61 c -28.7,0 -52,-11.2 -52,-25 l 0,0 c 0,-13.8 23.3,-25 52,-25 z"
       id="path359"
       inkscape:connector-curvature="0"
       style="stroke:#000000" /><path
       class="st4"
       d="m 1282,17.2 h 63 c 28.7,0 52,11.6 52,26 l 0,0 c 0,14.4 -23.3,26 -52,26 h -63 c -28.7,0 -52,-11.6 -52,-26 l 0,0 c 0,-14.4 23.3,-26 52,-26 z"
       id="path361"
       inkscape:connector-curvature="0"
       style="fill:#ffffff;stroke:#000000" /><path
       class="st3"
       d="m 1539,50.2 h 86 c 19.9,0 36,7.6 36,17 l 0,0 c 0,9.4 -16.1,17 -36,17 h -86 c -19.9,0 -36,-7.6 -36,-17 l 0,0 c 0,-9.4 16.1,-17 36,-17 z"
       id="path377"
       inkscape:connector-curvature="0"
       style="stroke:#000000" /><path
       class="st4"
       d="m 1538,49.2 h 88 c 19.9,0 36,8.1 36,18 l 0,0 c 0,9.9 -16.1,18 -36,18 h -88 c -19.9,0 -36,-8.1 -36,-18 l 0,0 c 0,-10 16.1,-18 36,-18 z"
       id="path379"
       inkscape:connector-curvature="0"
       style="fill:#ffffff;stroke:#000000" /><path
       class="st3"
       d="m 1587,-389.8 h 262 c 19.9,0 36,7.6 36,17 l 0,0 c 0,9.4 -16.1,17 -36,17 h -262 c -19.9,0 -36,-7.6 -36,-17 l 0,0 c 0,-9.4 16.1,-17 36,-17 z"
       id="path63"
       inkscape:connector-curvature="0"
       style="stroke:#000000" /><path
       class="st4"
       d="m 1586,-390.8 h 264 c 19.9,0 36,8.1 36,18 l 0,0 c 0,9.9 -16.1,18 -36,18 h -264 c -19.9,0 -36,-8.1 -36,-18 l 0,0 c 0,-10 16.1,-18 36,-18 z"
       id="path65"
       inkscape:connector-curvature="0"
       style="fill:#ffffff;stroke:#000000" /><path
       class="st3"
       d="m 1531,-173.8 h 302 c 19.9,0 36,7.6 36,17 l 0,0 c 0,9.4 -16.1,17 -36,17 h -302 c -19.9,0 -36,-7.6 -36,-17 l 0,0 c 0,-9.4 16.1,-17 36,-17 z"
       id="path99"
       inkscape:connector-curvature="0"
       style="stroke:#000000" /><path
       class="st4"
       d="m 1530,-174.8 h 304 c 19.9,0 36,8.1 36,18 l 0,0 c 0,9.9 -16.1,18 -36,18 h -304 c -19.9,0 -36,-8.1 -36,-18 l 0,0 c 0,-10 16.1,-18 36,-18 z"
       id="path101"
       inkscape:connector-curvature="0"
       style="fill:#ffffff;stroke:#000000" /><path
       class="st3"
       d="m 2059,-277.8 h 45 c 19.9,0 36,7.6 36,17 l 0,0 c 0,9.4 -16.1,17 -36,17 h -45 c -19.9,0 -36,-7.6 -36,-17 l 0,0 c 0,-9.4 16.1,-17 36,-17 z"
       id="path163"
       inkscape:connector-curvature="0"
       style="stroke:#000000" /><path
       class="st4"
       d="m 2058,-278.8 h 47 c 19.9,0 36,8.1 36,18 l 0,0 c 0,9.9 -16.1,18 -36,18 h -47 c -19.9,0 -36,-8.1 -36,-18 l 0,0 c 0,-10 16.1,-18 36,-18 z"
       id="path165"
       inkscape:connector-curvature="0"
       style="fill:#ffffff;stroke:#000000" /><ellipse
       class="st3"
       cx="1617.7"
       cy="-254.8"
       rx="12"
       ry="12"
       id="ellipse191"
       sodipodi:cx="1617.7"
       sodipodi:cy="-254.8"
       sodipodi:rx="12"
       sodipodi:ry="12"
       style="stroke:#000000"
       d="m 1629.7,-254.8 c 0,6.62741 -5.3726,12 -12,12 -6.6275,0 -12,-5.37259 -12,-12 0,-6.62742 5.3725,-12 12,-12 6.6274,0 12,5.37258 12,12 z" /><path
       class="st3"
       d="m 1587,-61.8 h 34 c 19.9,0 36,7.6 36,17 l 0,0 c 0,9.4 -16.1,17 -36,17 h -34 c -19.9,0 -36,-7.6 -36,-17 l 0,0 c 0,-9.4 16.1,-17 36,-17 z"
       id="path311"
       inkscape:connector-curvature="0"
       style="stroke:#000000" /><path
       class="st4"
       d="m 1586,-62.8 h 36 c 19.9,0 36,8.1 36,18 l 0,0 c 0,9.9 -16.1,18 -36,18 h -36 c -19.9,0 -36,-8.1 -36,-18 l 0,0 c 0,-10 16.1,-18 36,-18 z"
       id="path313"
       inkscape:connector-curvature="0"
       style="fill:#ffffff;stroke:#000000" /><path
       class="st3"
       d="m 1459,-61.8 h 34 c 19.9,0 36,7.6 36,17 l 0,0 c 0,9.4 -16.1,17 -36,17 h -34 c -19.9,0 -36,-7.6 -36,-17 l 0,0 c 0,-9.4 16.1,-17 36,-17 z"
       id="path319"
       inkscape:connector-curvature="0"
       style="stroke:#000000" /><path
       class="st4"
       d="m 1458,-62.8 h 36 c 19.9,0 36,8.1 36,18 l 0,0 c 0,9.9 -16.1,18 -36,18 h -36 c -19.9,0 -36,-8.1 -36,-18 l 0,0 c 0,-10 16.1,-18 36,-18 z"
       id="path321"
       inkscape:connector-curvature="0"
       style="fill:#ffffff;stroke:#000000" /><path
       class="st3"
       d="m 1715,-61.8 h 84 c 19.9,0 36,7.6 36,17 l 0,0 c 0,9.4 -16.1,17 -36,17 h -84 c -19.9,0 -36,-7.6 -36,-17 l 0,0 c 0,-9.4 16.1,-17 36,-17 z"
       id="path593"
       inkscape:connector-curvature="0"
       style="stroke:#000000" /><path
       class="st4"
       d="m 1714,-62.8 h 86 c 19.9,0 36,8.1 36,18 l 0,0 c 0,9.9 -16.1,18 -36,18 h -86 c -19.9,0 -36,-8.1 -36,-18 l 0,0 c 0,-10 16.1,-18 36,-18 z"
       id="path595"
       inkscape:connector-curvature="0"
       style="fill:#ffffff;stroke:#000000" /><ellipse
       class="st3"
       cx="1278"
       cy="-374.79999"
       rx="8"
       ry="8"
       id="ellipse31"
       sodipodi:cx="1278"
       sodipodi:cy="-374.79999"
       sodipodi:rx="8"
       sodipodi:ry="8"
       style="stroke:#000000"
       d="m 1286,-374.79999 c 0,4.41828 -3.5817,8 -8,8 -4.4183,0 -8,-3.58172 -8,-8 0,-4.41828 3.5817,-8 8,-8 4.4183,0 8,3.58172 8,8 z" /><rect
       x="1262"
       y="-398.79999"
       class="st0"
       width="31"
       height="17"
       id="rect33"
       style="fill:none;stroke:#000000" /><text
       y="-384.91989"
       x="1271"
       class="st1 st2"
       id="text35"
       style="font-size:12px;font-family:ArialMT">15</text>
<ellipse
       class="st3"
       cx="1462"
       cy="-374.79999"
       rx="8"
       ry="8"
       id="ellipse37"
       sodipodi:cx="1462"
       sodipodi:cy="-374.79999"
       sodipodi:rx="8"
       sodipodi:ry="8"
       style="stroke:#000000"
       d="m 1470,-374.79999 c 0,4.41828 -3.5817,8 -8,8 -4.4183,0 -8,-3.58172 -8,-8 0,-4.41828 3.5817,-8 8,-8 4.4183,0 8,3.58172 8,8 z" /><rect
       x="1446"
       y="-398.79999"
       class="st0"
       width="31"
       height="17"
       id="rect39"
       style="fill:none;stroke:#000000" /><text
       y="-384.91989"
       x="1455"
       class="st1 st2"
       id="text41"
       style="font-size:12px;font-family:ArialMT">18</text>
<ellipse
       class="st3"
       cx="1958"
       cy="-374.79999"
       rx="8"
       ry="8"
       id="ellipse43"
       sodipodi:cx="1958"
       sodipodi:cy="-374.79999"
       sodipodi:rx="8"
       sodipodi:ry="8"
       style="stroke:#000000"
       d="m 1966,-374.79999 c 0,4.41828 -3.5817,8 -8,8 -4.4183,0 -8,-3.58172 -8,-8 0,-4.41828 3.5817,-8 8,-8 4.4183,0 8,3.58172 8,8 z" /><rect
       x="1942"
       y="-398.79999"
       class="st0"
       width="31"
       height="17"
       id="rect45"
       style="fill:none;stroke:#000000" /><text
       y="-384.91989"
       x="1947"
       class="st1 st2"
       id="text47"
       style="font-size:12px;font-family:ArialMT">112</text>
<path
       class="st3"
       d="m 1235,-333.8 h 85 c 19.9,0 36,7.6 36,17 l 0,0 c 0,9.4 -16.1,17 -36,17 h -85 c -19.9,0 -36,-7.6 -36,-17 l 0,0 c 0,-9.4 16.1,-17 36,-17 z"
       id="path49"
       inkscape:connector-curvature="0"
       style="stroke:#000000" /><path
       class="st4"
       d="m 1234,-334.8 h 87 c 19.9,0 36,8.1 36,18 l 0,0 c 0,9.9 -16.1,18 -36,18 h -87 c -19.9,0 -36,-8.1 -36,-18 l 0,0 c 0,-10 16.1,-18 36,-18 z"
       id="path51"
       inkscape:connector-curvature="0"
       style="fill:#ffffff;stroke:#000000" /><path
       class="st5"
       d="m 1235,-333.8 h 85 c 19.9,0 36,7.6 36,17 l 0,0 c 0,9.4 -16.1,17 -36,17 h -85 c -19.9,0 -36,-7.6 -36,-17 l 0,0 c 0,-9.4 16.1,-17 36,-17 z"
       id="path53"
       inkscape:connector-curvature="0"
       style="fill:#ffffff;stroke:#ffffff" /><text
       y="-314.91989"
       x="1215"
       class="st1 st2"
       id="text55"
       style="font-size:12px;font-family:ArialMT">Prise en charge CRRA</text>
<line
       class="st6"
       x1="1277"
       y1="-367.79999"
       x2="1277"
       y2="-333.79999"
       id="line57"
       style="fill:none;stroke:#333399" /><line
       class="st6"
       x1="1270"
       y1="-345.79999"
       x2="1277"
       y2="-333.79999"
       id="line59"
       style="fill:none;stroke:#333399" /><line
       class="st6"
       x1="1284"
       y1="-345.79999"
       x2="1277"
       y2="-333.79999"
       id="line61"
       style="fill:none;stroke:#333399" /><path
       class="st5"
       d="m 1587,-389.8 h 262 c 19.9,0 36,7.6 36,17 l 0,0 c 0,9.4 -16.1,17 -36,17 h -262 c -19.9,0 -36,-7.6 -36,-17 l 0,0 c 0,-9.4 16.1,-17 36,-17 z"
       id="path67"
       inkscape:connector-curvature="0"
       style="fill:#ffffff;stroke:#ffffff" /><text
       y="-370.91989"
       x="1661"
       class="st1 st2"
       id="text69"
       style="font-size:12px;font-family:ArialMT">Prise en charge CTA</text>
<line
       class="st6"
       x1="1470"
       y1="-374.79999"
       x2="1551"
       y2="-374.79999"
       id="line71"
       style="fill:none;stroke:#333399" /><line
       class="st6"
       x1="1539"
       y1="-367.79999"
       x2="1551"
       y2="-374.79999"
       id="line73"
       style="fill:none;stroke:#333399" /><line
       class="st6"
       x1="1539"
       y1="-381.79999"
       x2="1551"
       y2="-374.79999"
       id="line75"
       style="fill:none;stroke:#333399" /><line
       class="st6"
       x1="1950"
       y1="-374.79999"
       x2="1884"
       y2="-374.79999"
       id="line77"
       style="fill:none;stroke:#333399" /><line
       class="st6"
       x1="1896"
       y1="-381.79999"
       x2="1884"
       y2="-374.79999"
       id="line79"
       style="fill:none;stroke:#333399" /><line
       class="st6"
       x1="1896"
       y1="-367.79999"
       x2="1884"
       y2="-374.79999"
       id="line81"
       style="fill:none;stroke:#333399" /><polyline
       class="st6"
       points="1355,-310.8 1486,-310.8 1551,-356.8  "
       id="polyline83"
       style="fill:none;stroke:#333399" /><line
       class="st6"
       x1="1545"
       y1="-344.79999"
       x2="1551"
       y2="-356.79999"
       id="line85"
       style="fill:none;stroke:#333399" /><line
       class="st6"
       x1="1537"
       y1="-355.79999"
       x2="1551"
       y2="-356.79999"
       id="line87"
       style="fill:none;stroke:#333399" /><text
       y="-292.91989"
       x="1359"
       class="st1 st2"
       id="text89"
       style="font-size:12px;font-family:ArialMT">[Pas besoin de médecin]</text>
<polyline
       class="st6"
       points="1551,-358.8 1398,-358.8 1355,-333.8  "
       id="polyline91"
       style="fill:none;stroke:#333399" /><line
       class="st6"
       x1="1361"
       y1="-346.79999"
       x2="1355"
       y2="-333.79999"
       id="line93"
       style="fill:none;stroke:#333399" /><line
       class="st6"
       x1="1368"
       y1="-333.79999"
       x2="1355"
       y2="-333.79999"
       id="line95"
       style="fill:none;stroke:#333399" /><text
       y="-341.91989"
       x="1413"
       class="st1 st2"
       id="text97"
       style="font-size:12px;font-family:ArialMT">[Pas d'urgence]</text>
<path
       class="st5"
       d="m 1531,-173.8 h 302 c 19.9,0 36,7.6 36,17 l 0,0 c 0,9.4 -16.1,17 -36,17 h -302 c -19.9,0 -36,-7.6 -36,-17 l 0,0 c 0,-9.4 16.1,-17 36,-17 z"
       id="path103"
       inkscape:connector-curvature="0"
       style="fill:#ffffff;stroke:#ffffff" /><text
       y="-154.9198"
       x="1634"
       class="st1 st2"
       id="text105"
       style="font-size:12px;font-family:ArialMT">Prompts secours</text>
<line
       class="st6"
       x1="1670"
       y1="-356.79999"
       x2="1670"
       y2="-173.8"
       id="line107"
       style="fill:none;stroke:#333399" /><line
       class="st6"
       x1="1663"
       y1="-185.8"
       x2="1670"
       y2="-173.8"
       id="line109"
       style="fill:none;stroke:#333399" /><line
       class="st6"
       x1="1677"
       y1="-185.8"
       x2="1670"
       y2="-173.8"
       id="line111"
       style="fill:none;stroke:#333399" /><text
       y="-206.9198"
       x="1564"
       class="st1 st2"
       id="text113"
       style="font-size:12px;font-family:ArialMT">[Urgence vitale,</text>
<text
       y="-190.9198"
       x="1548"
       class="st1 st2"
       id="text115"
       style="font-size:12px;font-family:ArialMT">Besoin de secouriste]</text>
<line
       class="st6"
       x1="1846"
       y1="-356.79999"
       x2="1846"
       y2="-294.79999"
       id="line117"
       style="fill:none;stroke:#333399" /><line
       class="st6"
       x1="1839"
       y1="-306.79999"
       x2="1846"
       y2="-294.79999"
       id="line119"
       style="fill:none;stroke:#333399" /><line
       class="st6"
       x1="1853"
       y1="-306.79999"
       x2="1846"
       y2="-294.79999"
       id="line121"
       style="fill:none;stroke:#333399" /><text
       y="-321.91989"
       x="1848"
       class="st1 st2"
       id="text123"
       style="font-size:12px;font-family:ArialMT">[Lieu public]</text>
<line
       class="st6"
       x1="1822"
       y1="-288.79999"
       x2="1822"
       y2="-173.8"
       id="line125"
       style="fill:none;stroke:#333399" /><line
       class="st6"
       x1="1815"
       y1="-185.8"
       x2="1822"
       y2="-173.8"
       id="line127"
       style="fill:none;stroke:#333399" /><line
       class="st6"
       x1="1829"
       y1="-185.8"
       x2="1822"
       y2="-173.8"
       id="line129"
       style="fill:none;stroke:#333399" /><text
       y="-215.9198"
       x="1829"
       class="st1 st2"
       id="text131"
       style="font-size:12px;font-family:ArialMT">[Non protégé]</text>
<rect
       x="1694"
       y="-294.79999"
       class="st3"
       width="80"
       height="7"
       id="rect133"
       style="stroke:#000000" /><line
       class="st6"
       x1="1734"
       y1="-356.79999"
       x2="1734"
       y2="-294.79999"
       id="line135"
       style="fill:none;stroke:#333399" /><line
       class="st6"
       x1="1727"
       y1="-306.79999"
       x2="1734"
       y2="-294.79999"
       id="line137"
       style="fill:none;stroke:#333399" /><line
       class="st6"
       x1="1741"
       y1="-306.79999"
       x2="1734"
       y2="-294.79999"
       id="line139"
       style="fill:none;stroke:#333399" /><text
       y="-320.91989"
       x="1736"
       class="st1 st2"
       id="text141"
       style="font-size:12px;font-family:ArialMT">[Voie publique]</text>
<line
       class="st6"
       x1="1710"
       y1="-288.79999"
       x2="1710"
       y2="-173.8"
       id="line143"
       style="fill:none;stroke:#333399" /><line
       class="st6"
       x1="1703"
       y1="-185.8"
       x2="1710"
       y2="-173.8"
       id="line145"
       style="fill:none;stroke:#333399" /><line
       class="st6"
       x1="1717"
       y1="-185.8"
       x2="1710"
       y2="-173.8"
       id="line147"
       style="fill:none;stroke:#333399" /><rect
       x="1814"
       y="-294.79999"
       class="st3"
       width="80"
       height="7"
       id="rect149"
       style="stroke:#000000" /><polyline
       class="st6"
       points="1870,-288.8 1870,-270.8 1958,-270.8 2022,-270.8  "
       id="polyline151"
       style="fill:none;stroke:#333399" /><line
       class="st6"
       x1="2010"
       y1="-263.79999"
       x2="2022"
       y2="-270.79999"
       id="line153"
       style="fill:none;stroke:#333399" /><line
       class="st6"
       x1="2010"
       y1="-277.79999"
       x2="2022"
       y2="-270.79999"
       id="line155"
       style="fill:none;stroke:#333399" /><polyline
       class="st6"
       points="1750,-288.8 1750,-254.8 2022,-254.8  "
       id="polyline157"
       style="fill:none;stroke:#333399" /><line
       class="st6"
       x1="2010"
       y1="-247.8"
       x2="2022"
       y2="-254.8"
       id="line159"
       style="fill:none;stroke:#333399" /><line
       class="st6"
       x1="2010"
       y1="-261.79999"
       x2="2022"
       y2="-254.8"
       id="line161"
       style="fill:none;stroke:#333399" /><path
       class="st5"
       d="m 2059,-277.8 h 45 c 19.9,0 36,7.6 36,17 l 0,0 c 0,9.4 -16.1,17 -36,17 h -45 c -19.9,0 -36,-7.6 -36,-17 l 0,0 c 0,-9.4 16.1,-17 36,-17 z"
       id="path167"
       inkscape:connector-curvature="0"
       style="fill:#ffffff;stroke:#ffffff" /><text
       y="-258.91989"
       x="2040"
       class="st1 st2"
       id="text169"
       style="font-size:12px;font-family:ArialMT">Autres secours</text>
<path
       class="st3"
       d="m 1235,-269.8 h 86 c 19.9,0 36,7.6 36,17 l 0,0 c 0,9.4 -16.1,17 -36,17 h -86 c -19.9,0 -36,-7.6 -36,-17 l 0,0 c 0,-9.4 16.1,-17 36,-17 z"
       id="path171"
       inkscape:connector-curvature="0"
       style="stroke:#000000" /><path
       class="st4"
       d="m 1234,-270.8 h 88 c 19.9,0 36,8.1 36,18 l 0,0 c 0,9.9 -16.1,18 -36,18 h -88 c -19.9,0 -36,-8.1 -36,-18 l 0,0 c 0,-10 16.1,-18 36,-18 z"
       id="path173"
       inkscape:connector-curvature="0"
       style="fill:#ffffff;stroke:#000000" /><path
       class="st5"
       d="m 1235,-269.8 h 86 c 19.9,0 36,7.6 36,17 l 0,0 c 0,9.4 -16.1,17 -36,17 h -86 c -19.9,0 -36,-7.6 -36,-17 l 0,0 c 0,-9.4 16.1,-17 36,-17 z"
       id="path175"
       inkscape:connector-curvature="0"
       style="fill:#ffffff;stroke:#ffffff" /><text
       y="-250.91991"
       x="1234"
       class="st1 st2"
       id="text177"
       style="font-size:12px;font-family:ArialMT">Régulation ARM</text>
<polygon
       class="st0"
       points="1566,-270.8 1582,-254.8 1566,-238.8 1550,-254.8 "
       id="polygon181"
       style="fill:none;stroke:#000000" /><line
       class="st6"
       x1="1566"
       y1="-356.79999"
       x2="1566"
       y2="-270.79999"
       id="line183"
       style="fill:none;stroke:#333399" /><line
       class="st6"
       x1="1559"
       y1="-282.79999"
       x2="1566"
       y2="-270.79999"
       id="line185"
       style="fill:none;stroke:#333399" /><line
       class="st6"
       x1="1573"
       y1="-282.79999"
       x2="1566"
       y2="-270.79999"
       id="line187"
       style="fill:none;stroke:#333399" /><text
       y="-308.91989"
       x="1568"
       class="st1 st2"
       id="text189"
       style="font-size:12px;font-family:ArialMT">[Toujours]</text>
<ellipse
       class="st5"
       cx="1617.7"
       cy="-254.8"
       rx="11"
       ry="11"
       id="ellipse193"
       sodipodi:cx="1617.7"
       sodipodi:cy="-254.8"
       sodipodi:rx="11"
       sodipodi:ry="11"
       style="fill:#ffffff;stroke:#ffffff"
       d="m 1628.7,-254.8 c 0,6.07513 -4.9249,11 -11,11 -6.0752,0 -11,-4.92487 -11,-11 0,-6.07514 4.9248,-11 11,-11 6.0751,0 11,4.92486 11,11 z" /><ellipse
       class="st3"
       cx="1617.7"
       cy="-254.8"
       rx="7.5"
       ry="7.5"
       id="ellipse195"
       sodipodi:cx="1617.7"
       sodipodi:cy="-254.8"
       sodipodi:rx="7.5"
       sodipodi:ry="7.5"
       style="stroke:#000000"
       d="m 1625.2,-254.8 c 0,4.14213 -3.3579,7.5 -7.5,7.5 -4.1422,0 -7.5,-3.35787 -7.5,-7.5 0,-4.14214 3.3578,-7.5 7.5,-7.5 4.1421,0 7.5,3.35786 7.5,7.5 z" /><line
       class="st6"
       x1="1582"
       y1="-254.8"
       x2="1605.7"
       y2="-254.8"
       id="line197"
       style="fill:none;stroke:#333399" /><line
       class="st6"
       x1="1592.4"
       y1="-246.3"
       x2="1605.4"
       y2="-254.8"
       id="line199"
       style="fill:none;stroke:#333399" /><line
       class="st6"
       x1="1592.4"
       y1="-260.79999"
       x2="1605.4"
       y2="-254.8"
       id="line201"
       style="fill:none;stroke:#333399" /><line
       class="st6"
       x1="1550"
       y1="-254.8"
       x2="1356"
       y2="-254.8"
       id="line203"
       style="fill:none;stroke:#333399" /><line
       class="st6"
       x1="1368"
       y1="-261.79999"
       x2="1356"
       y2="-254.8"
       id="line205"
       style="fill:none;stroke:#333399" /><line
       class="st6"
       x1="1368"
       y1="-247.8"
       x2="1356"
       y2="-254.8"
       id="line207"
       style="fill:none;stroke:#333399" /><text
       y="-263.91989"
       x="1405"
       class="st1 st2"
       id="text209"
       style="font-size:12px;font-family:ArialMT">[Assistance médicale]</text>
<line
       class="st6"
       x1="1270"
       y1="-300.79999"
       x2="1270"
       y2="-269.79999"
       id="line211"
       style="fill:none;stroke:#333399" /><line
       class="st6"
       x1="1263"
       y1="-281.79999"
       x2="1270"
       y2="-269.79999"
       id="line213"
       style="fill:none;stroke:#333399" /><line
       class="st6"
       x1="1277"
       y1="-281.79999"
       x2="1270"
       y2="-269.79999"
       id="line215"
       style="fill:none;stroke:#333399" /><polyline
       class="st6"
       points="1334,-236.8 1334,-158.8 1495,-158.8  "
       id="polyline217"
       style="fill:none;stroke:#333399" /><line
       class="st6"
       x1="1483"
       y1="-151.8"
       x2="1495"
       y2="-158.8"
       id="line219"
       style="fill:none;stroke:#333399" /><line
       class="st6"
       x1="1483"
       y1="-165.8"
       x2="1495"
       y2="-158.8"
       id="line221"
       style="fill:none;stroke:#333399" /><text
       y="-166.9198"
       x="1401"
       class="st1 st2"
       id="text223"
       style="font-size:12px;font-family:ArialMT">[Urgence vitale]</text>
<path
       class="st5"
       d="m 1587,-61.8 h 34 c 19.9,0 36,7.6 36,17 l 0,0 c 0,9.4 -16.1,17 -36,17 h -34 c -19.9,0 -36,-7.6 -36,-17 l 0,0 c 0,-9.4 16.1,-17 36,-17 z"
       id="path315"
       inkscape:connector-curvature="0"
       style="fill:#ffffff;stroke:#ffffff" /><text
       y="-42.919998"
       x="1566"
       class="st1 st2"
       id="text317"
       style="font-size:12px;font-family:ArialMT">Bilan complet</text>
<path
       class="st5"
       d="m 1459,-61.8 h 34 c 19.9,0 36,7.6 36,17 l 0,0 c 0,9.4 -16.1,17 -36,17 h -34 c -19.9,0 -36,-7.6 -36,-17 l 0,0 c 0,-9.4 16.1,-17 36,-17 z"
       id="path323"
       inkscape:connector-curvature="0"
       style="fill:#ffffff;stroke:#ffffff" /><text
       y="-42.919998"
       x="1437"
       class="st1 st2"
       id="text325"
       style="font-size:12px;font-family:ArialMT">Bilan simplifié</text>
<rect
       x="1614"
       y="-102.8"
       class="st3"
       width="112"
       height="7"
       id="rect327"
       style="stroke:#000000" /><line
       class="st6"
       x1="1670"
       y1="-140.8"
       x2="1670"
       y2="-102.8"
       id="line329"
       style="fill:none;stroke:#333399" /><line
       class="st6"
       x1="1663"
       y1="-114.8"
       x2="1670"
       y2="-102.8"
       id="line331"
       style="fill:none;stroke:#333399" /><line
       class="st6"
       x1="1677"
       y1="-114.8"
       x2="1670"
       y2="-102.8"
       id="line333"
       style="fill:none;stroke:#333399" /><text
       y="-116.92"
       x="1672"
       class="st1 st2"
       id="text335"
       style="font-size:12px;font-family:ArialMT">[≥ 1 critère de gravité]</text>
<line
       class="st6"
       x1="1622"
       y1="-96.800003"
       x2="1622"
       y2="-61.799999"
       id="line337"
       style="fill:none;stroke:#333399" /><line
       class="st6"
       x1="1615"
       y1="-73.800003"
       x2="1622"
       y2="-61.799999"
       id="line339"
       style="fill:none;stroke:#333399" /><line
       class="st6"
       x1="1629"
       y1="-73.800003"
       x2="1622"
       y2="-61.799999"
       id="line341"
       style="fill:none;stroke:#333399" /><line
       class="st6"
       x1="1710"
       y1="-96.800003"
       x2="1710"
       y2="-61.799999"
       id="line343"
       style="fill:none;stroke:#333399" /><line
       class="st6"
       x1="1703"
       y1="-73.800003"
       x2="1710"
       y2="-61.799999"
       id="line345"
       style="fill:none;stroke:#333399" /><line
       class="st6"
       x1="1717"
       y1="-73.800003"
       x2="1710"
       y2="-61.799999"
       id="line347"
       style="fill:none;stroke:#333399" /><text
       y="-76.919998"
       x="1659"
       class="st1 st2"
       id="text349"
       style="font-size:12px;font-family:ArialMT">[Besoin]</text>
<line
       class="st6"
       x1="1512"
       y1="-140.8"
       x2="1512"
       y2="-61.799999"
       id="line351"
       style="fill:none;stroke:#333399" /><line
       class="st6"
       x1="1505"
       y1="-73.800003"
       x2="1512"
       y2="-61.799999"
       id="line353"
       style="fill:none;stroke:#333399" /><line
       class="st6"
       x1="1519"
       y1="-73.800003"
       x2="1512"
       y2="-61.799999"
       id="line355"
       style="fill:none;stroke:#333399" /><text
       y="-116.92"
       x="1515"
       class="st1 st2"
       id="text357"
       style="font-size:12px;font-family:ArialMT">[Sinon]</text>
<path
       class="st5"
       d="m 1283,18.2 h 61 c 28.7,0 52,11.2 52,25 l 0,0 c 0,13.8 -23.3,25 -52,25 h -61 c -28.7,0 -52,-11.2 -52,-25 l 0,0 c 0,-13.8 23.3,-25 52,-25 z"
       id="path363"
       inkscape:connector-curvature="0"
       style="fill:#ffffff;stroke:#ffffff" /><text
       y="37.080002"
       x="1273"
       class="st1 st2"
       id="text365"
       style="font-size:12px;font-family:ArialMT">Compte-rendu</text>
<text
       y="53.080002"
       x="1251"
       class="st1 st2"
       id="text367"
       style="font-size:12px;font-family:ArialMT">au médecin régulateur</text>
<path
       class="st5"
       d="m 1539,50.2 h 86 c 19.9,0 36,7.6 36,17 l 0,0 c 0,9.4 -16.1,17 -36,17 h -86 c -19.9,0 -36,-7.6 -36,-17 l 0,0 c 0,-9.4 16.1,-17 36,-17 z"
       id="path381"
       inkscape:connector-curvature="0"
       style="fill:#ffffff;stroke:#ffffff" /><text
       y="69.080002"
       x="1520"
       class="st1 st2"
       id="text383"
       style="font-size:12px;font-family:ArialMT">Compte-rendu au CTA</text>
<rect
       x="1486"
       y="9.1999998"
       class="st3"
       width="104"
       height="7"
       id="rect385"
       style="stroke:#000000" /><line
       class="st6"
       x1="1574"
       y1="-28.799999"
       x2="1574"
       y2="9.1999998"
       id="line387"
       style="fill:none;stroke:#333399" /><line
       class="st6"
       x1="1567"
       y1="-2.8"
       x2="1574"
       y2="9.1999998"
       id="line389"
       style="fill:none;stroke:#333399" /><line
       class="st6"
       x1="1581"
       y1="-2.8"
       x2="1574"
       y2="9.1999998"
       id="line391"
       style="fill:none;stroke:#333399" /><line
       class="st6"
       x1="1502"
       y1="-28.799999"
       x2="1502"
       y2="9.1999998"
       id="line393"
       style="fill:none;stroke:#333399" /><line
       class="st6"
       x1="1495"
       y1="-2.8"
       x2="1502"
       y2="9.1999998"
       id="line395"
       style="fill:none;stroke:#333399" /><line
       class="st6"
       x1="1509"
       y1="-2.8"
       x2="1502"
       y2="9.1999998"
       id="line397"
       style="fill:none;stroke:#333399" /><polyline
       class="st6"
       points="1494,15.2 1494,41.2 1395,41.2  "
       id="polyline399"
       style="fill:none;stroke:#333399" /><line
       class="st6"
       x1="1407"
       y1="34.200001"
       x2="1395"
       y2="41.200001"
       id="line401"
       style="fill:none;stroke:#333399" /><line
       class="st6"
       x1="1407"
       y1="48.200001"
       x2="1395"
       y2="41.200001"
       id="line403"
       style="fill:none;stroke:#333399" /><line
       class="st6"
       x1="1582"
       y1="15.2"
       x2="1582"
       y2="50.200001"
       id="line405"
       style="fill:none;stroke:#333399" /><line
       class="st6"
       x1="1575"
       y1="38.200001"
       x2="1582"
       y2="50.200001"
       id="line407"
       style="fill:none;stroke:#333399" /><line
       class="st6"
       x1="1589"
       y1="38.200001"
       x2="1582"
       y2="50.200001"
       id="line409"
       style="fill:none;stroke:#333399" /><path
       class="st5"
       d="m 1715,-61.8 h 84 c 19.9,0 36,7.6 36,17 l 0,0 c 0,9.4 -16.1,17 -36,17 h -84 c -19.9,0 -36,-7.6 -36,-17 l 0,0 c 0,-9.4 16.1,-17 36,-17 z"
       id="path597"
       inkscape:connector-curvature="0"
       style="fill:#ffffff;stroke:#ffffff" /><text
       y="-42.919998"
       x="1698"
       class="st1 st2"
       id="text599"
       style="font-size:12px;font-family:ArialMT">Demande de renforts</text>
</g></svg>