<?xml version="1.0" encoding="UTF-8" standalone="no"?>
<!-- Generator: Adobe Illustrator 19.0.0, SVG Export Plug-In . SVG Version: 6.00 Build 0)  -->

<svg
   xmlns:dc="http://purl.org/dc/elements/1.1/"
   xmlns:cc="http://creativecommons.org/ns#"
   xmlns:rdf="http://www.w3.org/1999/02/22-rdf-syntax-ns#"
   xmlns:svg="http://www.w3.org/2000/svg"
   xmlns="http://www.w3.org/2000/svg"
   xmlns:sodipodi="http://sodipodi.sourceforge.net/DTD/sodipodi-0.dtd"
   xmlns:inkscape="http://www.inkscape.org/namespaces/inkscape"
   version="1.1"
   id="Calque_1"
   x="0px"
   y="0px"
   viewBox="624 -452.5 1262.9493 741.57855"
   xml:space="preserve"
   inkscape:version="0.48.5 r10040"
   width="100%"
   height="100%"
   sodipodi:docname="activity-3.svg"
   inkscape:export-filename="/home/alban/Labo/architecture/rapport/exports/activity-3.png"
   inkscape:export-xdpi="179"
   inkscape:export-ydpi="179"><metadata
     id="metadata661"><rdf:RDF><cc:Work
         rdf:about=""><dc:format>image/svg+xml</dc:format><dc:type
           rdf:resource="http://purl.org/dc/dcmitype/StillImage" /><dc:title></dc:title></cc:Work></rdf:RDF></metadata><defs
     id="defs659" /><sodipodi:namedview
     pagecolor="#ffffff"
     bordercolor="#666666"
     borderopacity="1"
     objecttolerance="10"
     gridtolerance="10"
     guidetolerance="10"
     inkscape:pageopacity="0"
     inkscape:pageshadow="2"
     inkscape:window-width="1366"
     inkscape:window-height="721"
     id="namedview657"
     showgrid="false"
     inkscape:zoom="0.3973064"
     inkscape:cx="344.18153"
     inkscape:cy="431.1187"
     inkscape:window-x="-2"
     inkscape:window-y="-3"
     inkscape:window-maximized="1"
     inkscape:current-layer="Calque_1"
     inkscape:snap-midpoints="true"
     inkscape:object-nodes="true"
     inkscape:object-paths="true"
     inkscape:snap-intersection-paths="true"
     inkscape:snap-smooth-nodes="true"
     inkscape:snap-bbox="true"
     fit-margin-top="0"
     fit-margin-left="0"
     fit-margin-right="0"
     fit-margin-bottom="0" /><style
     type="text/css"
     id="style3">
	.st0{fill:none;stroke:#000000;}
	.st1{font-family:'ArialMT';}
	.st2{font-size:12px;}
	.st3{stroke:#000000;}
	.st4{fill:#FFFFFF;stroke:#000000;}
	.st5{fill:#FFFFFF;stroke:#FFFFFF;}
	.st6{fill:none;stroke:#333399;}
</style><rect
     style="fill:none;stroke:#000000;stroke-width:0.71828687"
     id="rect7"
     height="579.97858"
     width="853.99463"
     class="st0"
     y="-452"
     x="1032.5" /><line
     style="fill:none;stroke:#000000;stroke-width:0.76156324"
     id="line9"
     y2="127.97857"
     x2="1383.5"
     y1="-452"
     x1="1383.5"
     class="st0" /><line
     style="fill:none;stroke:#000000;stroke-width:0.76156324"
     id="line11"
     y2="127.97857"
     x2="1032.5"
     y1="-452"
     x1="1032.5"
     class="st0" /><line
     style="fill:none;stroke:#000000"
     id="line15"
     y2="127.97857"
     x2="1383.5"
     y1="127.97857"
     x1="1032.5"
     class="st0" /><line
     style="fill:none;stroke:#000000;stroke-width:0.76156324"
     id="line21"
     y2="127.97857"
     x2="1886.4946"
     y1="-452"
     x1="1886.4946"
     class="st0" /><line
     style="fill:none;stroke:#000000;stroke-width:0.90940052"
     id="line25"
     y2="127.97857"
     x2="1886.4946"
     y1="127.97857"
     x1="1384.5"
     class="st0" /><g
     id="g4034"
     transform="translate(-14.5,-13.200012)"><line
       class="st0"
       x1="1046"
       y1="-438.79999"
       x2="1397"
       y2="-438.79999"
       id="line13"
       style="fill:none;stroke:#000000" /><text
       y="-424.91989"
       x="1205"
       class="st1 st2"
       id="text17"
       style="font-size:12px;font-family:ArialMT">SAMU</text>
<line
       class="st0"
       x1="1046"
       y1="-413.79999"
       x2="1397"
       y2="-413.79999"
       id="line19"
       style="fill:none;stroke:#000000" /><line
       class="st0"
       x1="1398"
       y1="-438.79999"
       x2="1899.9946"
       y2="-438.79999"
       id="line23"
       style="fill:none;stroke:#000000;stroke-width:0.90940052" /><text
       y="-425.80975"
       x="1644.3961"
       class="st1 st2"
       id="text27"
       style="font-size:12px;font-family:ArialMT">SDIS</text>
<line
       class="st0"
       x1="1398"
       y1="-413.79999"
       x2="1899.9946"
       y2="-413.79999"
       id="line29"
       style="fill:none;stroke:#000000;stroke-width:0.90940052" /></g><path
     style="stroke:#000000"
     inkscape:connector-curvature="0"
     id="path225"
     d="m 1085.5,-415.02144 h 41 c 28.7,0 52,11.2 52,25 l 0,0 c 0,13.8 -23.3,25 -52,25 h -41 c -28.7,0 -52,-11.2 -52,-25 l 0,0 c 0,-13.8 23.3,-25 52,-25 z"
     class="st3" /><path
     style="fill:#ffffff;stroke:#000000"
     inkscape:connector-curvature="0"
     id="path227"
     d="m 1084.5,-416.02144 h 43 c 28.7,0 52,11.6 52,26 l 0,0 c 0,14.4 -23.3,26 -52,26 h -43 c -28.7,0 -52,-11.6 -52,-26 l 0,0 c 0,-14.4 23.3,-26 52,-26 z"
     class="st4" /><path
     style="fill:#ffffff;stroke:#ffffff"
     inkscape:connector-curvature="0"
     id="path229"
     d="m 1085.5,-415.02144 h 41 c 28.7,0 52,11.2 52,25 l 0,0 c 0,13.8 -23.3,25 -52,25 h -41 c -28.7,0 -52,-11.2 -52,-25 l 0,0 c 0,-13.8 23.3,-25 52,-25 z"
     class="st5" /><text
     style="font-size:12px;font-family:ArialMT"
     id="text231"
     class="st1 st2"
     x="1059.5"
     y="-396.14142">Entretien avec le</text>
<text
     style="font-size:12px;font-family:ArialMT"
     id="text233"
     class="st1 st2"
     x="1052.5"
     y="-380.14142">médecin régulateur</text>
<path
     style="stroke:#000000"
     inkscape:connector-curvature="0"
     id="path241"
     d="m 1613.5,-255.02144 h 43 c 19.9,0 36,7.6 36,17 l 0,0 c 0,9.4 -16.1,17 -36,17 h -43 c -19.9,0 -36,-7.6 -36,-17 l 0,0 c 0,-9.4 16.1,-17 36,-17 z"
     class="st3" /><path
     style="fill:#ffffff;stroke:#000000"
     inkscape:connector-curvature="0"
     id="path243"
     d="m 1612.5,-256.02144 h 45 c 19.9,0 36,8.1 36,18 l 0,0 c 0,9.9 -16.1,18 -36,18 h -45 c -19.9,0 -36,-8.1 -36,-18 l 0,0 c 0,-10 16.1,-18 36,-18 z"
     class="st4" /><path
     style="fill:#ffffff;stroke:#ffffff"
     inkscape:connector-curvature="0"
     id="path245"
     d="m 1613.5,-255.02144 h 43 c 19.9,0 36,7.6 36,17 l 0,0 c 0,9.4 -16.1,17 -36,17 h -43 c -19.9,0 -36,-7.6 -36,-17 l 0,0 c 0,-9.4 16.1,-17 36,-17 z"
     class="st5" /><text
     style="font-size:12px;font-family:ArialMT"
     id="text247"
     class="st1 st2"
     x="1592.5"
     y="-236.14134">Secours (SDIS)</text>
<line
     style="fill:none;stroke:#333399"
     id="line249"
     y2="-247.02144"
     x2="1577.5"
     y1="-247.02144"
     x1="1290.5"
     class="st6" /><line
     style="fill:none;stroke:#333399"
     id="line251"
     y2="-247.02144"
     x2="1577.5"
     y1="-240.02144"
     x1="1565.5"
     class="st6" /><line
     style="fill:none;stroke:#333399"
     id="line253"
     y2="-247.02144"
     x2="1577.5"
     y1="-254.02144"
     x1="1565.5"
     class="st6" /><text
     style="font-size:12px;font-family:ArialMT"
     id="text255"
     class="st1 st2"
     x="1429.5"
     y="-253.14134">[Compétence]</text>
<path
     style="stroke:#000000"
     inkscape:connector-curvature="0"
     id="path257"
     d="m 661.5,-215.02144 h 27 c 19.9,0 36,7.6 36,17 l 0,0 c 0,9.4 -16.1,17 -36,17 h -27 c -19.9,0 -36,-7.6 -36,-17 l 0,0 c 0,-9.4 16.1,-17 36,-17 z"
     class="st3" /><path
     style="fill:#ffffff;stroke:#000000"
     inkscape:connector-curvature="0"
     id="path259"
     d="m 660.5,-216.02144 h 29 c 19.9,0 36,8.1 36,18 l 0,0 c 0,9.9 -16.1,18 -36,18 h -29 c -19.9,0 -36,-8.1 -36,-18 l 0,0 c 0,-10 16.1,-18 36,-18 z"
     class="st4" /><path
     style="fill:#ffffff;stroke:#ffffff"
     inkscape:connector-curvature="0"
     id="path261"
     d="m 661.5,-215.02144 h 27 c 19.9,0 36,7.6 36,17 l 0,0 c 0,9.4 -16.1,17 -36,17 h -27 c -19.9,0 -36,-7.6 -36,-17 l 0,0 c 0,-9.4 16.1,-17 36,-17 z"
     class="st5" /><text
     style="font-size:12px;font-family:ArialMT"
     id="text263"
     class="st1 st2"
     x="657.5"
     y="-196.14134">SMUR</text>
<polyline
     style="fill:none;stroke:#333399"
     id="polyline265"
     points="1230,212.2 1230,233.2 737,233.2  "
     class="st6"
     transform="translate(-13.5,-433.22144)" /><line
     style="fill:none;stroke:#333399"
     id="line267"
     y2="-200.02144"
     x2="723.5"
     y1="-207.02144"
     x1="735.5"
     class="st6" /><line
     style="fill:none;stroke:#333399"
     id="line269"
     y2="-200.02144"
     x2="723.5"
     y1="-193.02144"
     x1="735.5"
     class="st6" /><text
     style="font-size:12px;font-family:ArialMT"
     id="text271"
     class="st1 st2"
     x="819.5"
     y="-206.14134">[Besoin réanimation et matériel]</text>
<path
     style="stroke:#000000"
     inkscape:connector-curvature="0"
     id="path273"
     d="m 765.5,-167.02144 h 61 c 19.9,0 36,7.6 36,17 l 0,0 c 0,9.4 -16.1,17 -36,17 h -61 c -19.9,0 -36,-7.6 -36,-17 l 0,0 c 0,-9.4 16.1,-17 36,-17 z"
     class="st3" /><path
     style="fill:#ffffff;stroke:#000000"
     inkscape:connector-curvature="0"
     id="path275"
     d="m 764.5,-168.02144 h 63 c 19.9,0 36,8.1 36,18 l 0,0 c 0,9.9 -16.1,18 -36,18 h -63 c -19.9,0 -36,-8.1 -36,-18 l 0,0 c 0,-10 16.1,-18 36,-18 z"
     class="st4" /><path
     style="fill:#ffffff;stroke:#ffffff"
     inkscape:connector-curvature="0"
     id="path277"
     d="m 765.5,-167.02144 h 61 c 19.9,0 36,7.6 36,17 l 0,0 c 0,9.4 -16.1,17 -36,17 h -61 c -19.9,0 -36,-7.6 -36,-17 l 0,0 c 0,-9.4 16.1,-17 36,-17 z"
     class="st5" /><text
     style="font-size:12px;font-family:ArialMT"
     id="text279"
     class="st1 st2"
     x="746.5"
     y="-148.14145">Ambulance privée</text>
<polyline
     style="fill:none;stroke:#333399"
     id="polyline281"
     points="1254,212.2 1254,281.2 875,281.2  "
     class="st6"
     transform="translate(-13.5,-433.22144)" /><line
     style="fill:none;stroke:#333399"
     id="line283"
     y2="-152.02142"
     x2="861.5"
     y1="-159.02142"
     x1="873.5"
     class="st6" /><line
     style="fill:none;stroke:#333399"
     id="line285"
     y2="-152.02142"
     x2="861.5"
     y1="-145.02142"
     x1="873.5"
     class="st6" /><text
     style="font-size:12px;font-family:ArialMT"
     id="text287"
     class="st1 st2"
     x="957.5"
     y="-160.14145">[Autre]</text>
<line
     style="fill:none;stroke:#333399"
     id="line289"
     y2="-232.02144"
     x2="1577.5"
     y1="-232.02144"
     x1="1290.5"
     class="st6" /><line
     style="fill:none;stroke:#333399"
     id="line291"
     y2="-232.02144"
     x2="1577.5"
     y1="-225.02144"
     x1="1565.5"
     class="st6" /><line
     style="fill:none;stroke:#333399"
     id="line293"
     y2="-232.02144"
     x2="1577.5"
     y1="-239.02144"
     x1="1565.5"
     class="st6" /><text
     style="font-size:12px;font-family:ArialMT"
     id="text295"
     class="st1 st2"
     x="1433.5"
     y="-215.14134">[Carence]</text>
<line
     style="fill:none;stroke:#333399"
     id="line343"
     y2="-304.99176"
     x2="1741.1759"
     y1="-339.99176"
     x1="1741.1759"
     class="st6" /><path
     style="stroke:#000000"
     inkscape:connector-curvature="0"
     id="path359"
     d="m 1269.5,-415.02144 h 61 c 28.7,0 52,11.2 52,25 l 0,0 c 0,13.8 -23.3,25 -52,25 h -61 c -28.7,0 -52,-11.2 -52,-25 l 0,0 c 0,-13.8 23.3,-25 52,-25 z"
     class="st3" /><path
     style="fill:#ffffff;stroke:#000000"
     inkscape:connector-curvature="0"
     id="path361"
     d="m 1268.5,-416.02144 h 63 c 28.7,0 52,11.6 52,26 l 0,0 c 0,14.4 -23.3,26 -52,26 h -63 c -28.7,0 -52,-11.6 -52,-26 l 0,0 c 0,-14.4 23.3,-26 52,-26 z"
     class="st4" /><path
     style="fill:#ffffff;stroke:#ffffff"
     inkscape:connector-curvature="0"
     id="path363"
     d="m 1269.5,-415.02144 h 61 c 28.7,0 52,11.2 52,25 l 0,0 c 0,13.8 -23.3,25 -52,25 h -61 c -28.7,0 -52,-11.2 -52,-25 l 0,0 c 0,-13.8 23.3,-25 52,-25 z"
     class="st5" /><text
     style="font-size:12px;font-family:ArialMT"
     id="text365"
     class="st1 st2"
     x="1259.5"
     y="-396.14142">Compte-rendu</text>
<text
     style="font-size:12px;font-family:ArialMT"
     id="text367"
     class="st1 st2"
     x="1237.5"
     y="-380.14142">au médecin régulateur</text>
<path
     style="stroke:#000000"
     inkscape:connector-curvature="0"
     id="path369"
     d="m 1197.5,-255.02144 h 57 c 19.9,0 36,7.6 36,17 l 0,0 c 0,9.4 -16.1,17 -36,17 h -57 c -19.9,0 -36,-7.6 -36,-17 l 0,0 c 0,-9.4 16.1,-17 36,-17 z"
     class="st3" /><path
     style="fill:#ffffff;stroke:#000000"
     inkscape:connector-curvature="0"
     id="path371"
     d="m 1196.5,-256.02144 h 59 c 19.9,0 36,8.1 36,18 l 0,0 c 0,9.9 -16.1,18 -36,18 h -59 c -19.9,0 -36,-8.1 -36,-18 l 0,0 c 0,-10 16.1,-18 36,-18 z"
     class="st4" /><path
     style="fill:#ffffff;stroke:#ffffff"
     inkscape:connector-curvature="0"
     id="path373"
     d="m 1197.5,-255.02144 h 57 c 19.9,0 36,7.6 36,17 l 0,0 c 0,9.4 -16.1,17 -36,17 h -57 c -19.9,0 -36,-7.6 -36,-17 l 0,0 c 0,-9.4 16.1,-17 36,-17 z"
     class="st5" /><text
     style="font-size:12px;font-family:ArialMT"
     id="text375"
     class="st1 st2"
     x="1178.5"
     y="-236.14134">Envoi de secours</text>
<line
     style="fill:none;stroke:#333399"
     id="line411"
     y2="-328.02142"
     x2="1168.5"
     y1="-366.02142"
     x1="1168.5"
     class="st6" /><line
     style="fill:none;stroke:#333399"
     id="line413"
     y2="-328.02142"
     x2="1168.5"
     y1="-340.02142"
     x1="1161.5"
     class="st6" /><line
     style="fill:none;stroke:#333399"
     id="line415"
     y2="-328.02142"
     x2="1168.5"
     y1="-340.02142"
     x1="1175.5"
     class="st6" /><line
     style="fill:none;stroke:#333399"
     id="line417"
     y2="-328.02142"
     x2="1272.5"
     y1="-366.02142"
     x1="1272.5"
     class="st6" /><line
     style="fill:none;stroke:#333399"
     id="line419"
     y2="-328.02142"
     x2="1272.5"
     y1="-340.02142"
     x1="1265.5"
     class="st6" /><line
     style="fill:none;stroke:#333399"
     id="line421"
     y2="-328.02142"
     x2="1272.5"
     y1="-340.02142"
     x1="1279.5"
     class="st6" /><rect
     style="stroke:#000000"
     id="rect423"
     height="7"
     width="120"
     class="st3"
     y="-328.02142"
     x="1160.5" /><line
     style="fill:none;stroke:#333399"
     id="line425"
     y2="-255.02144"
     x2="1220.5"
     y1="-322.02142"
     x1="1220.5"
     class="st6" /><line
     style="fill:none;stroke:#333399"
     id="line427"
     y2="-255.02144"
     x2="1220.5"
     y1="-267.02142"
     x1="1213.5"
     class="st6" /><line
     style="fill:none;stroke:#333399"
     id="line429"
     y2="-255.02144"
     x2="1220.5"
     y1="-267.02142"
     x1="1227.5"
     class="st6" /><polygon
     style="fill:#ffffff;stroke:#ffffff"
     id="polygon431"
     points="1118,329.2 1134,345.2 1118,361.2 1102,345.2 "
     class="st5"
     transform="translate(-13.5,-433.22144)" /><polygon
     style="fill:none;stroke:#000000"
     id="polygon433"
     points="1118,329.2 1134,345.2 1118,361.2 1102,345.2 "
     class="st0"
     transform="translate(-13.5,-433.22144)" /><polyline
     style="fill:none;stroke:#333399"
     id="polyline435"
     points="1198,111.2 1198,153.2 1118,153.2 1118,329.2  "
     class="st6"
     transform="translate(-13.5,-433.22144)" /><line
     style="fill:none;stroke:#333399"
     id="line437"
     y2="-104.02143"
     x2="1104.5"
     y1="-116.02143"
     x1="1097.5"
     class="st6" /><line
     style="fill:none;stroke:#333399"
     id="line439"
     y2="-104.02143"
     x2="1104.5"
     y1="-116.02143"
     x1="1111.5"
     class="st6" /><path
     style="stroke:#000000"
     inkscape:connector-curvature="0"
     id="path441"
     d="m 1301.5,-111.02144 h 9 c 28.7,0 52,11.199998 52,24.999998 l 0,0 c 0,13.8 -23.3,25 -52,25 h -9 c -28.7,0 -52,-11.2 -52,-25 l 0,0 c 0,-13.8 23.3,-24.999998 52,-24.999998 z"
     class="st3" /><path
     style="fill:#ffffff;stroke:#000000"
     inkscape:connector-curvature="0"
     id="path443"
     d="m 1300.5,-112.02144 h 11 c 28.7,0 52,11.6 52,25.999998 l 0,0 c 0,14.4 -23.3,26 -52,26 h -11 c -28.7,0 -52,-11.6 -52,-26 l 0,0 c 0,-14.399998 23.3,-25.999998 52,-25.999998 z"
     class="st4" /><path
     style="fill:#ffffff;stroke:#ffffff"
     inkscape:connector-curvature="0"
     id="path445"
     d="m 1301.5,-111.02144 h 9 c 28.7,0 52,11.199998 52,24.999998 l 0,0 c 0,13.8 -23.3,25 -52,25 h -9 c -28.7,0 -52,-11.2 -52,-25 l 0,0 c 0,-13.8 23.3,-24.999998 52,-24.999998 z"
     class="st5" /><text
     style="font-size:12px;font-family:ArialMT"
     id="text447"
     class="st1 st2"
     x="1267.5"
     y="-92.141457">Entretien avec</text>
<text
     style="font-size:12px;font-family:ArialMT"
     id="text449"
     class="st1 st2"
     x="1280.5"
     y="-76.141335">la victime</text>
<polyline
     style="fill:none;stroke:#333399"
     id="polyline451"
     points="1134,345.2 1262,345.2 1134,345.2 1263,345.2  "
     class="st6"
     transform="translate(-13.5,-433.22144)" /><line
     style="fill:none;stroke:#333399"
     id="line453"
     y2="-88.021431"
     x2="1249.5"
     y1="-81.021431"
     x1="1237.5"
     class="st6" /><line
     style="fill:none;stroke:#333399"
     id="line455"
     y2="-88.021431"
     x2="1249.5"
     y1="-95.021431"
     x1="1237.5"
     class="st6" /><text
     style="font-size:12px;font-family:ArialMT"
     id="text457"
     class="st1 st2"
     x="1134.5"
     y="-96.141457">[Refus d'évacuation]</text>
<path
     style="stroke:#000000"
     inkscape:connector-curvature="0"
     id="path459"
     d="m 1077.5,32.978558 h 61 c 19.9,0 36,7.6 36,17 l 0,0 c 0,9.4 -16.1,17 -36,17 h -61 c -19.9,0 -36,-7.6 -36,-17 l 0,0 c 0,-9.4 16.1,-17 36,-17 z"
     class="st3" /><path
     style="fill:#ffffff;stroke:#000000"
     inkscape:connector-curvature="0"
     id="path461"
     d="m 1076.5,31.978558 h 63 c 19.9,0 36,8.1 36,18 l 0,0 c 0,9.9 -16.1,18 -36,18 h -63 c -19.9,0 -36,-8.1 -36,-18 l 0,0 c 0,-10 16.1,-18 36,-18 z"
     class="st4" /><path
     style="fill:#ffffff;stroke:#ffffff"
     inkscape:connector-curvature="0"
     id="path463"
     d="m 1077.5,32.978558 h 61 c 19.9,0 36,7.6 36,17 l 0,0 c 0,9.4 -16.1,17 -36,17 h -61 c -19.9,0 -36,-7.6 -36,-17 l 0,0 c 0,-9.4 16.1,-17 36,-17 z"
     class="st5" /><text
     style="font-size:12px;font-family:ArialMT"
     id="text465"
     class="st1 st2"
     x="1059.5"
     y="51.858665">Choix d'un hôpital</text>
<line
     style="fill:none;stroke:#333399"
     id="line467"
     y2="32.978569"
     x2="1104.5"
     y1="-72.021431"
     x1="1104.5"
     class="st6" /><line
     style="fill:none;stroke:#333399"
     id="line469"
     y2="32.978569"
     x2="1104.5"
     y1="20.978571"
     x1="1097.5"
     class="st6" /><line
     style="fill:none;stroke:#333399"
     id="line471"
     y2="32.978569"
     x2="1104.5"
     y1="20.978571"
     x1="1111.5"
     class="st6" /><text
     style="font-size:12px;font-family:ArialMT"
     id="text473"
     class="st1 st2"
     x="1056.5"
     y="-17.141333">[Sinon]</text>
<path
     style="stroke:#000000"
     inkscape:connector-curvature="0"
     id="path475"
     d="m 1445.5,-103.02144 h 124 c 19.9,0 36,7.599998 36,16.999998 l 0,0 c 0,9.4 -16.1,17 -36,17 h -124 c -19.9,0 -36,-7.6 -36,-17 l 0,0 c 0,-9.4 16.1,-16.999998 36,-16.999998 z"
     class="st3" /><path
     style="fill:#ffffff;stroke:#000000"
     inkscape:connector-curvature="0"
     id="path477"
     d="m 1444.5,-104.02144 h 126 c 19.9,0 36,8.099998 36,17.999998 l 0,0 c 0,9.9 -16.1,18 -36,18 h -126 c -19.9,0 -36,-8.1 -36,-18 l 0,0 c 0,-10 16.1,-17.999998 36,-17.999998 z"
     class="st4" /><path
     style="fill:#ffffff;stroke:#ffffff"
     inkscape:connector-curvature="0"
     id="path479"
     d="m 1445.5,-103.02144 h 124 c 19.9,0 36,7.599998 36,16.999998 l 0,0 c 0,9.4 -16.1,17 -36,17 h -124 c -19.9,0 -36,-7.6 -36,-17 l 0,0 c 0,-9.4 16.1,-16.999998 36,-16.999998 z"
     class="st5" /><text
     style="font-size:12px;font-family:ArialMT"
     id="text481"
     class="st1 st2"
     x="1430.5"
     y="-84.141335">Décharge de responsabilité</text>
<line
     style="fill:none;stroke:#333399"
     id="line483"
     y2="-87.021431"
     x2="1409.5"
     y1="-87.021431"
     x1="1361.5"
     class="st6" /><line
     style="fill:none;stroke:#333399"
     id="line485"
     y2="-87.021431"
     x2="1409.5"
     y1="-80.021431"
     x1="1397.5"
     class="st6" /><line
     style="fill:none;stroke:#333399"
     id="line487"
     y2="-87.021431"
     x2="1409.5"
     y1="-94.021431"
     x1="1397.5"
     class="st6" /><text
     style="font-size:12px;font-family:ArialMT"
     id="text489"
     class="st1 st2"
     x="1365.5"
     y="-92.141457">[Sinon]</text>
<polyline
     style="fill:none;stroke:#333399"
     id="polyline491"
     points="1263,361.2 1134,361.2 1134,466.2  "
     class="st6"
     transform="translate(-13.5,-433.22144)" /><line
     style="fill:none;stroke:#333399"
     id="line493"
     y2="32.978569"
     x2="1120.5"
     y1="20.978571"
     x1="1113.5"
     class="st6" /><line
     style="fill:none;stroke:#333399"
     id="line495"
     y2="32.978569"
     x2="1120.5"
     y1="20.978571"
     x1="1127.5"
     class="st6" /><text
     style="font-size:12px;font-family:ArialMT"
     id="text497"
     class="st1 st2"
     x="1126.5"
     y="-57.141335">[Change d'avis]</text>
<path
     style="stroke:#000000"
     inkscape:connector-curvature="0"
     id="path499"
     d="m 1301.5,24.978558 h 17 c 28.7,0 52,11.2 52,25 l 0,0 c 0,13.8 -23.3,25 -52,25 h -17 c -28.7,0 -52,-11.2 -52,-25 l 0,0 c 0,-13.8 23.3,-25 52,-25 z"
     class="st3" /><path
     style="fill:#ffffff;stroke:#000000"
     inkscape:connector-curvature="0"
     id="path501"
     d="m 1300.5,23.978558 h 19 c 28.7,0 52,11.6 52,26 l 0,0 c 0,14.4 -23.3,26 -52,26 h -19 c -28.7,0 -52,-11.6 -52,-26 l 0,0 c 0,-14.4 23.3,-26 52,-26 z"
     class="st4" /><path
     style="fill:#ffffff;stroke:#ffffff"
     inkscape:connector-curvature="0"
     id="path503"
     d="m 1301.5,24.978558 h 17 c 28.7,0 52,11.2 52,25 l 0,0 c 0,13.8 -23.3,25 -52,25 h -17 c -28.7,0 -52,-11.2 -52,-25 l 0,0 c 0,-13.8 23.3,-25 52,-25 z"
     class="st5" /><text
     style="font-size:12px;font-family:ArialMT"
     id="text505"
     class="st1 st2"
     x="1268.5"
     y="43.858665">Hospitalisation</text>
<text
     style="font-size:12px;font-family:ArialMT"
     id="text507"
     class="st1 st2"
     x="1267.5"
     y="59.858665">sous contrainte</text>
<line
     style="fill:none;stroke:#333399"
     id="line509"
     y2="24.978571"
     x2="1256.5"
     y1="-62.021431"
     x1="1256.5"
     class="st6" /><line
     style="fill:none;stroke:#333399"
     id="line511"
     y2="24.978571"
     x2="1256.5"
     y1="12.97857"
     x1="1249.5"
     class="st6" /><line
     style="fill:none;stroke:#333399"
     id="line513"
     y2="24.978571"
     x2="1256.5"
     y1="12.97857"
     x1="1263.5"
     class="st6" /><text
     style="font-size:12px;font-family:ArialMT"
     id="text515"
     class="st1 st2"
     x="1190.5"
     y="-12.141334">[État grave]</text>
<line
     style="fill:none;stroke:#333399"
     id="line517"
     y2="24.978571"
     x2="1272.5"
     y1="-62.021431"
     x1="1272.5"
     class="st6" /><line
     style="fill:none;stroke:#333399"
     id="line519"
     y2="24.978571"
     x2="1272.5"
     y1="12.97857"
     x1="1265.5"
     class="st6" /><line
     style="fill:none;stroke:#333399"
     id="line521"
     y2="24.978571"
     x2="1272.5"
     y1="12.97857"
     x1="1279.5"
     class="st6" /><text
     style="font-size:12px;font-family:ArialMT"
     id="text523"
     class="st1 st2"
     x="1275.5"
     y="-31.141333">[Demande</text>
<text
     style="font-size:12px;font-family:ArialMT"
     id="text525"
     class="st1 st2"
     x="1294.5"
     y="-15.141334">d'un</text>
<text
     style="font-size:12px;font-family:ArialMT"
     id="text527"
     class="st1 st2"
     x="1292.5"
     y="0.85866642">tiers]</text>
<line
     style="fill:none;stroke:#333399"
     id="line529"
     y2="24.978571"
     x2="1352.5"
     y1="-62.021431"
     x1="1352.5"
     class="st6" /><line
     style="fill:none;stroke:#333399"
     id="line531"
     y2="24.978571"
     x2="1352.5"
     y1="12.97857"
     x1="1345.5"
     class="st6" /><line
     style="fill:none;stroke:#333399"
     id="line533"
     y2="24.978571"
     x2="1352.5"
     y1="12.97857"
     x1="1359.5"
     class="st6" /><text
     style="font-size:12px;font-family:ArialMT"
     id="text535"
     class="st1 st2"
     x="1355.5"
     y="-39.141335">[Menace</text>
<text
     style="font-size:12px;font-family:ArialMT"
     id="text537"
     class="st1 st2"
     x="1362.5"
     y="-23.141333">l'ordre</text>
<text
     style="font-size:12px;font-family:ArialMT"
     id="text539"
     class="st1 st2"
     x="1361.5"
     y="-7.1413336">public]</text>
<line
     style="fill:none;stroke:#333399"
     id="line541"
     y2="48.978569"
     x2="1173.5"
     y1="48.978569"
     x1="1249.5"
     class="st6" /><line
     style="fill:none;stroke:#333399"
     id="line543"
     y2="48.978569"
     x2="1173.5"
     y1="41.978569"
     x1="1185.5"
     class="st6" /><line
     style="fill:none;stroke:#333399"
     id="line545"
     y2="48.978569"
     x2="1173.5"
     y1="55.978569"
     x1="1185.5"
     class="st6" /><path
     style="stroke:#000000"
     inkscape:connector-curvature="0"
     id="path547"
     d="m 1421.5,80.978558 h 27 c 19.9,0 36,7.6 36,17 l 0,0 c 0,9.400002 -16.1,17.000002 -36,17.000002 h -27 c -19.9,0 -36,-7.6 -36,-17.000002 l 0,0 c 0,-9.4 16.1,-17 36,-17 z"
     class="st3" /><path
     style="fill:#ffffff;stroke:#000000"
     inkscape:connector-curvature="0"
     id="path549"
     d="m 1420.5,79.978558 h 29 c 19.9,0 36,8.1 36,18 l 0,0 c 0,9.900002 -16.1,18.000002 -36,18.000002 h -29 c -19.9,0 -36,-8.1 -36,-18.000002 l 0,0 c 0,-10 16.1,-18 36,-18 z"
     class="st4" /><path
     style="fill:#ffffff;stroke:#ffffff"
     inkscape:connector-curvature="0"
     id="path551"
     d="m 1421.5,80.978558 h 27 c 19.9,0 36,7.6 36,17 l 0,0 c 0,9.400002 -16.1,17.000002 -36,17.000002 h -27 c -19.9,0 -36,-7.6 -36,-17.000002 l 0,0 c 0,-9.4 16.1,-17 36,-17 z"
     class="st5" /><text
     style="font-size:12px;font-family:ArialMT"
     id="text553"
     class="st1 st2"
     x="1404.5"
     y="99.858635">Évacuation</text>
<polyline
     style="fill:none;stroke:#333399"
     id="polyline555"
     points="1126,499.2 1126,529.2 1399,529.2  "
     class="st6"
     transform="translate(-13.5,-433.22144)" /><line
     style="fill:none;stroke:#333399"
     id="line557"
     y2="95.978569"
     x2="1385.5"
     y1="102.97857"
     x1="1373.5"
     class="st6" /><line
     style="fill:none;stroke:#333399"
     id="line559"
     y2="95.978569"
     x2="1385.5"
     y1="88.978569"
     x1="1373.5"
     class="st6" /><path
     style="stroke:#000000"
     inkscape:connector-curvature="0"
     id="path561"
     d="m 941.5,16.978558 h 11 c 37.6,0 68,14.8 68,33 l 0,0 c 0,18.2 -30.4,33 -68,33 h -11 c -37.6,0 -68,-14.8 -68,-33 l 0,0 c 0,-18.3 30.4,-33 68,-33 z"
     class="st3" /><path
     style="fill:#ffffff;stroke:#000000"
     inkscape:connector-curvature="0"
     id="path563"
     d="m 940.5,15.978558 h 13 c 37.6,0 68,15.2 68,34 l 0,0 c 0,18.8 -30.4,34 -68,34 h -13 c -37.6,0 -68,-15.2 -68,-34 l 0,0 c 0,-18.8 30.4,-34 68,-34 z"
     class="st4" /><path
     style="fill:#ffffff;stroke:#ffffff"
     inkscape:connector-curvature="0"
     id="path565"
     d="m 941.5,16.978558 h 11 c 37.6,0 68,14.8 68,33 l 0,0 c 0,18.2 -30.4,33 -68,33 h -11 c -37.6,0 -68,-14.8 -68,-33 l 0,0 c 0,-18.3 30.4,-33 68,-33 z"
     class="st5" /><text
     style="font-size:12px;font-family:ArialMT"
     id="text567"
     class="st1 st2"
     x="914.5"
     y="35.858665">Annonce de</text>
<text
     style="font-size:12px;font-family:ArialMT"
     id="text569"
     class="st1 st2"
     x="925.5"
     y="51.858665">l'arrivée</text>
<text
     style="font-size:12px;font-family:ArialMT"
     id="text571"
     class="st1 st2"
     x="919.5"
     y="67.858665">du patient</text>
<line
     style="fill:none;stroke:#333399"
     id="line573"
     y2="47.978569"
     x2="1019.5"
     y1="47.978569"
     x1="1041.5"
     class="st6" /><line
     style="fill:none;stroke:#333399"
     id="line575"
     y2="47.978569"
     x2="1019.5"
     y1="40.978569"
     x1="1031.5"
     class="st6" /><line
     style="fill:none;stroke:#333399"
     id="line577"
     y2="47.978569"
     x2="1019.5"
     y1="54.978569"
     x1="1031.5"
     class="st6" /><rect
     style="stroke:#000000"
     id="rect579"
     height="7"
     width="1200"
     class="st3"
     y="167.97858"
     x="656.5" /><line
     style="fill:none;stroke:#333399"
     id="line581"
     y2="167.97858"
     x2="674.5"
     y1="-182.02144"
     x1="674.5"
     class="st6" /><line
     style="fill:none;stroke:#333399"
     id="line583"
     y2="167.97858"
     x2="674.5"
     y1="155.97858"
     x1="667.5"
     class="st6" /><line
     style="fill:none;stroke:#333399"
     id="line585"
     y2="167.97858"
     x2="674.5"
     y1="155.97858"
     x1="681.5"
     class="st6" /><line
     style="fill:none;stroke:#333399"
     id="line587"
     y2="167.97858"
     x2="795.5"
     y1="-134.02142"
     x1="795.5"
     class="st6" /><line
     style="fill:none;stroke:#333399"
     id="line589"
     y2="167.97858"
     x2="795.5"
     y1="155.97858"
     x1="788.5"
     class="st6" /><line
     style="fill:none;stroke:#333399"
     id="line591"
     y2="167.97858"
     x2="795.5"
     y1="155.97858"
     x1="802.5"
     class="st6" /><g
     id="g4021"
     transform="translate(-15.3877,-243.19178)"><path
       class="st3"
       d="m 1715,-61.8 h 84 c 19.9,0 36,7.6 36,17 l 0,0 c 0,9.4 -16.1,17 -36,17 h -84 c -19.9,0 -36,-7.6 -36,-17 l 0,0 c 0,-9.4 16.1,-17 36,-17 z"
       id="path593"
       inkscape:connector-curvature="0"
       style="stroke:#000000" /><path
       class="st4"
       d="m 1714,-62.8 h 86 c 19.9,0 36,8.1 36,18 l 0,0 c 0,9.9 -16.1,18 -36,18 h -86 c -19.9,0 -36,-8.1 -36,-18 l 0,0 c 0,-10 16.1,-18 36,-18 z"
       id="path595"
       inkscape:connector-curvature="0"
       style="fill:#ffffff;stroke:#000000" /><path
       class="st5"
       d="m 1715,-61.8 h 84 c 19.9,0 36,7.6 36,17 l 0,0 c 0,9.4 -16.1,17 -36,17 h -84 c -19.9,0 -36,-7.6 -36,-17 l 0,0 c 0,-9.4 16.1,-17 36,-17 z"
       id="path597"
       inkscape:connector-curvature="0"
       style="fill:#ffffff;stroke:#ffffff" /><text
       y="-42.919998"
       x="1698"
       class="st1 st2"
       id="text599"
       style="font-size:12px;font-family:ArialMT">Demande de renforts</text>
</g><line
     style="fill:none;stroke:#333399"
     id="line345"
     y2="-304.99176"
     x2="1741.1759"
     y1="-316.99176"
     x1="1734.1759"
     class="st6" /><line
     style="fill:none;stroke:#333399"
     id="line347"
     y2="-304.99176"
     x2="1741.1759"
     y1="-316.99176"
     x1="1748.1759"
     class="st6" /><line
     style="fill:none;stroke:#333399"
     id="line601"
     y2="167.97858"
     x2="1434.5"
     y1="113.97857"
     x1="1434.5"
     class="st6" /><line
     style="fill:none;stroke:#333399"
     id="line603"
     y2="167.97858"
     x2="1434.5"
     y1="155.97858"
     x1="1427.5"
     class="st6" /><line
     style="fill:none;stroke:#333399"
     id="line605"
     y2="167.97858"
     x2="1434.5"
     y1="155.97858"
     x1="1441.5"
     class="st6" /><line
     style="fill:none;stroke:#333399"
     id="line607"
     y2="167.97858"
     x2="1507.5"
     y1="-70.021431"
     x1="1507.5"
     class="st6" /><line
     style="fill:none;stroke:#333399"
     id="line609"
     y2="167.97858"
     x2="1507.5"
     y1="155.97858"
     x1="1500.5"
     class="st6" /><line
     style="fill:none;stroke:#333399"
     id="line611"
     y2="167.97858"
     x2="1507.5"
     y1="155.97858"
     x1="1514.5"
     class="st6" /><line
     style="fill:none;stroke:#333399"
     id="line613"
     y2="167.97858"
     x2="1634.5"
     y1="-222.02144"
     x1="1634.5"
     class="st6" /><line
     style="fill:none;stroke:#333399"
     id="line615"
     y2="167.97858"
     x2="1634.5"
     y1="155.97858"
     x1="1627.5"
     class="st6" /><line
     style="fill:none;stroke:#333399"
     id="line617"
     y2="167.97858"
     x2="1634.5"
     y1="155.97858"
     x1="1641.5"
     class="st6" /><line
     style="fill:none;stroke:#333399;stroke-width:0.83403277"
     id="line619"
     y2="167.97858"
     x2="1743.5"
     y1="-270.25613"
     x1="1743.5"
     class="st6" /><line
     style="fill:none;stroke:#333399"
     id="line621"
     y2="167.97858"
     x2="1743.5"
     y1="155.97858"
     x1="1736.5"
     class="st6" /><line
     style="fill:none;stroke:#333399"
     id="line623"
     y2="167.97858"
     x2="1743.5"
     y1="155.97858"
     x1="1750.5"
     class="st6" /><line
     style="fill:none;stroke:#333399;stroke-width:0.82844251"
     id="line625"
     y2="167.97858"
     x2="1840.5"
     y1="-341.26868"
     x1="1840.5"
     class="st6" /><line
     style="fill:none;stroke:#333399"
     id="line627"
     y2="167.97858"
     x2="1840.5"
     y1="155.97858"
     x1="1833.5"
     class="st6" /><line
     style="fill:none;stroke:#333399"
     id="line629"
     y2="167.97858"
     x2="1840.5"
     y1="155.97858"
     x1="1847.5"
     class="st6" /><path
     style="stroke:#000000"
     inkscape:connector-curvature="0"
     id="path631"
     d="m 1221.5,200.97856 h 73 c 19.9,0 36,7.6 36,17 l 0,0 c 0,9.4 -16.1,17 -36,17 h -73 c -19.9,0 -36,-7.6 -36,-17 l 0,0 c 0,-9.4 16.1,-17 36,-17 z"
     class="st3" /><path
     style="fill:#ffffff;stroke:#000000"
     inkscape:connector-curvature="0"
     id="path633"
     d="m 1220.5,199.97856 h 75 c 19.9,0 36,8.1 36,18 l 0,0 c 0,9.9 -16.1,18 -36,18 h -75 c -19.9,0 -36,-8.1 -36,-18 l 0,0 c 0,-10 16.1,-18 36,-18 z"
     class="st4" /><path
     style="fill:#ffffff;stroke:#ffffff"
     inkscape:connector-curvature="0"
     id="path635"
     d="m 1221.5,200.97856 h 73 c 19.9,0 36,7.6 36,17 l 0,0 c 0,9.4 -16.1,17 -36,17 h -73 c -19.9,0 -36,-7.6 -36,-17 l 0,0 c 0,-9.4 16.1,-17 36,-17 z"
     class="st5" /><text
     style="font-size:12px;font-family:ArialMT"
     id="text637"
     class="st1 st2"
     x="1205.5"
     y="219.85864">Fin de l'intervention</text>
<line
     style="fill:none;stroke:#333399"
     id="line639"
     y2="200.97858"
     x2="1256.5"
     y1="173.97858"
     x1="1256.5"
     class="st6" /><line
     style="fill:none;stroke:#333399"
     id="line641"
     y2="200.97858"
     x2="1256.5"
     y1="188.97858"
     x1="1249.5"
     class="st6" /><line
     style="fill:none;stroke:#333399"
     id="line643"
     y2="200.97858"
     x2="1256.5"
     y1="188.97858"
     x1="1263.5"
     class="st6" /><ellipse
     style="stroke:#000000"
     sodipodi:ry="12"
     sodipodi:rx="12"
     sodipodi:cy="709.79999"
     sodipodi:cx="1270"
     id="ellipse645"
     ry="12"
     rx="12"
     cy="709.79999"
     cx="1270"
     class="st3"
     transform="translate(-13.5,-433.22144)" /><ellipse
     style="fill:#ffffff;stroke:#ffffff"
     sodipodi:ry="11"
     sodipodi:rx="11"
     sodipodi:cy="709.79999"
     sodipodi:cx="1270"
     id="ellipse647"
     ry="11"
     rx="11"
     cy="709.79999"
     cx="1270"
     class="st5"
     transform="translate(-13.5,-433.22144)" /><ellipse
     style="stroke:#000000"
     sodipodi:ry="7.5"
     sodipodi:rx="7.5"
     sodipodi:cy="709.79999"
     sodipodi:cx="1270"
     id="ellipse649"
     ry="7.5"
     rx="7.5"
     cy="709.79999"
     cx="1270"
     class="st3"
     transform="translate(-13.5,-433.22144)" /><line
     style="fill:none;stroke:#333399"
     id="line651"
     y2="263.97858"
     x2="1256.5"
     y1="233.97858"
     x1="1256.5"
     class="st6" /><line
     style="fill:none;stroke:#333399"
     id="line653"
     y2="263.97858"
     x2="1256.5"
     y1="251.97858"
     x1="1249.5"
     class="st6" /><line
     style="fill:none;stroke:#333399"
     id="line655"
     y2="263.97858"
     x2="1256.5"
     y1="251.97858"
     x1="1263.5"
     class="st6" /><g
     id="g4027"
     transform="translate(250.928,-201.2333)"><g
       transform="translate(-53.48517,-86.205509)"
       id="g4016"><path
         style="stroke:#000000"
         inkscape:connector-curvature="0"
         id="path593-2"
         d="m 1544.7331,-87.552967 h 84 c 19.9,0 36,7.6 36,17 l 0,0 c 0,9.4 -16.1,17 -36,17 h -84 c -19.9,0 -36,-7.6 -36,-17 l 0,0 c 0,-9.4 16.1,-17 36,-17 z"
         class="st3" /><path
         style="fill:#ffffff;stroke:#000000"
         inkscape:connector-curvature="0"
         id="path595-9"
         d="m 1543.7331,-88.552967 h 86 c 19.9,0 36,8.1 36,18 l 0,0 c 0,9.9 -16.1,18 -36,18 h -86 c -19.9,0 -36,-8.1 -36,-18 l 0,0 c 0,-10 16.1,-18 36,-18 z"
         class="st4" /><path
         style="fill:#ffffff;stroke:#ffffff"
         inkscape:connector-curvature="0"
         id="path597-1"
         d="m 1544.7331,-87.552967 h 84 c 19.9,0 36,7.6 36,17 l 0,0 c 0,9.4 -16.1,17 -36,17 h -84 c -19.9,0 -36,-7.6 -36,-17 l 0,0 c 0,-9.4 16.1,-17 36,-17 z"
         class="st5" /></g><text
       y="-157.43675"
       x="1483.6123"
       class="st1 st2"
       id="text105"
       style="font-size:12px;font-family:ArialMT">Prompts secours</text>
</g></svg>