<?xml version="1.0" encoding="UTF-8" standalone="no"?>
<!-- Generator: Adobe Illustrator 19.0.0, SVG Export Plug-In . SVG Version: 6.00 Build 0)  -->

<svg
   xmlns:dc="http://purl.org/dc/elements/1.1/"
   xmlns:cc="http://creativecommons.org/ns#"
   xmlns:rdf="http://www.w3.org/1999/02/22-rdf-syntax-ns#"
   xmlns:svg="http://www.w3.org/2000/svg"
   xmlns="http://www.w3.org/2000/svg"
   xmlns:sodipodi="http://sodipodi.sourceforge.net/DTD/sodipodi-0.dtd"
   xmlns:inkscape="http://www.inkscape.org/namespaces/inkscape"
   version="1.1"
   id="Calque_1"
   x="0px"
   y="0px"
   viewBox="624 -452.5 827.52033 589.76098"
   xml:space="preserve"
   inkscape:version="0.48.5 r10040"
   width="100%"
   height="100%"
   sodipodi:docname="activity-2.svg"
   inkscape:export-filename="/home/alban/Labo/architecture/rapport/exports/activity-2.png"
   inkscape:export-xdpi="179.89999"
   inkscape:export-ydpi="179.89999"><metadata
     id="metadata661"><rdf:RDF><cc:Work
         rdf:about=""><dc:format>image/svg+xml</dc:format><dc:type
           rdf:resource="http://purl.org/dc/dcmitype/StillImage" /><dc:title></dc:title></cc:Work></rdf:RDF></metadata><defs
     id="defs659" /><sodipodi:namedview
     pagecolor="#ffffff"
     bordercolor="#666666"
     borderopacity="1"
     objecttolerance="10"
     gridtolerance="10"
     guidetolerance="10"
     inkscape:pageopacity="0"
     inkscape:pageshadow="2"
     inkscape:window-width="1366"
     inkscape:window-height="721"
     id="namedview657"
     showgrid="false"
     inkscape:zoom="0.79461279"
     inkscape:cx="304.79302"
     inkscape:cy="296.3952"
     inkscape:window-x="-2"
     inkscape:window-y="-3"
     inkscape:window-maximized="1"
     inkscape:current-layer="Calque_1"
     inkscape:snap-bbox="true"
     inkscape:object-paths="true"
     inkscape:snap-intersection-paths="true"
     inkscape:object-nodes="true"
     inkscape:snap-smooth-nodes="true"
     inkscape:snap-global="true"
     inkscape:snap-midpoints="true"
     fit-margin-top="0"
     fit-margin-left="0"
     fit-margin-right="0"
     fit-margin-bottom="0" /><style
     type="text/css"
     id="style3">
	.st0{fill:none;stroke:#000000;}
	.st1{font-family:'ArialMT';}
	.st2{font-size:12px;}
	.st3{stroke:#000000;}
	.st4{fill:#FFFFFF;stroke:#000000;}
	.st5{fill:#FFFFFF;stroke:#FFFFFF;}
	.st6{fill:none;stroke:#333399;}
</style><rect
     style="fill:none;stroke:#000000;stroke-width:0.64310813"
     id="rect7"
     height="588.87732"
     width="674.23975"
     class="st0"
     y="-452.00003"
     x="776.33698" /><line
     style="fill:none;stroke:#000000;stroke-width:0.7673834"
     id="line9"
     y2="136.8773"
     x2="1127.337"
     y1="-452.00003"
     x1="1127.337"
     class="st0" /><line
     style="fill:none;stroke:#000000;stroke-width:0.7673834"
     id="line11"
     y2="136.8773"
     x2="776.33698"
     y1="-452.00003"
     x1="776.33698"
     class="st0" /><line
     style="fill:none;stroke:#000000;stroke-width:1"
     id="line13"
     y2="-452.00003"
     x2="1127.337"
     y1="-452.00003"
     x1="776.33698"
     class="st0" /><text
     style="font-size:12px;font-family:ArialMT"
     id="text17"
     class="st1 st2"
     x="935.33698"
     y="-438.1199">SAMU</text>
<line
     style="fill:none;stroke:#000000;stroke-width:1"
     id="line19"
     y2="-427.00003"
     x2="1127.337"
     y1="-427.00003"
     x1="776.33698"
     class="st0" /><line
     style="fill:none;stroke:#000000;stroke-width:0.7673834"
     id="line21"
     y2="136.8773"
     x2="1450.5768"
     y1="-452.00003"
     x1="1450.5768"
     class="st0" /><line
     style="fill:none;stroke:#000000;stroke-width:0.72952843"
     id="line23"
     y2="-452.00003"
     x2="1451.1556"
     y1="-452.00003"
     x1="1128.1031"
     class="st0" /><line
     style="fill:none;stroke:#000000;stroke-width:0.72973979"
     id="line25"
     y2="136.8773"
     x2="1450.5768"
     y1="136.8773"
     x1="1127.337"
     class="st0" /><text
     style="font-size:12px;font-family:ArialMT"
     id="text27"
     class="st1 st2"
     x="1277.3879"
     y="-438.74918">SDIS</text>
<line
     style="fill:none;stroke:#000000;stroke-width:0.72861016"
     id="line29"
     y2="-427.00003"
     x2="1450.5768"
     y1="-427.00003"
     x1="1128.337"
     class="st0" /><g
     id="g3982"
     transform="translate(-292.7647,-16.200042)"><ellipse
       class="st3"
       cx="1278"
       cy="-374.79999"
       rx="8"
       ry="8"
       id="ellipse31"
       sodipodi:cx="1278"
       sodipodi:cy="-374.79999"
       sodipodi:rx="8"
       sodipodi:ry="8"
       style="stroke:#000000"
       d="m 1286,-374.79999 c 0,4.41828 -3.5817,8 -8,8 -4.4183,0 -8,-3.58172 -8,-8 0,-4.41828 3.5817,-8 8,-8 4.4183,0 8,3.58172 8,8 z" /><rect
       x="1262"
       y="-398.79999"
       class="st0"
       width="31"
       height="17"
       id="rect33"
       style="fill:none;stroke:#000000" /><text
       y="-384.91989"
       x="1271"
       class="st1 st2"
       id="text35"
       style="font-size:12px;font-family:ArialMT">15</text>
</g><path
     style="stroke:#000000"
     inkscape:connector-curvature="0"
     id="path99"
     d="m 1261.337,-349.00003 52.8226,-0.75705 c 19.898,-0.28518 39.1456,8.35705 39.1456,17.75705 l 0,0 c 0,9.4 -18.6159,17.46679 -38.5155,17.34014 l -53.4527,-0.34014 c -19.8996,-0.12664 -36,-7.6 -36,-17 l 0,0 c 0,-9.4 16.102,-16.71482 36,-17 z"
     class="st3"
     sodipodi:nodetypes="ssccssccs" /><path
     style="fill:#ffffff;stroke:#000000"
     inkscape:connector-curvature="0"
     id="path101"
     d="m 1260.337,-350.00003 53.8226,0.24295 c 19.8998,0.0898 39.1456,7.85705 39.1456,17.75705 l 0,0 c 0,9.9 -18.6138,17.09905 -38.5123,17.34016 l -54.4559,0.65984 c -19.8985,0.24111 -36,-8.1 -36,-18 l 0,0 c 0,-10 16.1002,-18.08983 36,-18 z"
     class="st4"
     sodipodi:nodetypes="ssccssccs" /><path
     style="fill:#ffffff;stroke:#ffffff"
     inkscape:connector-curvature="0"
     id="path103"
     d="m 1261.337,-349.00003 53.4518,0.50142 c 19.8992,0.18668 35.9995,7.72782 35.9995,17.12782 l 0.6292,0 c 0,9.4 -16.7262,15.11066 -36.6232,15.45245 l -53.4573,0.91831 c -19.8971,0.3418 -36,-7.6 -36,-17 l 0,0 c 0,-9.4 16.1008,-17.18667 36,-17 z"
     class="st5"
     sodipodi:nodetypes="ssccssccs" /><text
     style="font-size:12px;font-family:ArialMT"
     id="text105"
     class="st1 st2"
     x="1238.4896"
     y="-328.86136">Prompts secours</text>
<g
     id="g3987"
     transform="translate(-292.663,-81.200032)"><path
       class="st3"
       d="m 1235,-269.8 h 86 c 19.9,0 36,7.6 36,17 l 0,0 c 0,9.4 -16.1,17 -36,17 h -86 c -19.9,0 -36,-7.6 -36,-17 l 0,0 c 0,-9.4 16.1,-17 36,-17 z"
       id="path171"
       inkscape:connector-curvature="0"
       style="stroke:#000000" /><path
       class="st4"
       d="m 1234,-270.8 h 88 c 19.9,0 36,8.1 36,18 l 0,0 c 0,9.9 -16.1,18 -36,18 h -88 c -19.9,0 -36,-8.1 -36,-18 l 0,0 c 0,-10 16.1,-18 36,-18 z"
       id="path173"
       inkscape:connector-curvature="0"
       style="fill:#ffffff;stroke:#000000" /><path
       class="st5"
       d="m 1235,-269.8 h 86 c 19.9,0 36,7.6 36,17 l 0,0 c 0,9.4 -16.1,17 -36,17 h -86 c -19.9,0 -36,-7.6 -36,-17 l 0,0 c 0,-9.4 16.1,-17 36,-17 z"
       id="path175"
       inkscape:connector-curvature="0"
       style="fill:#ffffff;stroke:#ffffff" /><text
       y="-250.91991"
       x="1234"
       class="st1 st2"
       id="text177"
       style="font-size:12px;font-family:ArialMT">Régulation ARM</text>
</g><g
     id="g4054"
     transform="translate(-284.7647,-82.200044)"><line
       class="st6"
       x1="1270"
       y1="-300.79999"
       x2="1270"
       y2="-269.79999"
       id="line211"
       style="fill:none;stroke:#333399" /><line
       class="st6"
       x1="1263"
       y1="-281.79999"
       x2="1270"
       y2="-269.79999"
       id="line213"
       style="fill:none;stroke:#333399" /><line
       class="st6"
       x1="1277"
       y1="-281.79999"
       x2="1270"
       y2="-269.79999"
       id="line215"
       style="fill:none;stroke:#333399" /></g><line
     style="fill:none;stroke:#333399"
     id="line219"
     y2="-334.00003"
     x2="1225.337"
     y1="-327.00003"
     x1="1213.337"
     class="st6" /><line
     style="fill:none;stroke:#333399"
     id="line221"
     y2="-334.00003"
     x2="1225.337"
     y1="-341.00003"
     x1="1213.337"
     class="st6" /><text
     style="font-size:12px;font-family:ArialMT"
     id="text223"
     class="st1 st2"
     x="1131.337"
     y="-342.11984">[Urgence vitale]</text>
<g
     id="g4018"
     transform="translate(-269.663,-175.20003)"><path
       class="st3"
       d="m 1099,18.2 h 41 c 28.7,0 52,11.2 52,25 l 0,0 c 0,13.8 -23.3,25 -52,25 h -41 c -28.7,0 -52,-11.2 -52,-25 l 0,0 c 0,-13.8 23.3,-25 52,-25 z"
       id="path225"
       inkscape:connector-curvature="0"
       style="stroke:#000000" /><path
       class="st4"
       d="m 1098,17.2 h 43 c 28.7,0 52,11.6 52,26 l 0,0 c 0,14.4 -23.3,26 -52,26 h -43 c -28.7,0 -52,-11.6 -52,-26 l 0,0 c 0,-14.4 23.3,-26 52,-26 z"
       id="path227"
       inkscape:connector-curvature="0"
       style="fill:#ffffff;stroke:#000000" /><path
       class="st5"
       d="m 1099,18.2 h 41 c 28.7,0 52,11.2 52,25 l 0,0 c 0,13.8 -23.3,25 -52,25 h -41 c -28.7,0 -52,-11.2 -52,-25 l 0,0 c 0,-13.8 23.3,-25 52,-25 z"
       id="path229"
       inkscape:connector-curvature="0"
       style="fill:#ffffff;stroke:#ffffff" /><text
       y="37.080002"
       x="1073"
       class="st1 st2"
       id="text231"
       style="font-size:12px;font-family:ArialMT">Entretien avec le</text>
<text
       y="53.080002"
       x="1066"
       class="st1 st2"
       id="text233"
       style="font-size:12px;font-family:ArialMT">médecin régulateur</text>
</g><polyline
     style="fill:none;stroke:#333399"
     id="polyline235"
     points="1199,-236.8 1118,-110.8 1118,18.2  "
     class="st6"
     transform="matrix(0.71604938,0,0,0.69411765,47.79379,-169.63297)" /><line
     style="fill:none;stroke:#333399"
     id="line237"
     y2="-157.00003"
     x2="848.33698"
     y1="-169.00003"
     x1="841.33698"
     class="st6" /><line
     style="fill:none;stroke:#333399"
     id="line239"
     y2="-157.00003"
     x2="848.33698"
     y1="-169.00003"
     x1="855.33698"
     class="st6" /><path
     style="stroke:#000000"
     inkscape:connector-curvature="0"
     id="path241"
     d="m 1357.337,2.9999676 h 43 c 19.9,0 36,7.6000004 36,17.0000004 l 0,0 c 0,9.4 -16.1,17 -36,17 h -43 c -19.9,0 -36,-7.6 -36,-17 l 0,0 c 0,-9.4 16.1,-17.0000004 36,-17.0000004 z"
     class="st3" /><path
     style="fill:#ffffff;stroke:#000000"
     inkscape:connector-curvature="0"
     id="path243"
     d="m 1356.337,1.9999676 h 45 c 19.9,0 36,8.1000004 36,18.0000004 l 0,0 c 0,9.9 -16.1,18 -36,18 h -45 c -19.9,0 -36,-8.1 -36,-18 l 0,0 c 0,-10.0000004 16.1,-18.0000004 36,-18.0000004 z"
     class="st4" /><path
     style="fill:#ffffff;stroke:#ffffff"
     inkscape:connector-curvature="0"
     id="path245"
     d="m 1357.337,2.9999676 h 43 c 19.9,0 36,7.6000004 36,17.0000004 l 0,0 c 0,9.4 -16.1,17 -36,17 h -43 c -19.9,0 -36,-7.6 -36,-17 l 0,0 c 0,-9.4 16.1,-17.0000004 36,-17.0000004 z"
     class="st5" /><text
     style="font-size:12px;font-family:ArialMT"
     id="text247"
     class="st1 st2"
     x="1336.337"
     y="21.88006">Secours (SDIS)</text>
<line
     style="fill:none;stroke:#333399"
     id="line249"
     y2="10.999965"
     x2="1321.337"
     y1="10.999965"
     x1="1034.337"
     class="st6" /><line
     style="fill:none;stroke:#333399"
     id="line251"
     y2="10.999965"
     x2="1321.337"
     y1="17.999964"
     x1="1309.337"
     class="st6" /><line
     style="fill:none;stroke:#333399"
     id="line253"
     y2="10.999965"
     x2="1321.337"
     y1="3.9999645"
     x1="1309.337"
     class="st6" /><text
     style="font-size:12px;font-family:ArialMT"
     id="text255"
     class="st1 st2"
     x="1173.337"
     y="4.8800611">[Compétence]</text>
<g
     id="g4305"
     transform="translate(32.76028,-1.8237755)"><path
       class="st3"
       d="m 661.5,42.99999 h 27 c 19.9,0 36,7.6 36,17 l 0,0 c 0,9.4 -16.1,17 -36,17 h -27 c -19.9,0 -36,-7.6 -36,-17 l 0,0 c 0,-9.4 16.1,-17 36,-17 z"
       id="path257"
       inkscape:connector-curvature="0"
       style="stroke:#000000" /><path
       class="st4"
       d="m 660.5,41.99999 h 29 c 19.9,0 36,8.1 36,18 l 0,0 c 0,9.9 -16.1,18 -36,18 h -29 c -19.9,0 -36,-8.1 -36,-18 l 0,0 c 0,-10 16.1,-18 36,-18 z"
       id="path259"
       inkscape:connector-curvature="0"
       style="fill:#ffffff;stroke:#000000" /><path
       class="st5"
       d="m 661.5,42.99999 h 27 c 19.9,0 36,7.6 36,17 l 0,0 c 0,9.4 -16.1,17 -36,17 h -27 c -19.9,0 -36,-7.6 -36,-17 l 0,0 c 0,-9.4 16.1,-17 36,-17 z"
       id="path261"
       inkscape:connector-curvature="0"
       style="fill:#ffffff;stroke:#ffffff" /><text
       y="61.880085"
       x="657.5"
       class="st1 st2"
       id="text263"
       style="font-size:12px;font-family:ArialMT">SMUR</text>
</g><polyline
     style="fill:none;stroke:#333399"
     id="polyline265"
     points="1230,212.2 1230,233.2 737,233.2  "
     class="st6"
     transform="matrix(0.41227786,0,0,1.0167878,453.4115,-178.93868)" /><line
     style="fill:none;stroke:#333399"
     id="line267"
     y2="58.176231"
     x2="757.26025"
     y1="51.176231"
     x1="769.26031"
     class="st6" /><line
     style="fill:none;stroke:#333399"
     id="line269"
     y2="58.176231"
     x2="757.26025"
     y1="65.176231"
     x1="769.26031"
     class="st6" /><text
     style="font-size:12px;font-family:ArialMT"
     id="text271"
     class="st1 st2"
     x="764.44885"
     y="51.880062">[Besoin réanimation et matériel]</text>
<g
     id="g4311"
     transform="translate(-104,0.11242547)"><path
       class="st3"
       d="m 765.5,90.99999 h 61 c 19.9,0 36,7.6 36,17 l 0,0 c 0,9.4 -16.1,17 -36,17 h -61 c -19.9,0 -36,-7.6 -36,-17 l 0,0 c 0,-9.4 16.1,-17 36,-17 z"
       id="path273"
       inkscape:connector-curvature="0"
       style="stroke:#000000" /><path
       class="st4"
       d="m 764.5,89.99999 h 63 c 19.9,0 36,8.1 36,18 l 0,0 c 0,9.9 -16.1,18 -36,18 h -63 c -19.9,0 -36,-8.1 -36,-18 l 0,0 c 0,-10 16.1,-18 36,-18 z"
       id="path275"
       inkscape:connector-curvature="0"
       style="fill:#ffffff;stroke:#000000" /><path
       class="st5"
       d="m 765.5,90.99999 h 61 c 19.9,0 36,7.6 36,17 l 0,0 c 0,9.4 -16.1,17 -36,17 h -61 c -19.9,0 -36,-7.6 -36,-17 l 0,0 c 0,-9.4 16.1,-17 36,-17 z"
       id="path277"
       inkscape:connector-curvature="0"
       style="fill:#ffffff;stroke:#ffffff" /><text
       y="109.87997"
       x="746.5"
       class="st1 st2"
       id="text279"
       style="font-size:12px;font-family:ArialMT">Ambulance privée</text>
</g><polyline
     style="fill:none;stroke:#333399"
     id="polyline281"
     points="1254,212.2 1254,281.2 875,281.2  "
     class="st6"
     transform="matrix(0.59881129,0,0,1.0032596,233.54009,-176.00417)" /><line
     style="fill:none;stroke:#333399"
     id="line283"
     y2="106.11243"
     x2="757.5"
     y1="99.112427"
     x1="769.49994"
     class="st6" /><line
     style="fill:none;stroke:#333399"
     id="line285"
     y2="106.11243"
     x2="757.5"
     y1="113.11243"
     x1="769.49994"
     class="st6" /><text
     style="font-size:12px;font-family:ArialMT"
     id="text287"
     class="st1 st2"
     x="834.10602"
     y="98.509186">[Autre]</text>
<line
     style="fill:none;stroke:#333399"
     id="line289"
     y2="25.999964"
     x2="1321.337"
     y1="25.999964"
     x1="1034.337"
     class="st6" /><line
     style="fill:none;stroke:#333399"
     id="line291"
     y2="25.999964"
     x2="1321.337"
     y1="32.999966"
     x1="1309.337"
     class="st6" /><line
     style="fill:none;stroke:#333399"
     id="line293"
     y2="25.999964"
     x2="1321.337"
     y1="18.999964"
     x1="1309.337"
     class="st6" /><text
     style="font-size:12px;font-family:ArialMT"
     id="text295"
     class="st1 st2"
     x="1177.337"
     y="42.880062">[Carence]</text>
<g
     id="g4025"
     transform="translate(-269.663,-175.20003)"><path
       class="st3"
       d="m 1091,98.2 h 27 c 19.9,0 36,7.6 36,17 l 0,0 c 0,9.4 -16.1,17 -36,17 h -27 c -19.9,0 -36,-7.6 -36,-17 l 0,0 c 0,-9.4 16.1,-17 36,-17 z"
       id="path297"
       inkscape:connector-curvature="0"
       style="stroke:#000000" /><path
       class="st4"
       d="m 1090,97.2 h 29 c 19.9,0 36,8.1 36,18 l 0,0 c 0,9.9 -16.1,18 -36,18 h -29 c -19.9,0 -36,-8.1 -36,-18 l 0,0 c 0,-10 16.1,-18 36,-18 z"
       id="path299"
       inkscape:connector-curvature="0"
       style="fill:#ffffff;stroke:#000000" /><path
       class="st5"
       d="m 1091,98.2 h 27 c 19.9,0 36,7.6 36,17 l 0,0 c 0,9.4 -16.1,17 -36,17 h -27 c -19.9,0 -36,-7.6 -36,-17 l 0,0 c 0,-9.4 16.1,-17 36,-17 z"
       id="path301"
       inkscape:connector-curvature="0"
       style="fill:#ffffff;stroke:#ffffff" /><text
       y="117.08"
       x="1083"
       class="st1 st2"
       id="text303"
       style="font-size:12px;font-family:ArialMT">Conseil</text>
</g><line
     style="fill:none;stroke:#333399"
     id="line305"
     y2="-77.000038"
     x2="840.33698"
     y1="-108.00005"
     x1="840.33698"
     class="st6" /><line
     style="fill:none;stroke:#333399"
     id="line307"
     y2="-77.000038"
     x2="840.33698"
     y1="-89.000038"
     x1="833.33698"
     class="st6" /><line
     style="fill:none;stroke:#333399"
     id="line309"
     y2="-77.000038"
     x2="840.33698"
     y1="-89.000038"
     x1="847.33698"
     class="st6" /><g
     id="g3999"
     transform="translate(-269.663,-175.20003)"><path
       class="st3"
       d="m 1587,-61.8 h 34 c 19.9,0 36,7.6 36,17 l 0,0 c 0,9.4 -16.1,17 -36,17 h -34 c -19.9,0 -36,-7.6 -36,-17 l 0,0 c 0,-9.4 16.1,-17 36,-17 z"
       id="path311"
       inkscape:connector-curvature="0"
       style="stroke:#000000" /><path
       class="st4"
       d="m 1586,-62.8 h 36 c 19.9,0 36,8.1 36,18 l 0,0 c 0,9.9 -16.1,18 -36,18 h -36 c -19.9,0 -36,-8.1 -36,-18 l 0,0 c 0,-10 16.1,-18 36,-18 z"
       id="path313"
       inkscape:connector-curvature="0"
       style="fill:#ffffff;stroke:#000000" /><path
       class="st5"
       d="m 1587,-61.8 h 34 c 19.9,0 36,7.6 36,17 l 0,0 c 0,9.4 -16.1,17 -36,17 h -34 c -19.9,0 -36,-7.6 -36,-17 l 0,0 c 0,-9.4 16.1,-17 36,-17 z"
       id="path315"
       inkscape:connector-curvature="0"
       style="fill:#ffffff;stroke:#ffffff" /><text
       y="-42.919998"
       x="1566"
       class="st1 st2"
       id="text317"
       style="font-size:12px;font-family:ArialMT">Bilan complet</text>
</g><g
     id="g3993"
     transform="translate(-269.663,-175.20003)"><path
       class="st3"
       d="m 1459,-61.8 h 34 c 19.9,0 36,7.6 36,17 l 0,0 c 0,9.4 -16.1,17 -36,17 h -34 c -19.9,0 -36,-7.6 -36,-17 l 0,0 c 0,-9.4 16.1,-17 36,-17 z"
       id="path319"
       inkscape:connector-curvature="0"
       style="stroke:#000000" /><path
       class="st4"
       d="m 1458,-62.8 h 36 c 19.9,0 36,8.1 36,18 l 0,0 c 0,9.9 -16.1,18 -36,18 h -36 c -19.9,0 -36,-8.1 -36,-18 l 0,0 c 0,-10 16.1,-18 36,-18 z"
       id="path321"
       inkscape:connector-curvature="0"
       style="fill:#ffffff;stroke:#000000" /><path
       class="st5"
       d="m 1459,-61.8 h 34 c 19.9,0 36,7.6 36,17 l 0,0 c 0,9.4 -16.1,17 -36,17 h -34 c -19.9,0 -36,-7.6 -36,-17 l 0,0 c 0,-9.4 16.1,-17 36,-17 z"
       id="path323"
       inkscape:connector-curvature="0"
       style="fill:#ffffff;stroke:#ffffff" /><text
       y="-42.919998"
       x="1437"
       class="st1 st2"
       id="text325"
       style="font-size:12px;font-family:ArialMT">Bilan simplifié</text>
</g><g
     id="g4031"
     transform="translate(-294.83249,-176.20003)"><line
       class="st6"
       x1="1622"
       y1="-139.42851"
       x2="1622"
       y2="-61.799999"
       id="line337"
       style="fill:none;stroke:#333399;stroke-width:1.4892807" /><line
       class="st6"
       x1="1615"
       y1="-73.800003"
       x2="1622"
       y2="-61.799999"
       id="line339"
       style="fill:none;stroke:#333399" /><line
       class="st6"
       x1="1629"
       y1="-73.800003"
       x2="1622"
       y2="-61.799999"
       id="line341"
       style="fill:none;stroke:#333399" /></g><line
     style="fill:none;stroke:#333399"
     id="line351"
     y2="-237.00003"
     x2="1242.337"
     y1="-316.00003"
     x1="1242.337"
     class="st6" /><line
     style="fill:none;stroke:#333399"
     id="line353"
     y2="-237.00003"
     x2="1242.337"
     y1="-249.00003"
     x1="1235.337"
     class="st6" /><line
     style="fill:none;stroke:#333399"
     id="line355"
     y2="-237.00003"
     x2="1242.337"
     y1="-249.00003"
     x1="1249.337"
     class="st6" /><text
     style="font-size:12px;font-family:ArialMT"
     id="text357"
     class="st1 st2"
     x="1245.337"
     y="-292.12003">[Sinon]</text>
<g
     id="g4011"
     transform="translate(-269.663,-175.20003)"><path
       class="st3"
       d="m 1283,18.2 h 61 c 28.7,0 52,11.2 52,25 l 0,0 c 0,13.8 -23.3,25 -52,25 h -61 c -28.7,0 -52,-11.2 -52,-25 l 0,0 c 0,-13.8 23.3,-25 52,-25 z"
       id="path359"
       inkscape:connector-curvature="0"
       style="stroke:#000000" /><path
       class="st4"
       d="m 1282,17.2 h 63 c 28.7,0 52,11.6 52,26 l 0,0 c 0,14.4 -23.3,26 -52,26 h -63 c -28.7,0 -52,-11.6 -52,-26 l 0,0 c 0,-14.4 23.3,-26 52,-26 z"
       id="path361"
       inkscape:connector-curvature="0"
       style="fill:#ffffff;stroke:#000000" /><path
       class="st5"
       d="m 1283,18.2 h 61 c 28.7,0 52,11.2 52,25 l 0,0 c 0,13.8 -23.3,25 -52,25 h -61 c -28.7,0 -52,-11.2 -52,-25 l 0,0 c 0,-13.8 23.3,-25 52,-25 z"
       id="path363"
       inkscape:connector-curvature="0"
       style="fill:#ffffff;stroke:#ffffff" /><text
       y="37.080002"
       x="1273"
       class="st1 st2"
       id="text365"
       style="font-size:12px;font-family:ArialMT">Compte-rendu</text>
<text
       y="53.080002"
       x="1251"
       class="st1 st2"
       id="text367"
       style="font-size:12px;font-family:ArialMT">au médecin régulateur</text>
</g><path
     style="stroke:#000000"
     inkscape:connector-curvature="0"
     id="path369"
     d="m 941.337,2.9999676 h 57 c 19.9,0 36,7.6000004 36,17.0000004 l 0,0 c 0,9.4 -16.1,17 -36,17 h -57 c -19.9,0 -36,-7.6 -36,-17 l 0,0 c 0,-9.4 16.1,-17.0000004 36,-17.0000004 z"
     class="st3" /><path
     style="fill:#ffffff;stroke:#000000"
     inkscape:connector-curvature="0"
     id="path371"
     d="m 940.337,1.9999676 h 59 c 19.9,0 36,8.1000004 36,18.0000004 l 0,0 c 0,9.9 -16.1,18 -36,18 h -59 c -19.9,0 -36,-8.1 -36,-18 l 0,0 c 0,-10.0000004 16.1,-18.0000004 36,-18.0000004 z"
     class="st4" /><path
     style="fill:#ffffff;stroke:#ffffff"
     inkscape:connector-curvature="0"
     id="path373"
     d="m 941.337,2.9999676 h 57 c 19.9,0 36,7.6000004 36,17.0000004 l 0,0 c 0,9.4 -16.1,17 -36,17 h -57 c -19.9,0 -36,-7.6 -36,-17 l 0,0 c 0,-9.4 16.1,-17.0000004 36,-17.0000004 z"
     class="st5" /><text
     style="font-size:12px;font-family:ArialMT"
     id="text375"
     class="st1 st2"
     x="922.33698"
     y="21.88006">Envoi de secours</text>
<g
     id="g4005"
     transform="translate(-269.663,-175.20003)"><path
       class="st3"
       d="m 1539,50.2 h 86 c 19.9,0 36,7.6 36,17 l 0,0 c 0,9.4 -16.1,17 -36,17 h -86 c -19.9,0 -36,-7.6 -36,-17 l 0,0 c 0,-9.4 16.1,-17 36,-17 z"
       id="path377"
       inkscape:connector-curvature="0"
       style="stroke:#000000" /><path
       class="st4"
       d="m 1538,49.2 h 88 c 19.9,0 36,8.1 36,18 l 0,0 c 0,9.9 -16.1,18 -36,18 h -88 c -19.9,0 -36,-8.1 -36,-18 l 0,0 c 0,-10 16.1,-18 36,-18 z"
       id="path379"
       inkscape:connector-curvature="0"
       style="fill:#ffffff;stroke:#000000" /><path
       class="st5"
       d="m 1539,50.2 h 86 c 19.9,0 36,7.6 36,17 l 0,0 c 0,9.4 -16.1,17 -36,17 h -86 c -19.9,0 -36,-7.6 -36,-17 l 0,0 c 0,-9.4 16.1,-17 36,-17 z"
       id="path381"
       inkscape:connector-curvature="0"
       style="fill:#ffffff;stroke:#ffffff" /><text
       y="69.080002"
       x="1520"
       class="st1 st2"
       id="text383"
       style="font-size:12px;font-family:ArialMT">Compte-rendu au CTA</text>
</g><rect
     style="stroke:#000000"
     id="rect385"
     height="7"
     width="104"
     class="st3"
     y="-166.00003"
     x="1216.337" /><line
     style="fill:none;stroke:#333399"
     id="line387"
     y2="-166.00003"
     x2="1304.337"
     y1="-204.00003"
     x1="1304.337"
     class="st6" /><line
     style="fill:none;stroke:#333399"
     id="line389"
     y2="-166.00003"
     x2="1304.337"
     y1="-178.00003"
     x1="1297.337"
     class="st6" /><line
     style="fill:none;stroke:#333399"
     id="line391"
     y2="-166.00003"
     x2="1304.337"
     y1="-178.00003"
     x1="1311.337"
     class="st6" /><line
     style="fill:none;stroke:#333399"
     id="line393"
     y2="-166.00003"
     x2="1232.337"
     y1="-204.00003"
     x1="1232.337"
     class="st6" /><line
     style="fill:none;stroke:#333399"
     id="line395"
     y2="-166.00003"
     x2="1232.337"
     y1="-178.00003"
     x1="1225.337"
     class="st6" /><line
     style="fill:none;stroke:#333399"
     id="line397"
     y2="-166.00003"
     x2="1232.337"
     y1="-178.00003"
     x1="1239.337"
     class="st6" /><polyline
     style="fill:none;stroke:#333399"
     id="polyline399"
     points="1494,15.2 1494,41.2 1395,41.2  "
     class="st6"
     transform="translate(-269.663,-175.20003)" /><line
     style="fill:none;stroke:#333399"
     id="line401"
     y2="-134.00003"
     x2="1125.337"
     y1="-141.00003"
     x1="1137.337"
     class="st6" /><line
     style="fill:none;stroke:#333399"
     id="line403"
     y2="-134.00003"
     x2="1125.337"
     y1="-127.00003"
     x1="1137.337"
     class="st6" /><line
     style="fill:none;stroke:#333399"
     id="line405"
     y2="-125.00003"
     x2="1312.337"
     y1="-160.00003"
     x1="1312.337"
     class="st6" /><line
     style="fill:none;stroke:#333399"
     id="line407"
     y2="-125.00003"
     x2="1312.337"
     y1="-137.00003"
     x1="1305.337"
     class="st6" /><line
     style="fill:none;stroke:#333399"
     id="line409"
     y2="-125.00003"
     x2="1312.337"
     y1="-137.00003"
     x1="1319.337"
     class="st6" /><line
     style="fill:none;stroke:#333399"
     id="line411"
     y2="-70.000038"
     x2="912.33698"
     y1="-108.00005"
     x1="912.33698"
     class="st6" /><line
     style="fill:none;stroke:#333399"
     id="line413"
     y2="-70.000038"
     x2="912.33698"
     y1="-82.000038"
     x1="905.33698"
     class="st6" /><line
     style="fill:none;stroke:#333399"
     id="line415"
     y2="-70.000038"
     x2="912.33698"
     y1="-82.000038"
     x1="919.33698"
     class="st6" /><line
     style="fill:none;stroke:#333399"
     id="line417"
     y2="-70.000038"
     x2="1016.337"
     y1="-108.00005"
     x1="1016.337"
     class="st6" /><line
     style="fill:none;stroke:#333399"
     id="line419"
     y2="-70.000038"
     x2="1016.337"
     y1="-82.000038"
     x1="1009.337"
     class="st6" /><line
     style="fill:none;stroke:#333399"
     id="line421"
     y2="-70.000038"
     x2="1016.337"
     y1="-82.000038"
     x1="1023.337"
     class="st6" /><rect
     style="stroke:#000000"
     id="rect423"
     height="7"
     width="120"
     class="st3"
     y="-70.000038"
     x="904.33698" /><line
     style="fill:none;stroke:#333399"
     id="line425"
     y2="2.9999645"
     x2="964.33698"
     y1="-64.000038"
     x1="964.33698"
     class="st6" /><line
     style="fill:none;stroke:#333399"
     id="line427"
     y2="2.9999645"
     x2="964.33698"
     y1="-9.0000353"
     x1="957.33698"
     class="st6" /><line
     style="fill:none;stroke:#333399"
     id="line429"
     y2="2.9999645"
     x2="964.33698"
     y1="-9.0000353"
     x1="971.33698"
     class="st6" /><line
     style="fill:none;stroke:#333399;stroke-width:0.74462998"
     id="line249-3"
     y2="-333.48639"
     x2="1224.4565"
     y1="-333.48639"
     x1="1065.3225"
     class="st6" /></svg>