<?xml version="1.0" encoding="utf-8" ?>
<!DOCTYPE svg PUBLIC "-//W3C//DTD SVG 1.1//EN" "http://www.w3.org/Graphics/SVG/1.1/DTD/svg11.dtd">
<svg height="289" version="1.1" width="573" xmlns="http://www.w3.org/2000/svg">
<rect fill="#ffffff" height="67" stroke="#ffffff" stroke-width="1" width="80" x="254" y="110"/>
<rect fill="none" height="67" stroke="#000000" stroke-width="1" width="80" x="254" y="110"/>
<text font-family="Dialog" font-size="12" font-style="italic" x="259" y="124">
Transporteur</text>
<rect fill="#000000" height="1" stroke="#000000" stroke-width="1" width="80" x="254" y="134"/>
<rect fill="#000000" height="1" stroke="#000000" stroke-width="1" width="80" x="254" y="155"/>
<rect fill="#ffffff" height="68" stroke="#ffffff" stroke-width="1" width="66" x="262" y="206"/>
<rect fill="none" height="68" stroke="#000000" stroke-width="1" width="66" x="262" y="206"/>
<text font-family="Dialog" font-size="12" font-style="italic" x="277" y="220">
Public</text>
<rect fill="#000000" height="1" stroke="#000000" stroke-width="1" width="66" x="262" y="230"/>
<rect fill="#000000" height="1" stroke="#000000" stroke-width="1" width="66" x="262" y="251"/>
<rect fill="#ffffff" height="67" stroke="#ffffff" stroke-width="1" width="66" x="262" y="14"/>
<rect fill="none" height="67" stroke="#000000" stroke-width="1" width="66" x="262" y="14"/>
<text font-family="Dialog" font-size="12" font-style="italic" x="281" y="28">
Privé</text>
<rect fill="#000000" height="1" stroke="#000000" stroke-width="1" width="66" x="262" y="38"/>
<rect fill="#000000" height="1" stroke="#000000" stroke-width="1" width="66" x="262" y="59"/>
<rect fill="#ffffff" height="68" stroke="#ffffff" stroke-width="1" width="66" x="134" y="62"/>
<rect fill="none" height="68" stroke="#000000" stroke-width="1" width="66" x="134" y="62"/>
<text font-family="Dialog" font-size="12" x="152" y="76">
VSAV</text>
<rect fill="#000000" height="1" stroke="#000000" stroke-width="1" width="66" x="134" y="86"/>
<rect fill="#000000" height="1" stroke="#000000" stroke-width="1" width="66" x="134" y="107"/>
<rect fill="#ffffff" height="68" stroke="#ffffff" stroke-width="1" width="66" x="134" y="206"/>
<rect fill="none" height="68" stroke="#000000" stroke-width="1" width="66" x="134" y="206"/>
<text font-family="Dialog" font-size="12" x="149" y="220">
SMUR</text>
<rect fill="#000000" height="1" stroke="#000000" stroke-width="1" width="66" x="134" y="230"/>
<rect fill="#000000" height="1" stroke="#000000" stroke-width="1" width="66" x="134" y="251"/>
<rect fill="#ffffff" height="67" stroke="#ffffff" stroke-width="1" width="161" x="398" y="14"/>
<rect fill="none" height="67" stroke="#000000" stroke-width="1" width="161" x="398" y="14"/>
<text font-family="Dialog" font-size="12" x="403" y="28">
Transporteur sanitaire privé</text>
<rect fill="#000000" height="1" stroke="#000000" stroke-width="1" width="161" x="398" y="38"/>
<rect fill="#000000" height="1" stroke="#000000" stroke-width="1" width="161" x="398" y="59"/>
<rect fill="#ffffff" height="67" stroke="#ffffff" stroke-width="1" width="160" x="398" y="110"/>
<rect fill="none" height="67" stroke="#000000" stroke-width="1" width="160" x="398" y="110"/>
<text font-family="Dialog" font-size="12" x="436" y="124">
Médecin libéral</text>
<rect fill="#000000" height="1" stroke="#000000" stroke-width="1" width="160" x="398" y="134"/>
<rect fill="#000000" height="1" stroke="#000000" stroke-width="1" width="160" x="398" y="155"/>
<rect fill="#ffffff" height="67" stroke="#ffffff" stroke-width="1" width="160" x="398" y="206"/>
<rect fill="none" height="67" stroke="#000000" stroke-width="1" width="160" x="398" y="206"/>
<text font-family="Dialog" font-size="12" x="424" y="220">
Paramédical libéral</text>
<rect fill="#000000" height="1" stroke="#000000" stroke-width="1" width="160" x="398" y="230"/>
<rect fill="#000000" height="1" stroke="#000000" stroke-width="1" width="160" x="398" y="251"/>
<polyline fill="none" points="199,94 222,94 222,238 262,238" stroke="#000000" stroke-width="1"/>
<polygon fill="#ffffff" points="262,238 250,245 250,231" stroke="#ffffff" stroke-width="1"/>
<polygon fill="none" points="262,238 250,245 250,231" stroke="#000000" stroke-width="1"/>
<polyline fill="none" points="199,238 262,238" stroke="#000000" stroke-width="1"/>
<polygon fill="#ffffff" points="262,238 250,245 250,231" stroke="#ffffff" stroke-width="1"/>
<polygon fill="none" points="262,238 250,245 250,231" stroke="#000000" stroke-width="1"/>
<polyline fill="none" points="302,206 302,176" stroke="#000000" stroke-width="1"/>
<polygon fill="#ffffff" points="302,176 309,188 295,188" stroke="#ffffff" stroke-width="1"/>
<polygon fill="none" points="302,176 309,188 295,188" stroke="#000000" stroke-width="1"/>
<polyline fill="none" points="294,80 294,110" stroke="#000000" stroke-width="1"/>
<polygon fill="#ffffff" points="294,110 287,98 301,98" stroke="#ffffff" stroke-width="1"/>
<polygon fill="none" points="294,110 287,98 301,98" stroke="#000000" stroke-width="1"/>
<polyline fill="none" points="398,46 327,46" stroke="#000000" stroke-width="1"/>
<polygon fill="#ffffff" points="327,46 339,39 339,53" stroke="#ffffff" stroke-width="1"/>
<polygon fill="none" points="327,46 339,39 339,53" stroke="#000000" stroke-width="1"/>
<polyline fill="none" points="398,142 366,142 366,46 327,46" stroke="#000000" stroke-width="1"/>
<polygon fill="#ffffff" points="327,46 339,39 339,53" stroke="#ffffff" stroke-width="1"/>
<polygon fill="none" points="327,46 339,39 339,53" stroke="#000000" stroke-width="1"/>
<polyline fill="none" points="398,238 366,238 366,46 327,46" stroke="#000000" stroke-width="1"/>
<polygon fill="#ffffff" points="327,46 339,39 339,53" stroke="#ffffff" stroke-width="1"/>
<polygon fill="none" points="327,46 339,39 339,53" stroke="#000000" stroke-width="1"/>
<rect fill="#ffffff" height="68" stroke="#ffffff" stroke-width="1" width="66" x="14" y="62"/>
<rect fill="none" height="68" stroke="#000000" stroke-width="1" width="66" x="14" y="62"/>
<text font-family="Dialog" font-size="12" x="23" y="76">
Pompier</text>
<rect fill="#000000" height="1" stroke="#000000" stroke-width="1" width="66" x="14" y="86"/>
<rect fill="#000000" height="1" stroke="#000000" stroke-width="1" width="66" x="14" y="107"/>
<rect fill="#ffffff" height="68" stroke="#ffffff" stroke-width="1" width="66" x="14" y="206"/>
<rect fill="none" height="68" stroke="#000000" stroke-width="1" width="66" x="14" y="206"/>
<text font-family="Dialog" font-size="12" x="30" y="220">
SAMU</text>
<rect fill="#000000" height="1" stroke="#000000" stroke-width="1" width="66" x="14" y="230"/>
<rect fill="#000000" height="1" stroke="#000000" stroke-width="1" width="66" x="14" y="251"/>
<polyline fill="none" points="79,94 134,94" stroke="#000000" stroke-width="1"/>
<polyline fill="none" points="79,238 134,238" stroke="#000000" stroke-width="1"/>
</svg>
