<?xml version="1.0" encoding="utf-8" ?>
<!DOCTYPE svg PUBLIC "-//W3C//DTD SVG 1.1//EN" "http://www.w3.org/Graphics/SVG/1.1/DTD/svg11.dtd">
<svg height="408" version="1.1" width="840" xmlns="http://www.w3.org/2000/svg">
<rect fill="#ffffff" height="88" stroke="#ffffff" stroke-width="1" width="139" x="254" y="182"/>
<rect fill="none" height="88" stroke="#000000" stroke-width="1" width="139" x="254" y="182"/>
<text font-family="Dialog" font-size="12" x="301" y="196">
Dossier</text>
<rect fill="#000000" height="1" stroke="#000000" stroke-width="1" width="139" x="254" y="206"/>
<text font-family="Dialog" font-size="12" x="258" y="221">
motif_appel : string</text>
<text font-family="Dialog" font-size="12" x="258" y="238">
degré_urgence : integer</text>
<rect fill="#000000" height="1" stroke="#000000" stroke-width="1" width="139" x="254" y="248"/>
<rect fill="#ffffff" height="139" stroke="#ffffff" stroke-width="1" width="111" x="270" y="14"/>
<rect fill="none" height="139" stroke="#000000" stroke-width="1" width="111" x="270" y="14"/>
<text font-family="Dialog" font-size="12" x="295" y="28">
Info patient</text>
<rect fill="#000000" height="1" stroke="#000000" stroke-width="1" width="111" x="270" y="38"/>
<text font-family="Dialog" font-size="12" x="274" y="53">
nom : string</text>
<text font-family="Dialog" font-size="12" x="274" y="70">
prenom : string</text>
<text font-family="Dialog" font-size="12" x="274" y="87">
sexe : string</text>
<text font-family="Dialog" font-size="12" x="274" y="104">
âge : integer</text>
<text font-family="Dialog" font-size="12" x="274" y="121">
localisation : string</text>
<rect fill="#000000" height="1" stroke="#000000" stroke-width="1" width="111" x="270" y="131"/>
<rect fill="#ffffff" height="88" stroke="#ffffff" stroke-width="1" width="103" x="70" y="278"/>
<rect fill="none" height="88" stroke="#000000" stroke-width="1" width="103" x="70" y="278"/>
<text font-family="Dialog" font-size="12" x="97" y="292">
Appelant</text>
<rect fill="#000000" height="1" stroke="#000000" stroke-width="1" width="103" x="70" y="302"/>
<text font-family="Dialog" font-size="12" x="74" y="317">
nom : string</text>
<text font-family="Dialog" font-size="12" x="74" y="334">
telephone : string</text>
<rect fill="#000000" height="1" stroke="#000000" stroke-width="1" width="103" x="70" y="344"/>
<rect fill="#ffffff" height="122" stroke="#ffffff" stroke-width="1" width="159" x="654" y="110"/>
<rect fill="none" height="122" stroke="#000000" stroke-width="1" width="159" x="654" y="110"/>
<text font-family="Dialog" font-size="12" x="698" y="124">
Info chiffrées</text>
<rect fill="#000000" height="1" stroke="#000000" stroke-width="1" width="159" x="654" y="134"/>
<text font-family="Dialog" font-size="12" x="658" y="149">
fr_cardiaque : Integer</text>
<text font-family="Dialog" font-size="12" x="658" y="166">
fr_respiratoire : Integer</text>
<text font-family="Dialog" font-size="12" x="658" y="183">
tension_artérielle : Float</text>
<text font-family="Dialog" font-size="12" x="658" y="200">
saturation : Integer</text>
<rect fill="#000000" height="1" stroke="#000000" stroke-width="1" width="159" x="654" y="210"/>
<rect fill="#ffffff" height="122" stroke="#ffffff" stroke-width="1" width="160" x="654" y="270"/>
<rect fill="none" height="122" stroke="#000000" stroke-width="1" width="160" x="654" y="270"/>
<text font-family="Dialog" font-size="12" x="674" y="284">
Info complémentaires</text>
<rect fill="#000000" height="1" stroke="#000000" stroke-width="1" width="160" x="654" y="294"/>
<text font-family="Dialog" font-size="12" x="658" y="309">
glycémie : Integer</text>
<text font-family="Dialog" font-size="12" x="658" y="326">
hémoglobine : Integer</text>
<text font-family="Dialog" font-size="12" x="658" y="343">
évaluation_douleur : Integer</text>
<text font-family="Dialog" font-size="12" x="658" y="360">
autre... : string</text>
<rect fill="#000000" height="1" stroke="#000000" stroke-width="1" width="160" x="654" y="370"/>
<rect fill="#ffffff" height="208" stroke="#ffffff" stroke-width="1" width="215" x="14" y="14"/>
<rect fill="none" height="208" stroke="#000000" stroke-width="1" width="215" x="14" y="14"/>
<text font-family="Dialog" font-size="12" x="75" y="28">
Signes cliniques</text>
<rect fill="#000000" height="1" stroke="#000000" stroke-width="1" width="215" x="14" y="38"/>
<text font-family="Dialog" font-size="12" x="18" y="53">
position : string</text>
<text font-family="Dialog" font-size="12" x="18" y="70">
tient : string</text>
<text font-family="Dialog" font-size="12" x="18" y="87">
sueurs : booléen</text>
<text font-family="Dialog" font-size="12" x="18" y="104">
mouvement : booléen</text>
<text font-family="Dialog" font-size="12" x="18" y="121">
propos_incompréhensibles : booléen</text>
<text font-family="Dialog" font-size="12" x="18" y="138">
visage_déformé : booléen</text>
<text font-family="Dialog" font-size="12" x="18" y="155">
voie : booléen</text>
<text font-family="Dialog" font-size="12" x="18" y="172">
respiration : booléen</text>
<text font-family="Dialog" font-size="12" x="18" y="189">
autre... : string</text>
<rect fill="#000000" height="1" stroke="#000000" stroke-width="1" width="215" x="14" y="199"/>
<rect fill="#ffffff" height="105" stroke="#ffffff" stroke-width="1" width="195" x="422" y="182"/>
<rect fill="none" height="105" stroke="#000000" stroke-width="1" width="195" x="422" y="182"/>
<text font-family="Dialog" font-size="12" x="505" y="196">
Bilan</text>
<rect fill="#000000" height="1" stroke="#000000" stroke-width="1" width="195" x="422" y="206"/>
<text font-family="Dialog" font-size="12" x="426" y="221">
choix_structure_accueil : string</text>
<text font-family="Dialog" font-size="12" x="426" y="238">
circonstances_intervention : string</text>
<text font-family="Dialog" font-size="12" x="426" y="255">
motifs_interventation : string</text>
<rect fill="#000000" height="1" stroke="#000000" stroke-width="1" width="195" x="422" y="265"/>
<rect fill="#ffffff" height="68" stroke="#ffffff" stroke-width="1" width="71" x="518" y="14"/>
<rect fill="none" height="68" stroke="#000000" stroke-width="1" width="71" x="518" y="14"/>
<text font-family="Dialog" font-size="12" x="523" y="28">
Antécédent</text>
<rect fill="#000000" height="1" stroke="#000000" stroke-width="1" width="71" x="518" y="38"/>
<rect fill="#000000" height="1" stroke="#000000" stroke-width="1" width="71" x="518" y="59"/>
<rect fill="#ffffff" height="68" stroke="#ffffff" stroke-width="1" width="69" x="438" y="78"/>
<rect fill="none" height="68" stroke="#000000" stroke-width="1" width="69" x="438" y="78"/>
<text font-family="Dialog" font-size="12" x="443" y="92">
Traitement</text>
<rect fill="#000000" height="1" stroke="#000000" stroke-width="1" width="69" x="438" y="102"/>
<rect fill="#000000" height="1" stroke="#000000" stroke-width="1" width="69" x="438" y="123"/>
<rect fill="#ffffff" height="72" stroke="#ffffff" stroke-width="1" width="157" x="654" y="14"/>
<rect fill="none" height="72" stroke="#000000" stroke-width="1" width="157" x="654" y="14"/>
<text font-family="Dialog" font-size="12" x="679" y="28">
Lésion traumatique</text>
<rect fill="#000000" height="1" stroke="#000000" stroke-width="1" width="157" x="654" y="38"/>
<text font-family="Dialog" font-size="12" x="658" y="53">
newAttr : Integer</text>
<rect fill="#000000" height="1" stroke="#000000" stroke-width="1" width="157" x="654" y="63"/>
<rect fill="#ffffff" height="68" stroke="#ffffff" stroke-width="1" width="84" x="414" y="326"/>
<rect fill="none" height="68" stroke="#000000" stroke-width="1" width="84" x="414" y="326"/>
<text font-family="Dialog" font-size="12" x="419" y="340">
Diagnostique</text>
<rect fill="#000000" height="1" stroke="#000000" stroke-width="1" width="84" x="414" y="350"/>
<rect fill="#000000" height="1" stroke="#000000" stroke-width="1" width="84" x="414" y="371"/>
<rect fill="#ffffff" height="67" stroke="#ffffff" stroke-width="1" width="104" x="518" y="326"/>
<rect fill="none" height="67" stroke="#000000" stroke-width="1" width="104" x="518" y="326"/>
<text font-family="Dialog" font-size="12" x="524" y="340">
Gestes entrepris</text>
<rect fill="#000000" height="1" stroke="#000000" stroke-width="1" width="104" x="518" y="350"/>
<rect fill="#000000" height="1" stroke="#000000" stroke-width="1" width="104" x="518" y="371"/>
<polyline fill="none" points="392,222 422,222" stroke="#000000" stroke-width="1"/>
<polyline fill="none" points="654,222 616,222" stroke="#000000" stroke-width="1"/>
<polyline fill="none" points="734,231 734,270" stroke="#000000" stroke-width="1"/>
<polygon fill="#ffffff" points="734,231 739,241 734,251 729,241" stroke="#ffffff" stroke-width="1"/>
<polygon fill="none" points="734,231 739,241 734,251 729,241" stroke="#000000" stroke-width="1"/>
<text font-family="Dialog" font-size="12" x="712" y="268">
*</text>
<text font-family="Dialog" font-size="12" x="711" y="250">
1</text>
<polyline fill="none" points="566,286 566,326" stroke="#000000" stroke-width="1"/>
<polygon fill="#ffffff" points="566,286 571,296 566,306 561,296" stroke="#ffffff" stroke-width="1"/>
<polygon fill="none" points="566,286 571,296 566,306 561,296" stroke="#000000" stroke-width="1"/>
<text font-family="Dialog" font-size="12" x="542" y="303">
1</text>
<text font-family="Dialog" font-size="12" x="544" y="327">
*</text>
<polyline fill="none" points="454,286 454,326" stroke="#000000" stroke-width="1"/>
<polygon fill="#ffffff" points="454,286 459,296 454,306 449,296" stroke="#ffffff" stroke-width="1"/>
<polygon fill="none" points="454,286 459,296 454,306 449,296" stroke="#000000" stroke-width="1"/>
<text font-family="Dialog" font-size="12" x="430" y="304">
1</text>
<text font-family="Dialog" font-size="12" x="424" y="324">
0..1</text>
<polyline fill="none" points="558,182 558,81" stroke="#000000" stroke-width="1"/>
<polygon fill="#ffffff" points="558,182 553,172 558,162 563,172" stroke="#ffffff" stroke-width="1"/>
<polygon fill="none" points="558,182 553,172 558,162 563,172" stroke="#000000" stroke-width="1"/>
<text font-family="Dialog" font-size="12" x="534" y="175">
1</text>
<text font-family="Dialog" font-size="12" x="573" y="101">
*</text>
<polyline fill="none" points="478,182 478,145" stroke="#000000" stroke-width="1"/>
<polygon fill="#ffffff" points="478,182 473,172 478,162 483,172" stroke="#ffffff" stroke-width="1"/>
<polygon fill="none" points="478,182 473,172 478,162 483,172" stroke="#000000" stroke-width="1"/>
<text font-family="Dialog" font-size="12" x="491" y="177">
1</text>
<text font-family="Dialog" font-size="12" x="492" y="164">
*</text>
<polyline fill="none" points="438,110 380,110" stroke="#000000" stroke-width="1"/>
<polygon fill="#ffffff" points="438,110 428,115 418,110 428,105" stroke="#ffffff" stroke-width="1"/>
<polygon fill="none" points="438,110 428,115 418,110 428,105" stroke="#000000" stroke-width="1"/>
<text font-family="Dialog" font-size="12" x="429" y="129">
*</text>
<text font-family="Dialog" font-size="12" x="384" y="125">
1</text>
<polyline fill="none" points="318,269 318,334 172,334" stroke="#000000" stroke-width="1"/>
<polyline fill="none" points="334,182 334,152" stroke="#000000" stroke-width="1"/>
<polyline fill="none" points="606,182 606,54 654,54" stroke="#000000" stroke-width="1"/>
<polygon fill="#ffffff" points="606,182 601,172 606,162 611,172" stroke="#ffffff" stroke-width="1"/>
<polygon fill="none" points="606,182 601,172 606,162 611,172" stroke="#000000" stroke-width="1"/>
<text font-family="Dialog" font-size="12" x="582" y="180">
1</text>
<text font-family="Dialog" font-size="12" x="640" y="70">
*</text>
<polyline fill="none" points="228,86 270,86" stroke="#000000" stroke-width="1"/>
<polyline fill="none" points="380,54 518,54" stroke="#000000" stroke-width="1"/>
<polygon fill="#ffffff" points="380,54 390,49 400,54 390,59" stroke="#ffffff" stroke-width="1"/>
<polygon fill="none" points="380,54 390,49 400,54 390,59" stroke="#000000" stroke-width="1"/>
<text font-family="Dialog" font-size="12" x="399" y="69">
1</text>
<text font-family="Dialog" font-size="12" x="502" y="70">
*</text>
</svg>
