<?xml version="1.0" encoding="utf-8"?>
<!-- Generator: Adobe Illustrator 19.0.0, SVG Export Plug-In . SVG Version: 6.00 Build 0)  -->
<svg version="1.1" id="Calque_1" xmlns="http://www.w3.org/2000/svg" xmlns:xlink="http://www.w3.org/1999/xlink" x="0px" y="0px"
	 viewBox="2189 326.8 1500.9 589.7" style="enable-background:new 2189 326.8 1500.9 589.7;" xml:space="preserve">
<style type="text/css">
	.st0{fill:#FFFFFF;stroke:#FFFFFF;}
	.st1{fill:none;stroke:#000000;}
	.st2{font-family:'ArialMT';}
	.st3{font-size:12px;}
	.st4{stroke:#000000;}
</style>
<rect x="2213.8" y="527.6" class="st0" width="1432" height="216"/>
<rect x="2213.8" y="527.6" class="st1" width="1432" height="216"/>
<line class="st1" x1="2332.8" y1="354.6" x2="2332.8" y2="359.6"/>
<line class="st1" x1="2332.8" y1="364.6" x2="2332.8" y2="369.6"/>
<line class="st1" x1="2332.8" y1="374.6" x2="2332.8" y2="379.6"/>
<line class="st1" x1="2332.8" y1="384.6" x2="2332.8" y2="389.6"/>
<line class="st1" x1="2332.8" y1="394.6" x2="2332.8" y2="399.6"/>
<line class="st1" x1="2332.8" y1="404.6" x2="2332.8" y2="409.6"/>
<line class="st1" x1="2332.8" y1="414.6" x2="2332.8" y2="419.6"/>
<line class="st1" x1="2332.8" y1="424.6" x2="2332.8" y2="429.6"/>
<line class="st1" x1="2332.8" y1="434.6" x2="2332.8" y2="439.6"/>
<line class="st1" x1="2332.8" y1="444.6" x2="2332.8" y2="449.6"/>
<line class="st1" x1="2332.8" y1="454.6" x2="2332.8" y2="459.6"/>
<line class="st1" x1="2332.8" y1="464.6" x2="2332.8" y2="469.6"/>
<line class="st1" x1="2332.8" y1="474.6" x2="2332.8" y2="479.6"/>
<line class="st1" x1="2332.8" y1="484.6" x2="2332.8" y2="489.6"/>
<line class="st1" x1="2332.8" y1="494.6" x2="2332.8" y2="499.6"/>
<line class="st1" x1="2332.8" y1="504.6" x2="2332.8" y2="509.6"/>
<line class="st1" x1="2332.8" y1="514.6" x2="2332.8" y2="519.6"/>
<line class="st1" x1="2332.8" y1="524.6" x2="2332.8" y2="529.6"/>
<line class="st1" x1="2332.8" y1="534.6" x2="2332.8" y2="539.6"/>
<line class="st1" x1="2332.8" y1="544.6" x2="2332.8" y2="549.6"/>
<line class="st1" x1="2332.8" y1="554.6" x2="2332.8" y2="559.6"/>
<line class="st1" x1="2332.8" y1="564.6" x2="2332.8" y2="569.6"/>
<line class="st1" x1="2332.8" y1="574.6" x2="2332.8" y2="579.6"/>
<line class="st1" x1="2332.8" y1="584.6" x2="2332.8" y2="589.6"/>
<line class="st1" x1="2332.8" y1="594.6" x2="2332.8" y2="599.6"/>
<line class="st1" x1="2332.8" y1="604.6" x2="2332.8" y2="609.6"/>
<line class="st1" x1="2332.8" y1="614.6" x2="2332.8" y2="619.6"/>
<line class="st1" x1="2332.8" y1="624.6" x2="2332.8" y2="629.6"/>
<line class="st1" x1="2332.8" y1="634.6" x2="2332.8" y2="639.6"/>
<line class="st1" x1="2332.8" y1="644.6" x2="2332.8" y2="649.6"/>
<line class="st1" x1="2332.8" y1="654.6" x2="2332.8" y2="659.6"/>
<line class="st1" x1="2332.8" y1="664.6" x2="2332.8" y2="669.6"/>
<line class="st1" x1="2332.8" y1="674.6" x2="2332.8" y2="679.6"/>
<line class="st1" x1="2332.8" y1="684.6" x2="2332.8" y2="689.6"/>
<line class="st1" x1="2332.8" y1="694.6" x2="2332.8" y2="699.6"/>
<line class="st1" x1="2332.8" y1="704.6" x2="2332.8" y2="709.6"/>
<line class="st1" x1="2332.8" y1="714.6" x2="2332.8" y2="719.6"/>
<line class="st1" x1="2332.8" y1="724.6" x2="2332.8" y2="729.6"/>
<line class="st1" x1="2332.8" y1="734.6" x2="2332.8" y2="739.6"/>
<line class="st1" x1="2332.8" y1="744.6" x2="2332.8" y2="749.6"/>
<line class="st1" x1="2332.8" y1="754.6" x2="2332.8" y2="759.6"/>
<line class="st1" x1="2332.8" y1="764.6" x2="2332.8" y2="769.6"/>
<line class="st1" x1="2332.8" y1="774.6" x2="2332.8" y2="779.6"/>
<line class="st1" x1="2332.8" y1="784.6" x2="2332.8" y2="789.6"/>
<line class="st1" x1="2332.8" y1="794.6" x2="2332.8" y2="799.6"/>
<line class="st1" x1="2332.8" y1="804.6" x2="2332.8" y2="809.6"/>
<line class="st1" x1="2332.8" y1="814.6" x2="2332.8" y2="819.6"/>
<line class="st1" x1="2332.8" y1="824.6" x2="2332.8" y2="829.6"/>
<line class="st1" x1="2332.8" y1="834.6" x2="2332.8" y2="839.6"/>
<line class="st1" x1="2332.8" y1="844.6" x2="2332.8" y2="849.6"/>
<line class="st1" x1="2332.8" y1="854.6" x2="2332.8" y2="859.6"/>
<line class="st1" x1="2332.8" y1="864.6" x2="2332.8" y2="869.6"/>
<line class="st1" x1="2332.8" y1="874.6" x2="2332.8" y2="879.6"/>
<line class="st1" x1="2332.8" y1="884.6" x2="2332.8" y2="889.6"/>
<line class="st1" x1="2332.8" y1="894.6" x2="2332.8" y2="896.6"/>
<rect x="2322.8" y="377.1" class="st0" width="20" height="519.5"/>
<rect x="2322.8" y="373.6" class="st1" width="20" height="523"/>
<rect x="2237.8" y="346.6" class="st0" width="191" height="50"/>
<rect x="2237.8" y="346.6" class="st1" width="191" height="50"/>
<text transform="matrix(1 0 0 1 2253.8352 360.6089)" class="st2 st3">:Systeme d&apos;information du 15</text>
<line class="st1" x1="2623.8" y1="354.6" x2="2623.8" y2="359.6"/>
<line class="st1" x1="2623.8" y1="364.6" x2="2623.8" y2="369.6"/>
<line class="st1" x1="2623.8" y1="374.6" x2="2623.8" y2="379.6"/>
<line class="st1" x1="2623.8" y1="384.6" x2="2623.8" y2="389.6"/>
<line class="st1" x1="2623.8" y1="394.6" x2="2623.8" y2="399.6"/>
<line class="st1" x1="2623.8" y1="404.6" x2="2623.8" y2="409.6"/>
<line class="st1" x1="2623.8" y1="414.6" x2="2623.8" y2="419.6"/>
<line class="st1" x1="2623.8" y1="424.6" x2="2623.8" y2="429.6"/>
<line class="st1" x1="2623.8" y1="434.6" x2="2623.8" y2="439.6"/>
<line class="st1" x1="2623.8" y1="444.6" x2="2623.8" y2="449.6"/>
<line class="st1" x1="2623.8" y1="454.6" x2="2623.8" y2="459.6"/>
<line class="st1" x1="2623.8" y1="464.6" x2="2623.8" y2="469.6"/>
<line class="st1" x1="2623.8" y1="474.6" x2="2623.8" y2="479.6"/>
<line class="st1" x1="2623.8" y1="484.6" x2="2623.8" y2="489.6"/>
<line class="st1" x1="2623.8" y1="494.6" x2="2623.8" y2="499.6"/>
<line class="st1" x1="2623.8" y1="504.6" x2="2623.8" y2="509.6"/>
<line class="st1" x1="2623.8" y1="514.6" x2="2623.8" y2="519.6"/>
<line class="st1" x1="2623.8" y1="524.6" x2="2623.8" y2="529.6"/>
<line class="st1" x1="2623.8" y1="534.6" x2="2623.8" y2="539.6"/>
<line class="st1" x1="2623.8" y1="544.6" x2="2623.8" y2="549.6"/>
<line class="st1" x1="2623.8" y1="554.6" x2="2623.8" y2="559.6"/>
<line class="st1" x1="2623.8" y1="564.6" x2="2623.8" y2="569.6"/>
<line class="st1" x1="2623.8" y1="574.6" x2="2623.8" y2="579.6"/>
<line class="st1" x1="2623.8" y1="584.6" x2="2623.8" y2="589.6"/>
<line class="st1" x1="2623.8" y1="594.6" x2="2623.8" y2="599.6"/>
<line class="st1" x1="2623.8" y1="604.6" x2="2623.8" y2="609.6"/>
<line class="st1" x1="2623.8" y1="614.6" x2="2623.8" y2="619.6"/>
<line class="st1" x1="2623.8" y1="624.6" x2="2623.8" y2="629.6"/>
<line class="st1" x1="2623.8" y1="634.6" x2="2623.8" y2="639.6"/>
<line class="st1" x1="2623.8" y1="644.6" x2="2623.8" y2="649.6"/>
<line class="st1" x1="2623.8" y1="654.6" x2="2623.8" y2="659.6"/>
<line class="st1" x1="2623.8" y1="664.6" x2="2623.8" y2="669.6"/>
<line class="st1" x1="2623.8" y1="674.6" x2="2623.8" y2="679.6"/>
<line class="st1" x1="2623.8" y1="684.6" x2="2623.8" y2="689.6"/>
<line class="st1" x1="2623.8" y1="694.6" x2="2623.8" y2="699.6"/>
<line class="st1" x1="2623.8" y1="704.6" x2="2623.8" y2="709.6"/>
<line class="st1" x1="2623.8" y1="714.6" x2="2623.8" y2="719.6"/>
<line class="st1" x1="2623.8" y1="724.6" x2="2623.8" y2="729.6"/>
<line class="st1" x1="2623.8" y1="734.6" x2="2623.8" y2="739.6"/>
<line class="st1" x1="2623.8" y1="744.6" x2="2623.8" y2="749.6"/>
<line class="st1" x1="2623.8" y1="754.6" x2="2623.8" y2="759.6"/>
<line class="st1" x1="2623.8" y1="764.6" x2="2623.8" y2="769.6"/>
<line class="st1" x1="2623.8" y1="774.6" x2="2623.8" y2="779.6"/>
<line class="st1" x1="2623.8" y1="784.6" x2="2623.8" y2="789.6"/>
<line class="st1" x1="2623.8" y1="794.6" x2="2623.8" y2="799.6"/>
<line class="st1" x1="2623.8" y1="804.6" x2="2623.8" y2="809.6"/>
<line class="st1" x1="2623.8" y1="814.6" x2="2623.8" y2="819.6"/>
<line class="st1" x1="2623.8" y1="824.6" x2="2623.8" y2="829.6"/>
<line class="st1" x1="2623.8" y1="834.6" x2="2623.8" y2="839.6"/>
<line class="st1" x1="2623.8" y1="844.6" x2="2623.8" y2="849.6"/>
<line class="st1" x1="2623.8" y1="854.6" x2="2623.8" y2="859.6"/>
<line class="st1" x1="2623.8" y1="864.6" x2="2623.8" y2="869.6"/>
<line class="st1" x1="2623.8" y1="874.6" x2="2623.8" y2="879.6"/>
<line class="st1" x1="2623.8" y1="884.6" x2="2623.8" y2="889.6"/>
<line class="st1" x1="2623.8" y1="894.6" x2="2623.8" y2="896.6"/>
<rect x="2613.8" y="374.6" class="st0" width="20" height="522"/>
<rect x="2613.8" y="374.6" class="st1" width="20" height="522"/>
<rect x="2515.8" y="346.6" class="st0" width="216" height="50"/>
<rect x="2515.8" y="346.6" class="st1" width="216" height="50"/>
<text transform="matrix(1 0 0 1 2540.8352 360.6089)" class="st2 st3">:ARM Gestionnaire de moyens</text>
<line class="st1" x1="2935.8" y1="354.6" x2="2935.8" y2="359.6"/>
<line class="st1" x1="2935.8" y1="364.6" x2="2935.8" y2="369.6"/>
<line class="st1" x1="2935.8" y1="374.6" x2="2935.8" y2="379.6"/>
<line class="st1" x1="2935.8" y1="384.6" x2="2935.8" y2="389.6"/>
<line class="st1" x1="2935.8" y1="394.6" x2="2935.8" y2="399.6"/>
<line class="st1" x1="2935.8" y1="404.6" x2="2935.8" y2="409.6"/>
<line class="st1" x1="2935.8" y1="414.6" x2="2935.8" y2="419.6"/>
<line class="st1" x1="2935.8" y1="424.6" x2="2935.8" y2="429.6"/>
<line class="st1" x1="2935.8" y1="434.6" x2="2935.8" y2="439.6"/>
<line class="st1" x1="2935.8" y1="444.6" x2="2935.8" y2="449.6"/>
<line class="st1" x1="2935.8" y1="454.6" x2="2935.8" y2="459.6"/>
<line class="st1" x1="2935.8" y1="464.6" x2="2935.8" y2="469.6"/>
<line class="st1" x1="2935.8" y1="474.6" x2="2935.8" y2="479.6"/>
<line class="st1" x1="2935.8" y1="484.6" x2="2935.8" y2="489.6"/>
<line class="st1" x1="2935.8" y1="494.6" x2="2935.8" y2="499.6"/>
<line class="st1" x1="2935.8" y1="504.6" x2="2935.8" y2="509.6"/>
<line class="st1" x1="2935.8" y1="514.6" x2="2935.8" y2="519.6"/>
<line class="st1" x1="2935.8" y1="524.6" x2="2935.8" y2="529.6"/>
<line class="st1" x1="2935.8" y1="534.6" x2="2935.8" y2="539.6"/>
<line class="st1" x1="2935.8" y1="544.6" x2="2935.8" y2="549.6"/>
<line class="st1" x1="2935.8" y1="554.6" x2="2935.8" y2="559.6"/>
<line class="st1" x1="2935.8" y1="564.6" x2="2935.8" y2="569.6"/>
<line class="st1" x1="2935.8" y1="574.6" x2="2935.8" y2="579.6"/>
<line class="st1" x1="2935.8" y1="584.6" x2="2935.8" y2="589.6"/>
<line class="st1" x1="2935.8" y1="594.6" x2="2935.8" y2="599.6"/>
<line class="st1" x1="2935.8" y1="604.6" x2="2935.8" y2="609.6"/>
<line class="st1" x1="2935.8" y1="614.6" x2="2935.8" y2="619.6"/>
<line class="st1" x1="2935.8" y1="624.6" x2="2935.8" y2="629.6"/>
<line class="st1" x1="2935.8" y1="634.6" x2="2935.8" y2="639.6"/>
<line class="st1" x1="2935.8" y1="644.6" x2="2935.8" y2="649.6"/>
<line class="st1" x1="2935.8" y1="654.6" x2="2935.8" y2="659.6"/>
<line class="st1" x1="2935.8" y1="664.6" x2="2935.8" y2="669.6"/>
<line class="st1" x1="2935.8" y1="674.6" x2="2935.8" y2="679.6"/>
<line class="st1" x1="2935.8" y1="684.6" x2="2935.8" y2="689.6"/>
<line class="st1" x1="2935.8" y1="694.6" x2="2935.8" y2="699.6"/>
<line class="st1" x1="2935.8" y1="704.6" x2="2935.8" y2="709.6"/>
<line class="st1" x1="2935.8" y1="714.6" x2="2935.8" y2="719.6"/>
<line class="st1" x1="2935.8" y1="724.6" x2="2935.8" y2="729.6"/>
<line class="st1" x1="2935.8" y1="734.6" x2="2935.8" y2="739.6"/>
<line class="st1" x1="2935.8" y1="744.6" x2="2935.8" y2="749.6"/>
<line class="st1" x1="2935.8" y1="754.6" x2="2935.8" y2="759.6"/>
<line class="st1" x1="2935.8" y1="764.6" x2="2935.8" y2="769.6"/>
<line class="st1" x1="2935.8" y1="774.6" x2="2935.8" y2="779.6"/>
<line class="st1" x1="2935.8" y1="784.6" x2="2935.8" y2="789.6"/>
<line class="st1" x1="2935.8" y1="794.6" x2="2935.8" y2="799.6"/>
<line class="st1" x1="2935.8" y1="804.6" x2="2935.8" y2="809.6"/>
<line class="st1" x1="2935.8" y1="814.6" x2="2935.8" y2="819.6"/>
<line class="st1" x1="2935.8" y1="824.6" x2="2935.8" y2="829.6"/>
<line class="st1" x1="2935.8" y1="834.6" x2="2935.8" y2="839.6"/>
<line class="st1" x1="2935.8" y1="844.6" x2="2935.8" y2="849.6"/>
<line class="st1" x1="2935.8" y1="854.6" x2="2935.8" y2="859.6"/>
<line class="st1" x1="2935.8" y1="864.6" x2="2935.8" y2="869.6"/>
<line class="st1" x1="2935.8" y1="874.6" x2="2935.8" y2="879.6"/>
<line class="st1" x1="2935.8" y1="884.6" x2="2935.8" y2="889.6"/>
<line class="st1" x1="2935.8" y1="894.6" x2="2935.8" y2="896.6"/>
<rect x="2925.8" y="377.6" class="st0" width="20" height="519"/>
<rect x="2925.8" y="371.6" class="st1" width="20" height="525"/>
<rect x="2860.8" y="346.6" class="st0" width="150" height="50"/>
<rect x="2860.8" y="346.6" class="st1" width="150" height="50"/>
<text transform="matrix(1 0 0 1 2881.8352 360.6089)" class="st2 st3">:Médecin régulateur</text>
<line class="st1" x1="3259.8" y1="354.6" x2="3259.8" y2="359.6"/>
<line class="st1" x1="3259.8" y1="364.6" x2="3259.8" y2="369.6"/>
<line class="st1" x1="3259.8" y1="374.6" x2="3259.8" y2="379.6"/>
<line class="st1" x1="3259.8" y1="384.6" x2="3259.8" y2="389.6"/>
<line class="st1" x1="3259.8" y1="394.6" x2="3259.8" y2="399.6"/>
<line class="st1" x1="3259.8" y1="404.6" x2="3259.8" y2="409.6"/>
<line class="st1" x1="3259.8" y1="414.6" x2="3259.8" y2="419.6"/>
<line class="st1" x1="3259.8" y1="424.6" x2="3259.8" y2="429.6"/>
<line class="st1" x1="3259.8" y1="434.6" x2="3259.8" y2="439.6"/>
<line class="st1" x1="3259.8" y1="444.6" x2="3259.8" y2="449.6"/>
<line class="st1" x1="3259.8" y1="454.6" x2="3259.8" y2="459.6"/>
<line class="st1" x1="3259.8" y1="464.6" x2="3259.8" y2="469.6"/>
<line class="st1" x1="3259.8" y1="474.6" x2="3259.8" y2="479.6"/>
<line class="st1" x1="3259.8" y1="484.6" x2="3259.8" y2="489.6"/>
<line class="st1" x1="3259.8" y1="494.6" x2="3259.8" y2="499.6"/>
<line class="st1" x1="3259.8" y1="504.6" x2="3259.8" y2="509.6"/>
<line class="st1" x1="3259.8" y1="514.6" x2="3259.8" y2="519.6"/>
<line class="st1" x1="3259.8" y1="524.6" x2="3259.8" y2="529.6"/>
<line class="st1" x1="3259.8" y1="534.6" x2="3259.8" y2="539.6"/>
<line class="st1" x1="3259.8" y1="544.6" x2="3259.8" y2="549.6"/>
<line class="st1" x1="3259.8" y1="554.6" x2="3259.8" y2="559.6"/>
<line class="st1" x1="3259.8" y1="564.6" x2="3259.8" y2="569.6"/>
<line class="st1" x1="3259.8" y1="574.6" x2="3259.8" y2="579.6"/>
<line class="st1" x1="3259.8" y1="584.6" x2="3259.8" y2="589.6"/>
<line class="st1" x1="3259.8" y1="594.6" x2="3259.8" y2="599.6"/>
<line class="st1" x1="3259.8" y1="604.6" x2="3259.8" y2="609.6"/>
<line class="st1" x1="3259.8" y1="614.6" x2="3259.8" y2="619.6"/>
<line class="st1" x1="3259.8" y1="624.6" x2="3259.8" y2="629.6"/>
<line class="st1" x1="3259.8" y1="634.6" x2="3259.8" y2="639.6"/>
<line class="st1" x1="3259.8" y1="644.6" x2="3259.8" y2="649.6"/>
<line class="st1" x1="3259.8" y1="654.6" x2="3259.8" y2="659.6"/>
<line class="st1" x1="3259.8" y1="664.6" x2="3259.8" y2="669.6"/>
<line class="st1" x1="3259.8" y1="674.6" x2="3259.8" y2="679.6"/>
<line class="st1" x1="3259.8" y1="684.6" x2="3259.8" y2="689.6"/>
<line class="st1" x1="3259.8" y1="694.6" x2="3259.8" y2="699.6"/>
<line class="st1" x1="3259.8" y1="704.6" x2="3259.8" y2="709.6"/>
<line class="st1" x1="3259.8" y1="714.6" x2="3259.8" y2="719.6"/>
<line class="st1" x1="3259.8" y1="724.6" x2="3259.8" y2="729.6"/>
<line class="st1" x1="3259.8" y1="734.6" x2="3259.8" y2="739.6"/>
<line class="st1" x1="3259.8" y1="744.6" x2="3259.8" y2="749.6"/>
<line class="st1" x1="3259.8" y1="754.6" x2="3259.8" y2="759.6"/>
<line class="st1" x1="3259.8" y1="764.6" x2="3259.8" y2="769.6"/>
<line class="st1" x1="3259.8" y1="774.6" x2="3259.8" y2="779.6"/>
<line class="st1" x1="3259.8" y1="784.6" x2="3259.8" y2="789.6"/>
<line class="st1" x1="3259.8" y1="794.6" x2="3259.8" y2="799.6"/>
<line class="st1" x1="3259.8" y1="804.6" x2="3259.8" y2="809.6"/>
<line class="st1" x1="3259.8" y1="814.6" x2="3259.8" y2="819.6"/>
<line class="st1" x1="3259.8" y1="824.6" x2="3259.8" y2="829.6"/>
<line class="st1" x1="3259.8" y1="834.6" x2="3259.8" y2="839.6"/>
<line class="st1" x1="3259.8" y1="844.6" x2="3259.8" y2="849.6"/>
<line class="st1" x1="3259.8" y1="854.6" x2="3259.8" y2="859.6"/>
<line class="st1" x1="3259.8" y1="864.6" x2="3259.8" y2="869.6"/>
<line class="st1" x1="3259.8" y1="874.6" x2="3259.8" y2="879.6"/>
<line class="st1" x1="3259.8" y1="884.6" x2="3259.8" y2="889.6"/>
<line class="st1" x1="3259.8" y1="894.6" x2="3259.8" y2="895.6"/>
<rect x="3249.8" y="379.6" class="st0" width="20" height="516"/>
<rect x="3249.8" y="379.6" class="st1" width="20" height="516"/>
<rect x="3184.8" y="346.6" class="st0" width="150" height="50"/>
<rect x="3184.8" y="346.6" class="st1" width="150" height="50"/>
<text transform="matrix(1 0 0 1 3234.8352 360.6089)" class="st2 st3">:Secours</text>
<line class="st1" x1="3552.8" y1="354.6" x2="3552.8" y2="359.6"/>
<line class="st1" x1="3552.8" y1="364.6" x2="3552.8" y2="369.6"/>
<line class="st1" x1="3552.8" y1="374.6" x2="3552.8" y2="379.6"/>
<line class="st1" x1="3552.8" y1="384.6" x2="3552.8" y2="389.6"/>
<line class="st1" x1="3552.8" y1="394.6" x2="3552.8" y2="399.6"/>
<line class="st1" x1="3552.8" y1="404.6" x2="3552.8" y2="409.6"/>
<line class="st1" x1="3552.8" y1="414.6" x2="3552.8" y2="419.6"/>
<line class="st1" x1="3552.8" y1="424.6" x2="3552.8" y2="429.6"/>
<line class="st1" x1="3552.8" y1="434.6" x2="3552.8" y2="439.6"/>
<line class="st1" x1="3552.8" y1="444.6" x2="3552.8" y2="449.6"/>
<line class="st1" x1="3552.8" y1="454.6" x2="3552.8" y2="459.6"/>
<line class="st1" x1="3552.8" y1="464.6" x2="3552.8" y2="469.6"/>
<line class="st1" x1="3552.8" y1="474.6" x2="3552.8" y2="479.6"/>
<line class="st1" x1="3552.8" y1="484.6" x2="3552.8" y2="489.6"/>
<line class="st1" x1="3552.8" y1="494.6" x2="3552.8" y2="499.6"/>
<line class="st1" x1="3552.8" y1="504.6" x2="3552.8" y2="509.6"/>
<line class="st1" x1="3552.8" y1="514.6" x2="3552.8" y2="519.6"/>
<line class="st1" x1="3552.8" y1="524.6" x2="3552.8" y2="529.6"/>
<line class="st1" x1="3552.8" y1="534.6" x2="3552.8" y2="539.6"/>
<line class="st1" x1="3552.8" y1="544.6" x2="3552.8" y2="549.6"/>
<line class="st1" x1="3552.8" y1="554.6" x2="3552.8" y2="559.6"/>
<line class="st1" x1="3552.8" y1="564.6" x2="3552.8" y2="569.6"/>
<line class="st1" x1="3552.8" y1="574.6" x2="3552.8" y2="579.6"/>
<line class="st1" x1="3552.8" y1="584.6" x2="3552.8" y2="589.6"/>
<line class="st1" x1="3552.8" y1="594.6" x2="3552.8" y2="599.6"/>
<line class="st1" x1="3552.8" y1="604.6" x2="3552.8" y2="609.6"/>
<line class="st1" x1="3552.8" y1="614.6" x2="3552.8" y2="619.6"/>
<line class="st1" x1="3552.8" y1="624.6" x2="3552.8" y2="629.6"/>
<line class="st1" x1="3552.8" y1="634.6" x2="3552.8" y2="639.6"/>
<line class="st1" x1="3552.8" y1="644.6" x2="3552.8" y2="649.6"/>
<line class="st1" x1="3552.8" y1="654.6" x2="3552.8" y2="659.6"/>
<line class="st1" x1="3552.8" y1="664.6" x2="3552.8" y2="669.6"/>
<line class="st1" x1="3552.8" y1="674.6" x2="3552.8" y2="679.6"/>
<line class="st1" x1="3552.8" y1="684.6" x2="3552.8" y2="689.6"/>
<line class="st1" x1="3552.8" y1="694.6" x2="3552.8" y2="699.6"/>
<line class="st1" x1="3552.8" y1="704.6" x2="3552.8" y2="709.6"/>
<line class="st1" x1="3552.8" y1="714.6" x2="3552.8" y2="719.6"/>
<line class="st1" x1="3552.8" y1="724.6" x2="3552.8" y2="729.6"/>
<line class="st1" x1="3552.8" y1="734.6" x2="3552.8" y2="739.6"/>
<line class="st1" x1="3552.8" y1="744.6" x2="3552.8" y2="749.6"/>
<line class="st1" x1="3552.8" y1="754.6" x2="3552.8" y2="759.6"/>
<line class="st1" x1="3552.8" y1="764.6" x2="3552.8" y2="769.6"/>
<line class="st1" x1="3552.8" y1="774.6" x2="3552.8" y2="779.6"/>
<line class="st1" x1="3552.8" y1="784.6" x2="3552.8" y2="789.6"/>
<line class="st1" x1="3552.8" y1="794.6" x2="3552.8" y2="799.6"/>
<line class="st1" x1="3552.8" y1="804.6" x2="3552.8" y2="809.6"/>
<line class="st1" x1="3552.8" y1="814.6" x2="3552.8" y2="819.6"/>
<line class="st1" x1="3552.8" y1="824.6" x2="3552.8" y2="829.6"/>
<line class="st1" x1="3552.8" y1="834.6" x2="3552.8" y2="839.6"/>
<line class="st1" x1="3552.8" y1="844.6" x2="3552.8" y2="849.6"/>
<line class="st1" x1="3552.8" y1="854.6" x2="3552.8" y2="859.6"/>
<line class="st1" x1="3552.8" y1="864.6" x2="3552.8" y2="869.6"/>
<line class="st1" x1="3552.8" y1="874.6" x2="3552.8" y2="879.6"/>
<line class="st1" x1="3552.8" y1="884.6" x2="3552.8" y2="889.6"/>
<line class="st1" x1="3552.8" y1="894.6" x2="3552.8" y2="895.6"/>
<rect x="3542.8" y="651.6" class="st0" width="20" height="40"/>
<rect x="3542.8" y="651.6" class="st1" width="20" height="40"/>
<rect x="3542.8" y="839.6" class="st0" width="20" height="56"/>
<rect x="3542.8" y="839.6" class="st1" width="20" height="56"/>
<rect x="3477.8" y="346.6" class="st0" width="150" height="50"/>
<rect x="3477.8" y="346.6" class="st1" width="150" height="50"/>
<text transform="matrix(1 0 0 1 3500.8352 360.6089)" class="st2 st3">:Structure d&apos;accueil</text>
<line class="st1" x1="3249.8" y1="451.6" x2="2633.8" y2="451.6"/>
<line class="st1" x1="2645.8" y1="444.6" x2="2633.8" y2="451.6"/>
<line class="st1" x1="2645.8" y1="458.6" x2="2633.8" y2="451.6"/>
<text transform="matrix(1 0 0 1 2793.8352 446.6089)" class="st2 st3">Envoi du bilan (et d&apos;une demande de renfort si besoin)</text>
<line class="st1" x1="2633.8" y1="491.6" x2="2925.8" y2="491.6"/>
<line class="st1" x1="2913.8" y1="498.6" x2="2925.8" y2="491.6"/>
<line class="st1" x1="2913.8" y1="484.6" x2="2925.8" y2="491.6"/>
<text transform="matrix(1 0 0 1 2730.6985 486.6089)" class="st2 st3">Transmission du bilan</text>
<line class="st1" x1="2925.8" y1="579.6" x2="2342.8" y2="579.6"/>
<line class="st1" x1="2354.8" y1="572.6" x2="2342.8" y2="579.6"/>
<line class="st1" x1="2354.8" y1="586.6" x2="2342.8" y2="579.6"/>
<text transform="matrix(1 0 0 1 2538.1633 573.6089)" class="st2 st3">Recherche d&apos;un lieu d&apos;accueil</text>
<line class="st1" x1="2342.8" y1="619.6" x2="2347.8" y2="619.6"/>
<line class="st1" x1="2352.8" y1="619.6" x2="2357.8" y2="619.6"/>
<line class="st1" x1="2362.8" y1="619.6" x2="2367.8" y2="619.6"/>
<line class="st1" x1="2372.8" y1="619.6" x2="2377.8" y2="619.6"/>
<line class="st1" x1="2382.8" y1="619.6" x2="2387.8" y2="619.6"/>
<line class="st1" x1="2392.8" y1="619.6" x2="2397.8" y2="619.6"/>
<line class="st1" x1="2402.8" y1="619.6" x2="2407.8" y2="619.6"/>
<line class="st1" x1="2412.8" y1="619.6" x2="2417.8" y2="619.6"/>
<line class="st1" x1="2422.8" y1="619.6" x2="2427.8" y2="619.6"/>
<line class="st1" x1="2432.8" y1="619.6" x2="2437.8" y2="619.6"/>
<line class="st1" x1="2442.8" y1="619.6" x2="2447.8" y2="619.6"/>
<line class="st1" x1="2342.8" y1="619.6" x2="2347.8" y2="619.6"/>
<line class="st1" x1="2352.8" y1="619.6" x2="2357.8" y2="619.6"/>
<line class="st1" x1="2362.8" y1="619.6" x2="2367.8" y2="619.6"/>
<line class="st1" x1="2372.8" y1="619.6" x2="2377.8" y2="619.6"/>
<line class="st1" x1="2382.8" y1="619.6" x2="2387.8" y2="619.6"/>
<line class="st1" x1="2392.8" y1="619.6" x2="2397.8" y2="619.6"/>
<line class="st1" x1="2402.8" y1="619.6" x2="2407.8" y2="619.6"/>
<line class="st1" x1="2412.8" y1="619.6" x2="2417.8" y2="619.6"/>
<line class="st1" x1="2422.8" y1="619.6" x2="2427.8" y2="619.6"/>
<line class="st1" x1="2432.8" y1="619.6" x2="2437.8" y2="619.6"/>
<line class="st1" x1="2442.8" y1="619.6" x2="2447.8" y2="619.6"/>
<line class="st1" x1="2452.8" y1="619.6" x2="2457.8" y2="619.6"/>
<line class="st1" x1="2462.8" y1="619.6" x2="2467.8" y2="619.6"/>
<line class="st1" x1="2472.8" y1="619.6" x2="2477.8" y2="619.6"/>
<line class="st1" x1="2482.8" y1="619.6" x2="2487.8" y2="619.6"/>
<line class="st1" x1="2492.8" y1="619.6" x2="2497.8" y2="619.6"/>
<line class="st1" x1="2502.8" y1="619.6" x2="2507.8" y2="619.6"/>
<line class="st1" x1="2512.8" y1="619.6" x2="2517.8" y2="619.6"/>
<line class="st1" x1="2522.8" y1="619.6" x2="2527.8" y2="619.6"/>
<line class="st1" x1="2532.8" y1="619.6" x2="2537.8" y2="619.6"/>
<line class="st1" x1="2542.8" y1="619.6" x2="2547.8" y2="619.6"/>
<line class="st1" x1="2552.8" y1="619.6" x2="2557.8" y2="619.6"/>
<line class="st1" x1="2562.8" y1="619.6" x2="2567.8" y2="619.6"/>
<line class="st1" x1="2572.8" y1="619.6" x2="2577.8" y2="619.6"/>
<line class="st1" x1="2582.8" y1="619.6" x2="2587.8" y2="619.6"/>
<line class="st1" x1="2592.8" y1="619.6" x2="2597.8" y2="619.6"/>
<line class="st1" x1="2602.8" y1="619.6" x2="2607.8" y2="619.6"/>
<line class="st1" x1="2612.8" y1="619.6" x2="2617.8" y2="619.6"/>
<line class="st1" x1="2622.8" y1="619.6" x2="2627.8" y2="619.6"/>
<line class="st1" x1="2632.8" y1="619.6" x2="2637.8" y2="619.6"/>
<line class="st1" x1="2642.8" y1="619.6" x2="2647.8" y2="619.6"/>
<line class="st1" x1="2652.8" y1="619.6" x2="2657.8" y2="619.6"/>
<line class="st1" x1="2662.8" y1="619.6" x2="2667.8" y2="619.6"/>
<line class="st1" x1="2672.8" y1="619.6" x2="2677.8" y2="619.6"/>
<line class="st1" x1="2682.8" y1="619.6" x2="2687.8" y2="619.6"/>
<line class="st1" x1="2692.8" y1="619.6" x2="2697.8" y2="619.6"/>
<line class="st1" x1="2702.8" y1="619.6" x2="2707.8" y2="619.6"/>
<line class="st1" x1="2712.8" y1="619.6" x2="2717.8" y2="619.6"/>
<line class="st1" x1="2722.8" y1="619.6" x2="2727.8" y2="619.6"/>
<line class="st1" x1="2732.8" y1="619.6" x2="2737.8" y2="619.6"/>
<line class="st1" x1="2742.8" y1="619.6" x2="2747.8" y2="619.6"/>
<line class="st1" x1="2752.8" y1="619.6" x2="2757.8" y2="619.6"/>
<line class="st1" x1="2762.8" y1="619.6" x2="2767.8" y2="619.6"/>
<line class="st1" x1="2772.8" y1="619.6" x2="2777.8" y2="619.6"/>
<line class="st1" x1="2782.8" y1="619.6" x2="2787.8" y2="619.6"/>
<line class="st1" x1="2792.8" y1="619.6" x2="2797.8" y2="619.6"/>
<line class="st1" x1="2802.8" y1="619.6" x2="2807.8" y2="619.6"/>
<line class="st1" x1="2812.8" y1="619.6" x2="2817.8" y2="619.6"/>
<line class="st1" x1="2822.8" y1="619.6" x2="2827.8" y2="619.6"/>
<line class="st1" x1="2832.8" y1="619.6" x2="2837.8" y2="619.6"/>
<line class="st1" x1="2842.8" y1="619.6" x2="2847.8" y2="619.6"/>
<line class="st1" x1="2852.8" y1="619.6" x2="2857.8" y2="619.6"/>
<line class="st1" x1="2862.8" y1="619.6" x2="2867.8" y2="619.6"/>
<line class="st1" x1="2872.8" y1="619.6" x2="2877.8" y2="619.6"/>
<line class="st1" x1="2882.8" y1="619.6" x2="2887.8" y2="619.6"/>
<line class="st1" x1="2892.8" y1="619.6" x2="2897.8" y2="619.6"/>
<line class="st1" x1="2902.8" y1="619.6" x2="2907.8" y2="619.6"/>
<line class="st1" x1="2912.8" y1="619.6" x2="2917.8" y2="619.6"/>
<line class="st1" x1="2922.8" y1="619.6" x2="2925.8" y2="619.6"/>
<line class="st1" x1="2913.8" y1="626.6" x2="2925.8" y2="619.6"/>
<line class="st1" x1="2913.8" y1="612.6" x2="2925.8" y2="619.6"/>
<text transform="matrix(1 0 0 1 2524.9739 612.6089)" class="st2 st3">Liste des lieux d&apos;accueil conseillés</text>
<line class="st1" x1="3542.8" y1="691.6" x2="3537.8" y2="691.6"/>
<line class="st1" x1="3532.8" y1="691.6" x2="3527.8" y2="691.6"/>
<line class="st1" x1="3522.8" y1="691.6" x2="3517.8" y2="691.6"/>
<line class="st1" x1="3512.8" y1="691.6" x2="3507.8" y2="691.6"/>
<line class="st1" x1="3502.8" y1="691.6" x2="3497.8" y2="691.6"/>
<line class="st1" x1="3492.8" y1="691.6" x2="3487.8" y2="691.6"/>
<line class="st1" x1="3482.8" y1="691.6" x2="3477.8" y2="691.6"/>
<line class="st1" x1="3472.8" y1="691.6" x2="3467.8" y2="691.6"/>
<line class="st1" x1="3462.8" y1="691.6" x2="3457.8" y2="691.6"/>
<line class="st1" x1="3452.8" y1="691.6" x2="3447.8" y2="691.6"/>
<line class="st1" x1="3442.8" y1="691.6" x2="3437.8" y2="691.6"/>
<line class="st1" x1="3432.8" y1="691.6" x2="3427.8" y2="691.6"/>
<line class="st1" x1="3422.8" y1="691.6" x2="3417.8" y2="691.6"/>
<line class="st1" x1="3412.8" y1="691.6" x2="3407.8" y2="691.6"/>
<line class="st1" x1="3402.8" y1="691.6" x2="3397.8" y2="691.6"/>
<line class="st1" x1="3392.8" y1="691.6" x2="3387.8" y2="691.6"/>
<line class="st1" x1="3382.8" y1="691.6" x2="3377.8" y2="691.6"/>
<line class="st1" x1="3372.8" y1="691.6" x2="3367.8" y2="691.6"/>
<line class="st1" x1="3362.8" y1="691.6" x2="3357.8" y2="691.6"/>
<line class="st1" x1="3352.8" y1="691.6" x2="3347.8" y2="691.6"/>
<line class="st1" x1="3342.8" y1="691.6" x2="3337.8" y2="691.6"/>
<path class="st1" d="M3332.8,691.6"/>
<path class="st1" d="M3657.8,691.6"/>
<path class="st1" d="M3647.8,691.6"/>
<path class="st1" d="M3652.8,691.6"/>
<path class="st1" d="M3642.8,691.6"/>
<path class="st1" d="M3627.8,691.6"/>
<path class="st1" d="M3632.8,691.6"/>
<path class="st1" d="M3617.8,691.6"/>
<path class="st1" d="M3622.8,691.6"/>
<path class="st1" d="M3612.8,691.6"/>
<path class="st1" d="M3597.8,691.6"/>
<path class="st1" d="M3602.8,691.6"/>
<path class="st1" d="M3592.8,691.6"/>
<path class="st1" d="M3582.8,691.6"/>
<path class="st1" d="M3567.8,691.6"/>
<path class="st1" d="M3572.8,691.6"/>
<line class="st1" x1="3562.8" y1="691.6" x2="3557.8" y2="691.6"/>
<line class="st1" x1="3552.8" y1="691.6" x2="3547.8" y2="691.6"/>
<line class="st1" x1="3542.8" y1="691.6" x2="3537.8" y2="691.6"/>
<line class="st1" x1="3532.8" y1="691.6" x2="3527.8" y2="691.6"/>
<line class="st1" x1="3522.8" y1="691.6" x2="3517.8" y2="691.6"/>
<line class="st1" x1="3512.8" y1="691.6" x2="3507.8" y2="691.6"/>
<line class="st1" x1="3502.8" y1="691.6" x2="3497.8" y2="691.6"/>
<line class="st1" x1="3492.8" y1="691.6" x2="3487.8" y2="691.6"/>
<line class="st1" x1="3482.8" y1="691.6" x2="3477.8" y2="691.6"/>
<line class="st1" x1="3472.8" y1="691.6" x2="3467.8" y2="691.6"/>
<line class="st1" x1="3462.8" y1="691.6" x2="3457.8" y2="691.6"/>
<line class="st1" x1="3452.8" y1="691.6" x2="3447.8" y2="691.6"/>
<line class="st1" x1="3442.8" y1="691.6" x2="3437.8" y2="691.6"/>
<line class="st1" x1="3432.8" y1="691.6" x2="3427.8" y2="691.6"/>
<line class="st1" x1="3422.8" y1="691.6" x2="3417.8" y2="691.6"/>
<line class="st1" x1="3412.8" y1="691.6" x2="3407.8" y2="691.6"/>
<line class="st1" x1="3402.8" y1="691.6" x2="3397.8" y2="691.6"/>
<line class="st1" x1="3392.8" y1="691.6" x2="3387.8" y2="691.6"/>
<line class="st1" x1="3382.8" y1="691.6" x2="3377.8" y2="691.6"/>
<line class="st1" x1="3372.8" y1="691.6" x2="3367.8" y2="691.6"/>
<line class="st1" x1="3362.8" y1="691.6" x2="3357.8" y2="691.6"/>
<line class="st1" x1="3352.8" y1="691.6" x2="3347.8" y2="691.6"/>
<line class="st1" x1="3342.8" y1="691.6" x2="3337.8" y2="691.6"/>
<line class="st1" x1="3332.8" y1="691.6" x2="3327.8" y2="691.6"/>
<line class="st1" x1="3322.8" y1="691.6" x2="3317.8" y2="691.6"/>
<line class="st1" x1="3312.8" y1="691.6" x2="3307.8" y2="691.6"/>
<line class="st1" x1="3302.8" y1="691.6" x2="3297.8" y2="691.6"/>
<line class="st1" x1="3292.8" y1="691.6" x2="3287.8" y2="691.6"/>
<line class="st1" x1="3282.8" y1="691.6" x2="3277.8" y2="691.6"/>
<line class="st1" x1="3272.8" y1="691.6" x2="3267.8" y2="691.6"/>
<line class="st1" x1="3262.8" y1="691.6" x2="3257.8" y2="691.6"/>
<line class="st1" x1="3252.8" y1="691.6" x2="3247.8" y2="691.6"/>
<line class="st1" x1="3242.8" y1="691.6" x2="3237.8" y2="691.6"/>
<line class="st1" x1="3232.8" y1="691.6" x2="3227.8" y2="691.6"/>
<line class="st1" x1="3222.8" y1="691.6" x2="3217.8" y2="691.6"/>
<line class="st1" x1="3212.8" y1="691.6" x2="3207.8" y2="691.6"/>
<line class="st1" x1="3202.8" y1="691.6" x2="3197.8" y2="691.6"/>
<line class="st1" x1="3192.8" y1="691.6" x2="3187.8" y2="691.6"/>
<line class="st1" x1="3182.8" y1="691.6" x2="3177.8" y2="691.6"/>
<line class="st1" x1="3172.8" y1="691.6" x2="3167.8" y2="691.6"/>
<line class="st1" x1="3162.8" y1="691.6" x2="3157.8" y2="691.6"/>
<line class="st1" x1="3152.8" y1="691.6" x2="3147.8" y2="691.6"/>
<line class="st1" x1="3142.8" y1="691.6" x2="3137.8" y2="691.6"/>
<line class="st1" x1="3132.8" y1="691.6" x2="3127.8" y2="691.6"/>
<line class="st1" x1="3122.8" y1="691.6" x2="3117.8" y2="691.6"/>
<line class="st1" x1="3112.8" y1="691.6" x2="3107.8" y2="691.6"/>
<line class="st1" x1="3102.8" y1="691.6" x2="3097.8" y2="691.6"/>
<line class="st1" x1="3092.8" y1="691.6" x2="3087.8" y2="691.6"/>
<line class="st1" x1="3082.8" y1="691.6" x2="3077.8" y2="691.6"/>
<line class="st1" x1="3072.8" y1="691.6" x2="3067.8" y2="691.6"/>
<line class="st1" x1="3062.8" y1="691.6" x2="3057.8" y2="691.6"/>
<line class="st1" x1="3052.8" y1="691.6" x2="3047.8" y2="691.6"/>
<line class="st1" x1="3042.8" y1="691.6" x2="3037.8" y2="691.6"/>
<line class="st1" x1="3032.8" y1="691.6" x2="3027.8" y2="691.6"/>
<line class="st1" x1="3022.8" y1="691.6" x2="3017.8" y2="691.6"/>
<line class="st1" x1="3012.8" y1="691.6" x2="3007.8" y2="691.6"/>
<line class="st1" x1="3002.8" y1="691.6" x2="2997.8" y2="691.6"/>
<line class="st1" x1="2992.8" y1="691.6" x2="2987.8" y2="691.6"/>
<line class="st1" x1="2982.8" y1="691.6" x2="2977.8" y2="691.6"/>
<line class="st1" x1="2972.8" y1="691.6" x2="2967.8" y2="691.6"/>
<line class="st1" x1="2962.8" y1="691.6" x2="2957.8" y2="691.6"/>
<line class="st1" x1="2952.8" y1="691.6" x2="2947.8" y2="691.6"/>
<line class="st1" x1="2957.8" y1="684.6" x2="2945.8" y2="691.6"/>
<line class="st1" x1="2957.8" y1="698.6" x2="2945.8" y2="691.6"/>
<text transform="matrix(1 0 0 1 3186.1145 686.6089)" class="st2 st3">Réponse positive ou négative</text>
<rect x="2213.8" y="527.6" class="st0" width="189" height="18"/>
<rect x="2213.8" y="527.6" class="st1" width="188" height="17"/>
<text transform="matrix(1 0 0 1 2214.8352 541.6089)" class="st2 st3">jusqu&apos;à avoir une réponse positive</text>
<line class="st1" x1="2925.8" y1="775.6" x2="2633.8" y2="775.6"/>
<line class="st1" x1="2645.8" y1="768.6" x2="2633.8" y2="775.6"/>
<line class="st1" x1="2645.8" y1="782.6" x2="2633.8" y2="775.6"/>
<text transform="matrix(1 0 0 1 2709.2092 770.6089)" class="st2 st3">Transmission du lieu d&apos;accueil</text>
<line class="st1" x1="2633.8" y1="823.6" x2="3249.8" y2="823.6"/>
<line class="st1" x1="3237.8" y1="830.6" x2="3249.8" y2="823.6"/>
<line class="st1" x1="3237.8" y1="816.6" x2="3249.8" y2="823.6"/>
<text transform="matrix(1 0 0 1 2845.8352 818.6089)" class="st2 st3">Transmission du lieu d&apos;accueil</text>
<polygon class="st4" points="3542.8,651.6 3530.8,658.6 3530.8,644.6 "/>
<polygon class="st1" points="3542.8,651.6 3530.8,658.6 3530.8,644.6 "/>
<text transform="matrix(1 0 0 1 3318.1086 646.6089)" class="st2 st3">Vérification de la disponibilité du lieu</text>
<line class="st1" x1="3269.8" y1="839.6" x2="3542.8" y2="839.6"/>
<polygon class="st4" points="3542.8,839.6 3530.8,846.6 3530.8,832.6 "/>
<polygon class="st1" points="3542.8,839.6 3530.8,846.6 3530.8,832.6 "/>
<text transform="matrix(1 0 0 1 3385.1487 834.6089)" class="st2 st3">Évacuation</text>
<line class="st1" x1="3268.8" y1="651.6" x2="3541.8" y2="651.6"/>
</svg>
