<?xml version="1.0" encoding="utf-8"?>
<!-- Generator: Adobe Illustrator 19.0.0, SVG Export Plug-In . SVG Version: 6.00 Build 0)  -->
<svg version="1.1" id="Calque_1" xmlns="http://www.w3.org/2000/svg" xmlns:xlink="http://www.w3.org/1999/xlink" x="0px" y="0px"
	 viewBox="608 -154.2 1500.9 589.7" style="enable-background:new 608 -154.2 1500.9 589.7;" xml:space="preserve">
<style type="text/css">
	.st0{fill:#FFFFFF;stroke:#FFFFFF;}
	.st1{fill:none;stroke:#000000;}
	.st2{font-family:'ArialMT';}
	.st3{font-size:12px;}
	.st4{stroke:#000000;}
</style>
<g>
	<rect x="636.5" y="46.6" class="st0" width="1432" height="216"/>
	<rect x="636.5" y="46.6" class="st1" width="1432" height="216"/>
	<line class="st1" x1="755.5" y1="-126.4" x2="755.5" y2="-121.4"/>
	<line class="st1" x1="755.5" y1="-116.4" x2="755.5" y2="-111.4"/>
	<line class="st1" x1="755.5" y1="-106.4" x2="755.5" y2="-101.4"/>
	<line class="st1" x1="755.5" y1="-96.4" x2="755.5" y2="-91.4"/>
	<line class="st1" x1="755.5" y1="-86.4" x2="755.5" y2="-81.4"/>
	<line class="st1" x1="755.5" y1="-76.4" x2="755.5" y2="-71.4"/>
	<line class="st1" x1="755.5" y1="-66.4" x2="755.5" y2="-61.4"/>
	<line class="st1" x1="755.5" y1="-56.4" x2="755.5" y2="-51.4"/>
	<line class="st1" x1="755.5" y1="-46.4" x2="755.5" y2="-41.4"/>
	<line class="st1" x1="755.5" y1="-36.4" x2="755.5" y2="-31.4"/>
	<line class="st1" x1="755.5" y1="-26.4" x2="755.5" y2="-21.4"/>
	<line class="st1" x1="755.5" y1="-16.4" x2="755.5" y2="-11.4"/>
	<line class="st1" x1="755.5" y1="-6.4" x2="755.5" y2="-1.4"/>
	<line class="st1" x1="755.5" y1="3.6" x2="755.5" y2="8.6"/>
	<line class="st1" x1="755.5" y1="13.6" x2="755.5" y2="18.6"/>
	<line class="st1" x1="755.5" y1="23.6" x2="755.5" y2="28.6"/>
	<line class="st1" x1="755.5" y1="33.6" x2="755.5" y2="38.6"/>
	<line class="st1" x1="755.5" y1="43.6" x2="755.5" y2="48.6"/>
	<line class="st1" x1="755.5" y1="53.6" x2="755.5" y2="58.6"/>
	<line class="st1" x1="755.5" y1="63.6" x2="755.5" y2="68.6"/>
	<line class="st1" x1="755.5" y1="73.6" x2="755.5" y2="78.6"/>
	<line class="st1" x1="755.5" y1="83.6" x2="755.5" y2="88.6"/>
	<line class="st1" x1="755.5" y1="93.6" x2="755.5" y2="98.6"/>
	<line class="st1" x1="755.5" y1="103.6" x2="755.5" y2="108.6"/>
	<line class="st1" x1="755.5" y1="113.6" x2="755.5" y2="118.6"/>
	<line class="st1" x1="755.5" y1="123.6" x2="755.5" y2="128.6"/>
	<line class="st1" x1="755.5" y1="133.6" x2="755.5" y2="138.6"/>
	<line class="st1" x1="755.5" y1="143.6" x2="755.5" y2="148.6"/>
	<line class="st1" x1="755.5" y1="153.6" x2="755.5" y2="158.6"/>
	<line class="st1" x1="755.5" y1="163.6" x2="755.5" y2="168.6"/>
	<line class="st1" x1="755.5" y1="173.6" x2="755.5" y2="178.6"/>
	<line class="st1" x1="755.5" y1="183.6" x2="755.5" y2="188.6"/>
	<line class="st1" x1="755.5" y1="193.6" x2="755.5" y2="198.6"/>
	<line class="st1" x1="755.5" y1="203.6" x2="755.5" y2="208.6"/>
	<line class="st1" x1="755.5" y1="213.6" x2="755.5" y2="218.6"/>
	<line class="st1" x1="755.5" y1="223.6" x2="755.5" y2="228.6"/>
	<line class="st1" x1="755.5" y1="233.6" x2="755.5" y2="238.6"/>
	<line class="st1" x1="755.5" y1="243.6" x2="755.5" y2="248.6"/>
	<line class="st1" x1="755.5" y1="253.6" x2="755.5" y2="258.6"/>
	<line class="st1" x1="755.5" y1="263.6" x2="755.5" y2="268.6"/>
	<line class="st1" x1="755.5" y1="273.6" x2="755.5" y2="278.6"/>
	<line class="st1" x1="755.5" y1="283.6" x2="755.5" y2="288.6"/>
	<line class="st1" x1="755.5" y1="293.6" x2="755.5" y2="298.6"/>
	<line class="st1" x1="755.5" y1="303.6" x2="755.5" y2="308.6"/>
	<line class="st1" x1="755.5" y1="313.6" x2="755.5" y2="318.6"/>
	<line class="st1" x1="755.5" y1="323.6" x2="755.5" y2="328.6"/>
	<line class="st1" x1="755.5" y1="333.6" x2="755.5" y2="338.6"/>
	<line class="st1" x1="755.5" y1="343.6" x2="755.5" y2="348.6"/>
	<line class="st1" x1="755.5" y1="353.6" x2="755.5" y2="358.6"/>
	<line class="st1" x1="755.5" y1="363.6" x2="755.5" y2="368.6"/>
	<line class="st1" x1="755.5" y1="373.6" x2="755.5" y2="378.6"/>
	<line class="st1" x1="755.5" y1="383.6" x2="755.5" y2="388.6"/>
	<line class="st1" x1="755.5" y1="393.6" x2="755.5" y2="398.6"/>
	<line class="st1" x1="755.5" y1="403.6" x2="755.5" y2="408.6"/>
	<line class="st1" x1="755.5" y1="413.6" x2="755.5" y2="415.6"/>
	<rect x="745.5" y="-103.9" class="st0" width="20" height="519.5"/>
	<rect x="745.5" y="-107.4" class="st1" width="20" height="523"/>
	<rect x="660.5" y="-134.4" class="st0" width="191" height="50"/>
	<rect x="660.5" y="-134.4" class="st1" width="191" height="50"/>
	<text transform="matrix(1 0 0 1 676.4852 -120.3811)" class="st2 st3">:Système d&apos;information du 15</text>
	<line class="st1" x1="1046.4" y1="-126.4" x2="1046.4" y2="-121.4"/>
	<line class="st1" x1="1046.4" y1="-116.4" x2="1046.4" y2="-111.4"/>
	<line class="st1" x1="1046.4" y1="-106.4" x2="1046.4" y2="-101.4"/>
	<line class="st1" x1="1046.4" y1="-96.4" x2="1046.4" y2="-91.4"/>
	<line class="st1" x1="1046.4" y1="-86.4" x2="1046.4" y2="-81.4"/>
	<line class="st1" x1="1046.4" y1="-76.4" x2="1046.4" y2="-71.4"/>
	<line class="st1" x1="1046.4" y1="-66.4" x2="1046.4" y2="-61.4"/>
	<line class="st1" x1="1046.4" y1="-56.4" x2="1046.4" y2="-51.4"/>
	<line class="st1" x1="1046.4" y1="-46.4" x2="1046.4" y2="-41.4"/>
	<line class="st1" x1="1046.4" y1="-36.4" x2="1046.4" y2="-31.4"/>
	<line class="st1" x1="1046.4" y1="-26.4" x2="1046.4" y2="-21.4"/>
	<line class="st1" x1="1046.4" y1="-16.4" x2="1046.4" y2="-11.4"/>
	<line class="st1" x1="1046.4" y1="-6.4" x2="1046.4" y2="-1.4"/>
	<line class="st1" x1="1046.4" y1="3.6" x2="1046.4" y2="8.6"/>
	<line class="st1" x1="1046.4" y1="13.6" x2="1046.4" y2="18.6"/>
	<line class="st1" x1="1046.4" y1="23.6" x2="1046.4" y2="28.6"/>
	<line class="st1" x1="1046.4" y1="33.6" x2="1046.4" y2="38.6"/>
	<line class="st1" x1="1046.4" y1="43.6" x2="1046.4" y2="48.6"/>
	<line class="st1" x1="1046.4" y1="53.6" x2="1046.4" y2="58.6"/>
	<line class="st1" x1="1046.4" y1="63.6" x2="1046.4" y2="68.6"/>
	<line class="st1" x1="1046.4" y1="73.6" x2="1046.4" y2="78.6"/>
	<line class="st1" x1="1046.4" y1="83.6" x2="1046.4" y2="88.6"/>
	<line class="st1" x1="1046.4" y1="93.6" x2="1046.4" y2="98.6"/>
	<line class="st1" x1="1046.4" y1="103.6" x2="1046.4" y2="108.6"/>
	<line class="st1" x1="1046.4" y1="113.6" x2="1046.4" y2="118.6"/>
	<line class="st1" x1="1046.4" y1="123.6" x2="1046.4" y2="128.6"/>
	<line class="st1" x1="1046.4" y1="133.6" x2="1046.4" y2="138.6"/>
	<line class="st1" x1="1046.4" y1="143.6" x2="1046.4" y2="148.6"/>
	<line class="st1" x1="1046.4" y1="153.6" x2="1046.4" y2="158.6"/>
	<line class="st1" x1="1046.4" y1="163.6" x2="1046.4" y2="168.6"/>
	<line class="st1" x1="1046.4" y1="173.6" x2="1046.4" y2="178.6"/>
	<line class="st1" x1="1046.4" y1="183.6" x2="1046.4" y2="188.6"/>
	<line class="st1" x1="1046.4" y1="193.6" x2="1046.4" y2="198.6"/>
	<line class="st1" x1="1046.4" y1="203.6" x2="1046.4" y2="208.6"/>
	<line class="st1" x1="1046.4" y1="213.6" x2="1046.4" y2="218.6"/>
	<line class="st1" x1="1046.4" y1="223.6" x2="1046.4" y2="228.6"/>
	<line class="st1" x1="1046.4" y1="233.6" x2="1046.4" y2="238.6"/>
	<line class="st1" x1="1046.4" y1="243.6" x2="1046.4" y2="248.6"/>
	<line class="st1" x1="1046.4" y1="253.6" x2="1046.4" y2="258.6"/>
	<line class="st1" x1="1046.4" y1="263.6" x2="1046.4" y2="268.6"/>
	<line class="st1" x1="1046.4" y1="273.6" x2="1046.4" y2="278.6"/>
	<line class="st1" x1="1046.4" y1="283.6" x2="1046.4" y2="288.6"/>
	<line class="st1" x1="1046.4" y1="293.6" x2="1046.4" y2="298.6"/>
	<line class="st1" x1="1046.4" y1="303.6" x2="1046.4" y2="308.6"/>
	<line class="st1" x1="1046.4" y1="313.6" x2="1046.4" y2="318.6"/>
	<line class="st1" x1="1046.4" y1="323.6" x2="1046.4" y2="328.6"/>
	<line class="st1" x1="1046.4" y1="333.6" x2="1046.4" y2="338.6"/>
	<line class="st1" x1="1046.4" y1="343.6" x2="1046.4" y2="348.6"/>
	<line class="st1" x1="1046.4" y1="353.6" x2="1046.4" y2="358.6"/>
	<line class="st1" x1="1046.4" y1="363.6" x2="1046.4" y2="368.6"/>
	<line class="st1" x1="1046.4" y1="373.6" x2="1046.4" y2="378.6"/>
	<line class="st1" x1="1046.4" y1="383.6" x2="1046.4" y2="388.6"/>
	<line class="st1" x1="1046.4" y1="393.6" x2="1046.4" y2="398.6"/>
	<line class="st1" x1="1046.4" y1="403.6" x2="1046.4" y2="408.6"/>
	<line class="st1" x1="1046.4" y1="413.6" x2="1046.4" y2="415.6"/>
	<rect x="1036.4" y="-106.4" class="st0" width="20" height="522"/>
	<rect x="1036.4" y="-106.4" class="st1" width="20" height="522"/>
	<rect x="938.5" y="-134.4" class="st0" width="216" height="50"/>
	<rect x="938.5" y="-134.4" class="st1" width="216" height="50"/>
	<text transform="matrix(1 0 0 1 963.4852 -120.3811)" class="st2 st3">:ARM Gestionnaire de moyens</text>
	<line class="st1" x1="1358.4" y1="-126.4" x2="1358.4" y2="-121.4"/>
	<line class="st1" x1="1358.4" y1="-116.4" x2="1358.4" y2="-111.4"/>
	<line class="st1" x1="1358.4" y1="-106.4" x2="1358.4" y2="-101.4"/>
	<line class="st1" x1="1358.4" y1="-96.4" x2="1358.4" y2="-91.4"/>
	<line class="st1" x1="1358.4" y1="-86.4" x2="1358.4" y2="-81.4"/>
	<line class="st1" x1="1358.4" y1="-76.4" x2="1358.4" y2="-71.4"/>
	<line class="st1" x1="1358.4" y1="-66.4" x2="1358.4" y2="-61.4"/>
	<line class="st1" x1="1358.4" y1="-56.4" x2="1358.4" y2="-51.4"/>
	<line class="st1" x1="1358.4" y1="-46.4" x2="1358.4" y2="-41.4"/>
	<line class="st1" x1="1358.4" y1="-36.4" x2="1358.4" y2="-31.4"/>
	<line class="st1" x1="1358.4" y1="-26.4" x2="1358.4" y2="-21.4"/>
	<line class="st1" x1="1358.4" y1="-16.4" x2="1358.4" y2="-11.4"/>
	<line class="st1" x1="1358.4" y1="-6.4" x2="1358.4" y2="-1.4"/>
	<line class="st1" x1="1358.4" y1="3.6" x2="1358.4" y2="8.6"/>
	<line class="st1" x1="1358.4" y1="13.6" x2="1358.4" y2="18.6"/>
	<line class="st1" x1="1358.4" y1="23.6" x2="1358.4" y2="28.6"/>
	<line class="st1" x1="1358.4" y1="33.6" x2="1358.4" y2="38.6"/>
	<line class="st1" x1="1358.4" y1="43.6" x2="1358.4" y2="48.6"/>
	<line class="st1" x1="1358.4" y1="53.6" x2="1358.4" y2="58.6"/>
	<line class="st1" x1="1358.4" y1="63.6" x2="1358.4" y2="68.6"/>
	<line class="st1" x1="1358.4" y1="73.6" x2="1358.4" y2="78.6"/>
	<line class="st1" x1="1358.4" y1="83.6" x2="1358.4" y2="88.6"/>
	<line class="st1" x1="1358.4" y1="93.6" x2="1358.4" y2="98.6"/>
	<line class="st1" x1="1358.4" y1="103.6" x2="1358.4" y2="108.6"/>
	<line class="st1" x1="1358.4" y1="113.6" x2="1358.4" y2="118.6"/>
	<line class="st1" x1="1358.4" y1="123.6" x2="1358.4" y2="128.6"/>
	<line class="st1" x1="1358.4" y1="133.6" x2="1358.4" y2="138.6"/>
	<line class="st1" x1="1358.4" y1="143.6" x2="1358.4" y2="148.6"/>
	<line class="st1" x1="1358.4" y1="153.6" x2="1358.4" y2="158.6"/>
	<line class="st1" x1="1358.4" y1="163.6" x2="1358.4" y2="168.6"/>
	<line class="st1" x1="1358.4" y1="173.6" x2="1358.4" y2="178.6"/>
	<line class="st1" x1="1358.4" y1="183.6" x2="1358.4" y2="188.6"/>
	<line class="st1" x1="1358.4" y1="193.6" x2="1358.4" y2="198.6"/>
	<line class="st1" x1="1358.4" y1="203.6" x2="1358.4" y2="208.6"/>
	<line class="st1" x1="1358.4" y1="213.6" x2="1358.4" y2="218.6"/>
	<line class="st1" x1="1358.4" y1="223.6" x2="1358.4" y2="228.6"/>
	<line class="st1" x1="1358.4" y1="233.6" x2="1358.4" y2="238.6"/>
	<line class="st1" x1="1358.4" y1="243.6" x2="1358.4" y2="248.6"/>
	<line class="st1" x1="1358.4" y1="253.6" x2="1358.4" y2="258.6"/>
	<line class="st1" x1="1358.4" y1="263.6" x2="1358.4" y2="268.6"/>
	<line class="st1" x1="1358.4" y1="273.6" x2="1358.4" y2="278.6"/>
	<line class="st1" x1="1358.4" y1="283.6" x2="1358.4" y2="288.6"/>
	<line class="st1" x1="1358.4" y1="293.6" x2="1358.4" y2="298.6"/>
	<line class="st1" x1="1358.4" y1="303.6" x2="1358.4" y2="308.6"/>
	<line class="st1" x1="1358.4" y1="313.6" x2="1358.4" y2="318.6"/>
	<line class="st1" x1="1358.4" y1="323.6" x2="1358.4" y2="328.6"/>
	<line class="st1" x1="1358.4" y1="333.6" x2="1358.4" y2="338.6"/>
	<line class="st1" x1="1358.4" y1="343.6" x2="1358.4" y2="348.6"/>
	<line class="st1" x1="1358.4" y1="353.6" x2="1358.4" y2="358.6"/>
	<line class="st1" x1="1358.4" y1="363.6" x2="1358.4" y2="368.6"/>
	<line class="st1" x1="1358.4" y1="373.6" x2="1358.4" y2="378.6"/>
	<line class="st1" x1="1358.4" y1="383.6" x2="1358.4" y2="388.6"/>
	<line class="st1" x1="1358.4" y1="393.6" x2="1358.4" y2="398.6"/>
	<line class="st1" x1="1358.4" y1="403.6" x2="1358.4" y2="408.6"/>
	<line class="st1" x1="1358.4" y1="413.6" x2="1358.4" y2="415.6"/>
	<rect x="1348.4" y="-103.4" class="st0" width="20" height="519"/>
	<rect x="1348.4" y="-109.4" class="st1" width="20" height="525"/>
	<rect x="1283.4" y="-134.4" class="st0" width="150" height="50"/>
	<rect x="1283.4" y="-134.4" class="st1" width="150" height="50"/>
	<text transform="matrix(1 0 0 1 1304.4851 -120.3811)" class="st2 st3">:Médecin régulateur</text>
	<line class="st1" x1="1682.4" y1="-126.4" x2="1682.4" y2="-121.4"/>
	<line class="st1" x1="1682.4" y1="-116.4" x2="1682.4" y2="-111.4"/>
	<line class="st1" x1="1682.4" y1="-106.4" x2="1682.4" y2="-101.4"/>
	<line class="st1" x1="1682.4" y1="-96.4" x2="1682.4" y2="-91.4"/>
	<line class="st1" x1="1682.4" y1="-86.4" x2="1682.4" y2="-81.4"/>
	<line class="st1" x1="1682.4" y1="-76.4" x2="1682.4" y2="-71.4"/>
	<line class="st1" x1="1682.4" y1="-66.4" x2="1682.4" y2="-61.4"/>
	<line class="st1" x1="1682.4" y1="-56.4" x2="1682.4" y2="-51.4"/>
	<line class="st1" x1="1682.4" y1="-46.4" x2="1682.4" y2="-41.4"/>
	<line class="st1" x1="1682.4" y1="-36.4" x2="1682.4" y2="-31.4"/>
	<line class="st1" x1="1682.4" y1="-26.4" x2="1682.4" y2="-21.4"/>
	<line class="st1" x1="1682.4" y1="-16.4" x2="1682.4" y2="-11.4"/>
	<line class="st1" x1="1682.4" y1="-6.4" x2="1682.4" y2="-1.4"/>
	<line class="st1" x1="1682.4" y1="3.6" x2="1682.4" y2="8.6"/>
	<line class="st1" x1="1682.4" y1="13.6" x2="1682.4" y2="18.6"/>
	<line class="st1" x1="1682.4" y1="23.6" x2="1682.4" y2="28.6"/>
	<line class="st1" x1="1682.4" y1="33.6" x2="1682.4" y2="38.6"/>
	<line class="st1" x1="1682.4" y1="43.6" x2="1682.4" y2="48.6"/>
	<line class="st1" x1="1682.4" y1="53.6" x2="1682.4" y2="58.6"/>
	<line class="st1" x1="1682.4" y1="63.6" x2="1682.4" y2="68.6"/>
	<line class="st1" x1="1682.4" y1="73.6" x2="1682.4" y2="78.6"/>
	<line class="st1" x1="1682.4" y1="83.6" x2="1682.4" y2="88.6"/>
	<line class="st1" x1="1682.4" y1="93.6" x2="1682.4" y2="98.6"/>
	<line class="st1" x1="1682.4" y1="103.6" x2="1682.4" y2="108.6"/>
	<line class="st1" x1="1682.4" y1="113.6" x2="1682.4" y2="118.6"/>
	<line class="st1" x1="1682.4" y1="123.6" x2="1682.4" y2="128.6"/>
	<line class="st1" x1="1682.4" y1="133.6" x2="1682.4" y2="138.6"/>
	<line class="st1" x1="1682.4" y1="143.6" x2="1682.4" y2="148.6"/>
	<line class="st1" x1="1682.4" y1="153.6" x2="1682.4" y2="158.6"/>
	<line class="st1" x1="1682.4" y1="163.6" x2="1682.4" y2="168.6"/>
	<line class="st1" x1="1682.4" y1="173.6" x2="1682.4" y2="178.6"/>
	<line class="st1" x1="1682.4" y1="183.6" x2="1682.4" y2="188.6"/>
	<line class="st1" x1="1682.4" y1="193.6" x2="1682.4" y2="198.6"/>
	<line class="st1" x1="1682.4" y1="203.6" x2="1682.4" y2="208.6"/>
	<line class="st1" x1="1682.4" y1="213.6" x2="1682.4" y2="218.6"/>
	<line class="st1" x1="1682.4" y1="223.6" x2="1682.4" y2="228.6"/>
	<line class="st1" x1="1682.4" y1="233.6" x2="1682.4" y2="238.6"/>
	<line class="st1" x1="1682.4" y1="243.6" x2="1682.4" y2="248.6"/>
	<line class="st1" x1="1682.4" y1="253.6" x2="1682.4" y2="258.6"/>
	<line class="st1" x1="1682.4" y1="263.6" x2="1682.4" y2="268.6"/>
	<line class="st1" x1="1682.4" y1="273.6" x2="1682.4" y2="278.6"/>
	<line class="st1" x1="1682.4" y1="283.6" x2="1682.4" y2="288.6"/>
	<line class="st1" x1="1682.4" y1="293.6" x2="1682.4" y2="298.6"/>
	<line class="st1" x1="1682.4" y1="303.6" x2="1682.4" y2="308.6"/>
	<line class="st1" x1="1682.4" y1="313.6" x2="1682.4" y2="318.6"/>
	<line class="st1" x1="1682.4" y1="323.6" x2="1682.4" y2="328.6"/>
	<line class="st1" x1="1682.4" y1="333.6" x2="1682.4" y2="338.6"/>
	<line class="st1" x1="1682.4" y1="343.6" x2="1682.4" y2="348.6"/>
	<line class="st1" x1="1682.4" y1="353.6" x2="1682.4" y2="358.6"/>
	<line class="st1" x1="1682.4" y1="363.6" x2="1682.4" y2="368.6"/>
	<line class="st1" x1="1682.4" y1="373.6" x2="1682.4" y2="378.6"/>
	<line class="st1" x1="1682.4" y1="383.6" x2="1682.4" y2="388.6"/>
	<line class="st1" x1="1682.4" y1="393.6" x2="1682.4" y2="398.6"/>
	<line class="st1" x1="1682.4" y1="403.6" x2="1682.4" y2="408.6"/>
	<line class="st1" x1="1682.4" y1="413.6" x2="1682.4" y2="414.6"/>
	<rect x="1672.4" y="-101.4" class="st0" width="20" height="516"/>
	<rect x="1672.4" y="-101.4" class="st1" width="20" height="516"/>
	<rect x="1607.4" y="-134.4" class="st0" width="150" height="50"/>
	<rect x="1607.4" y="-134.4" class="st1" width="150" height="50"/>
	<text transform="matrix(1 0 0 1 1657.4851 -120.3811)" class="st2 st3">:Secours</text>
	<line class="st1" x1="1975.4" y1="-126.4" x2="1975.4" y2="-121.4"/>
	<line class="st1" x1="1975.4" y1="-116.4" x2="1975.4" y2="-111.4"/>
	<line class="st1" x1="1975.4" y1="-106.4" x2="1975.4" y2="-101.4"/>
	<line class="st1" x1="1975.4" y1="-96.4" x2="1975.4" y2="-91.4"/>
	<line class="st1" x1="1975.4" y1="-86.4" x2="1975.4" y2="-81.4"/>
	<line class="st1" x1="1975.4" y1="-76.4" x2="1975.4" y2="-71.4"/>
	<line class="st1" x1="1975.4" y1="-66.4" x2="1975.4" y2="-61.4"/>
	<line class="st1" x1="1975.4" y1="-56.4" x2="1975.4" y2="-51.4"/>
	<line class="st1" x1="1975.4" y1="-46.4" x2="1975.4" y2="-41.4"/>
	<line class="st1" x1="1975.4" y1="-36.4" x2="1975.4" y2="-31.4"/>
	<line class="st1" x1="1975.4" y1="-26.4" x2="1975.4" y2="-21.4"/>
	<line class="st1" x1="1975.4" y1="-16.4" x2="1975.4" y2="-11.4"/>
	<line class="st1" x1="1975.4" y1="-6.4" x2="1975.4" y2="-1.4"/>
	<line class="st1" x1="1975.4" y1="3.6" x2="1975.4" y2="8.6"/>
	<line class="st1" x1="1975.4" y1="13.6" x2="1975.4" y2="18.6"/>
	<line class="st1" x1="1975.4" y1="23.6" x2="1975.4" y2="28.6"/>
	<line class="st1" x1="1975.4" y1="33.6" x2="1975.4" y2="38.6"/>
	<line class="st1" x1="1975.4" y1="43.6" x2="1975.4" y2="48.6"/>
	<line class="st1" x1="1975.4" y1="53.6" x2="1975.4" y2="58.6"/>
	<line class="st1" x1="1975.4" y1="63.6" x2="1975.4" y2="68.6"/>
	<line class="st1" x1="1975.4" y1="73.6" x2="1975.4" y2="78.6"/>
	<line class="st1" x1="1975.4" y1="83.6" x2="1975.4" y2="88.6"/>
	<line class="st1" x1="1975.4" y1="93.6" x2="1975.4" y2="98.6"/>
	<line class="st1" x1="1975.4" y1="103.6" x2="1975.4" y2="108.6"/>
	<line class="st1" x1="1975.4" y1="113.6" x2="1975.4" y2="118.6"/>
	<line class="st1" x1="1975.4" y1="123.6" x2="1975.4" y2="128.6"/>
	<line class="st1" x1="1975.4" y1="133.6" x2="1975.4" y2="138.6"/>
	<line class="st1" x1="1975.4" y1="143.6" x2="1975.4" y2="148.6"/>
	<line class="st1" x1="1975.4" y1="153.6" x2="1975.4" y2="158.6"/>
	<line class="st1" x1="1975.4" y1="163.6" x2="1975.4" y2="168.6"/>
	<line class="st1" x1="1975.4" y1="173.6" x2="1975.4" y2="178.6"/>
	<line class="st1" x1="1975.4" y1="183.6" x2="1975.4" y2="188.6"/>
	<line class="st1" x1="1975.4" y1="193.6" x2="1975.4" y2="198.6"/>
	<line class="st1" x1="1975.4" y1="203.6" x2="1975.4" y2="208.6"/>
	<line class="st1" x1="1975.4" y1="213.6" x2="1975.4" y2="218.6"/>
	<line class="st1" x1="1975.4" y1="223.6" x2="1975.4" y2="228.6"/>
	<line class="st1" x1="1975.4" y1="233.6" x2="1975.4" y2="238.6"/>
	<line class="st1" x1="1975.4" y1="243.6" x2="1975.4" y2="248.6"/>
	<line class="st1" x1="1975.4" y1="253.6" x2="1975.4" y2="258.6"/>
	<line class="st1" x1="1975.4" y1="263.6" x2="1975.4" y2="268.6"/>
	<line class="st1" x1="1975.4" y1="273.6" x2="1975.4" y2="278.6"/>
	<line class="st1" x1="1975.4" y1="283.6" x2="1975.4" y2="288.6"/>
	<line class="st1" x1="1975.4" y1="293.6" x2="1975.4" y2="298.6"/>
	<line class="st1" x1="1975.4" y1="303.6" x2="1975.4" y2="308.6"/>
	<line class="st1" x1="1975.4" y1="313.6" x2="1975.4" y2="318.6"/>
	<line class="st1" x1="1975.4" y1="323.6" x2="1975.4" y2="328.6"/>
	<line class="st1" x1="1975.4" y1="333.6" x2="1975.4" y2="338.6"/>
	<line class="st1" x1="1975.4" y1="343.6" x2="1975.4" y2="348.6"/>
	<line class="st1" x1="1975.4" y1="353.6" x2="1975.4" y2="358.6"/>
	<line class="st1" x1="1975.4" y1="363.6" x2="1975.4" y2="368.6"/>
	<line class="st1" x1="1975.4" y1="373.6" x2="1975.4" y2="378.6"/>
	<line class="st1" x1="1975.4" y1="383.6" x2="1975.4" y2="388.6"/>
	<line class="st1" x1="1975.4" y1="393.6" x2="1975.4" y2="398.6"/>
	<line class="st1" x1="1975.4" y1="403.6" x2="1975.4" y2="408.6"/>
	<line class="st1" x1="1975.4" y1="413.6" x2="1975.4" y2="414.6"/>
	<rect x="1965.4" y="170.6" class="st0" width="20" height="40"/>
	<rect x="1965.4" y="170.6" class="st1" width="20" height="40"/>
	<rect x="1965.4" y="358.6" class="st0" width="20" height="56"/>
	<rect x="1965.4" y="358.6" class="st1" width="20" height="56"/>
	<rect x="1900.4" y="-134.4" class="st0" width="150" height="50"/>
	<rect x="1900.4" y="-134.4" class="st1" width="150" height="50"/>
	<text transform="matrix(1 0 0 1 1923.4851 -120.3811)" class="st2 st3">:Structure d&apos;accueil</text>
	<line class="st1" x1="1672.4" y1="-29.4" x2="1056.4" y2="-29.4"/>
	<line class="st1" x1="1068.4" y1="-36.4" x2="1056.4" y2="-29.4"/>
	<line class="st1" x1="1068.4" y1="-22.4" x2="1056.4" y2="-29.4"/>
	<text transform="matrix(1 0 0 1 1216.4851 -34.3811)" class="st2 st3">Envoi du bilan (et d&apos;une demande de renfort si besoin)</text>
	<line class="st1" x1="1056.4" y1="10.6" x2="1348.4" y2="10.6"/>
	<line class="st1" x1="1336.4" y1="17.6" x2="1348.4" y2="10.6"/>
	<line class="st1" x1="1336.4" y1="3.6" x2="1348.4" y2="10.6"/>
	<text transform="matrix(1 0 0 1 1153.3484 5.6189)" class="st2 st3">Transmission du bilan</text>
	<line class="st1" x1="1348.4" y1="98.6" x2="765.5" y2="98.6"/>
	<line class="st1" x1="777.5" y1="91.6" x2="765.5" y2="98.6"/>
	<line class="st1" x1="777.5" y1="105.6" x2="765.5" y2="98.6"/>
	<text transform="matrix(1 0 0 1 960.8133 92.6189)" class="st2 st3">Recherche d&apos;un lieu d&apos;accueil</text>
	<line class="st1" x1="765.5" y1="138.6" x2="770.5" y2="138.6"/>
	<line class="st1" x1="775.5" y1="138.6" x2="780.5" y2="138.6"/>
	<line class="st1" x1="785.5" y1="138.6" x2="790.5" y2="138.6"/>
	<line class="st1" x1="795.5" y1="138.6" x2="800.5" y2="138.6"/>
	<line class="st1" x1="805.5" y1="138.6" x2="810.5" y2="138.6"/>
	<line class="st1" x1="815.5" y1="138.6" x2="820.5" y2="138.6"/>
	<line class="st1" x1="825.5" y1="138.6" x2="830.5" y2="138.6"/>
	<line class="st1" x1="835.5" y1="138.6" x2="840.5" y2="138.6"/>
	<line class="st1" x1="845.5" y1="138.6" x2="850.5" y2="138.6"/>
	<line class="st1" x1="855.5" y1="138.6" x2="860.5" y2="138.6"/>
	<line class="st1" x1="865.5" y1="138.6" x2="870.5" y2="138.6"/>
	<line class="st1" x1="765.5" y1="138.6" x2="770.5" y2="138.6"/>
	<line class="st1" x1="775.5" y1="138.6" x2="780.5" y2="138.6"/>
	<line class="st1" x1="785.5" y1="138.6" x2="790.5" y2="138.6"/>
	<line class="st1" x1="795.5" y1="138.6" x2="800.5" y2="138.6"/>
	<line class="st1" x1="805.5" y1="138.6" x2="810.5" y2="138.6"/>
	<line class="st1" x1="815.5" y1="138.6" x2="820.5" y2="138.6"/>
	<line class="st1" x1="825.5" y1="138.6" x2="830.5" y2="138.6"/>
	<line class="st1" x1="835.5" y1="138.6" x2="840.5" y2="138.6"/>
	<line class="st1" x1="845.5" y1="138.6" x2="850.5" y2="138.6"/>
	<line class="st1" x1="855.5" y1="138.6" x2="860.5" y2="138.6"/>
	<line class="st1" x1="865.5" y1="138.6" x2="870.5" y2="138.6"/>
	<line class="st1" x1="875.5" y1="138.6" x2="880.5" y2="138.6"/>
	<line class="st1" x1="885.5" y1="138.6" x2="890.5" y2="138.6"/>
	<line class="st1" x1="895.5" y1="138.6" x2="900.5" y2="138.6"/>
	<line class="st1" x1="905.5" y1="138.6" x2="910.5" y2="138.6"/>
	<line class="st1" x1="915.5" y1="138.6" x2="920.5" y2="138.6"/>
	<line class="st1" x1="925.5" y1="138.6" x2="930.5" y2="138.6"/>
	<line class="st1" x1="935.5" y1="138.6" x2="940.5" y2="138.6"/>
	<line class="st1" x1="945.5" y1="138.6" x2="950.5" y2="138.6"/>
	<line class="st1" x1="955.5" y1="138.6" x2="960.5" y2="138.6"/>
	<line class="st1" x1="965.5" y1="138.6" x2="970.5" y2="138.6"/>
	<line class="st1" x1="975.5" y1="138.6" x2="980.5" y2="138.6"/>
	<line class="st1" x1="985.5" y1="138.6" x2="990.5" y2="138.6"/>
	<line class="st1" x1="995.5" y1="138.6" x2="1000.5" y2="138.6"/>
	<line class="st1" x1="1005.5" y1="138.6" x2="1010.5" y2="138.6"/>
	<line class="st1" x1="1015.5" y1="138.6" x2="1020.5" y2="138.6"/>
	<line class="st1" x1="1025.4" y1="138.6" x2="1030.4" y2="138.6"/>
	<line class="st1" x1="1035.4" y1="138.6" x2="1040.4" y2="138.6"/>
	<line class="st1" x1="1045.4" y1="138.6" x2="1050.4" y2="138.6"/>
	<line class="st1" x1="1055.4" y1="138.6" x2="1060.4" y2="138.6"/>
	<line class="st1" x1="1065.4" y1="138.6" x2="1070.4" y2="138.6"/>
	<line class="st1" x1="1075.4" y1="138.6" x2="1080.4" y2="138.6"/>
	<line class="st1" x1="1085.4" y1="138.6" x2="1090.4" y2="138.6"/>
	<line class="st1" x1="1095.4" y1="138.6" x2="1100.4" y2="138.6"/>
	<line class="st1" x1="1105.4" y1="138.6" x2="1110.4" y2="138.6"/>
	<line class="st1" x1="1115.4" y1="138.6" x2="1120.4" y2="138.6"/>
	<line class="st1" x1="1125.4" y1="138.6" x2="1130.4" y2="138.6"/>
	<line class="st1" x1="1135.4" y1="138.6" x2="1140.4" y2="138.6"/>
	<line class="st1" x1="1145.4" y1="138.6" x2="1150.4" y2="138.6"/>
	<line class="st1" x1="1155.4" y1="138.6" x2="1160.4" y2="138.6"/>
	<line class="st1" x1="1165.4" y1="138.6" x2="1170.4" y2="138.6"/>
	<line class="st1" x1="1175.4" y1="138.6" x2="1180.4" y2="138.6"/>
	<line class="st1" x1="1185.4" y1="138.6" x2="1190.4" y2="138.6"/>
	<line class="st1" x1="1195.4" y1="138.6" x2="1200.4" y2="138.6"/>
	<line class="st1" x1="1205.4" y1="138.6" x2="1210.4" y2="138.6"/>
	<line class="st1" x1="1215.4" y1="138.6" x2="1220.4" y2="138.6"/>
	<line class="st1" x1="1225.4" y1="138.6" x2="1230.4" y2="138.6"/>
	<line class="st1" x1="1235.4" y1="138.6" x2="1240.4" y2="138.6"/>
	<line class="st1" x1="1245.4" y1="138.6" x2="1250.4" y2="138.6"/>
	<line class="st1" x1="1255.4" y1="138.6" x2="1260.4" y2="138.6"/>
	<line class="st1" x1="1265.4" y1="138.6" x2="1270.4" y2="138.6"/>
	<line class="st1" x1="1275.4" y1="138.6" x2="1280.4" y2="138.6"/>
	<line class="st1" x1="1285.4" y1="138.6" x2="1290.4" y2="138.6"/>
	<line class="st1" x1="1295.4" y1="138.6" x2="1300.4" y2="138.6"/>
	<line class="st1" x1="1305.4" y1="138.6" x2="1310.4" y2="138.6"/>
	<line class="st1" x1="1315.4" y1="138.6" x2="1320.4" y2="138.6"/>
	<line class="st1" x1="1325.4" y1="138.6" x2="1330.4" y2="138.6"/>
	<line class="st1" x1="1335.4" y1="138.6" x2="1340.4" y2="138.6"/>
	<line class="st1" x1="1345.4" y1="138.6" x2="1348.4" y2="138.6"/>
	<line class="st1" x1="1336.4" y1="145.6" x2="1348.4" y2="138.6"/>
	<line class="st1" x1="1336.4" y1="131.6" x2="1348.4" y2="138.6"/>
	<text transform="matrix(1 0 0 1 947.6238 131.6189)" class="st2 st3">Liste des lieux d&apos;accueil conseillés</text>
	<line class="st1" x1="1965.4" y1="210.6" x2="1960.4" y2="210.6"/>
	<line class="st1" x1="1955.4" y1="210.6" x2="1950.4" y2="210.6"/>
	<line class="st1" x1="1945.4" y1="210.6" x2="1940.4" y2="210.6"/>
	<line class="st1" x1="1935.4" y1="210.6" x2="1930.4" y2="210.6"/>
	<line class="st1" x1="1925.4" y1="210.6" x2="1920.4" y2="210.6"/>
	<line class="st1" x1="1915.4" y1="210.6" x2="1910.4" y2="210.6"/>
	<line class="st1" x1="1905.4" y1="210.6" x2="1900.4" y2="210.6"/>
	<line class="st1" x1="1895.4" y1="210.6" x2="1890.4" y2="210.6"/>
	<line class="st1" x1="1885.4" y1="210.6" x2="1880.4" y2="210.6"/>
	<line class="st1" x1="1875.4" y1="210.6" x2="1870.4" y2="210.6"/>
	<line class="st1" x1="1865.4" y1="210.6" x2="1860.4" y2="210.6"/>
	<line class="st1" x1="1855.4" y1="210.6" x2="1850.4" y2="210.6"/>
	<line class="st1" x1="1845.4" y1="210.6" x2="1840.4" y2="210.6"/>
	<line class="st1" x1="1835.4" y1="210.6" x2="1830.4" y2="210.6"/>
	<line class="st1" x1="1825.4" y1="210.6" x2="1820.4" y2="210.6"/>
	<line class="st1" x1="1815.4" y1="210.6" x2="1810.4" y2="210.6"/>
	<line class="st1" x1="1805.4" y1="210.6" x2="1800.4" y2="210.6"/>
	<line class="st1" x1="1795.4" y1="210.6" x2="1790.4" y2="210.6"/>
	<line class="st1" x1="1785.4" y1="210.6" x2="1780.4" y2="210.6"/>
	<line class="st1" x1="1775.4" y1="210.6" x2="1770.4" y2="210.6"/>
	<line class="st1" x1="1765.4" y1="210.6" x2="1760.4" y2="210.6"/>
	<path class="st1" d="M1755.4,210.6"/>
	<path class="st1" d="M2080.4,210.6"/>
	<path class="st1" d="M2070.4,210.6"/>
	<path class="st1" d="M2075.4,210.6"/>
	<path class="st1" d="M2065.4,210.6"/>
	<path class="st1" d="M2050.4,210.6"/>
	<path class="st1" d="M2055.4,210.6"/>
	<path class="st1" d="M2040.4,210.6"/>
	<path class="st1" d="M2045.4,210.6"/>
	<path class="st1" d="M2035.4,210.6"/>
	<path class="st1" d="M2020.4,210.6"/>
	<path class="st1" d="M2025.4,210.6"/>
	<path class="st1" d="M2015.4,210.6"/>
	<path class="st1" d="M2005.4,210.6"/>
	<path class="st1" d="M1990.4,210.6"/>
	<path class="st1" d="M1995.4,210.6"/>
	<line class="st1" x1="1985.4" y1="210.6" x2="1980.4" y2="210.6"/>
	<line class="st1" x1="1975.4" y1="210.6" x2="1970.4" y2="210.6"/>
	<line class="st1" x1="1965.4" y1="210.6" x2="1960.4" y2="210.6"/>
	<line class="st1" x1="1955.4" y1="210.6" x2="1950.4" y2="210.6"/>
	<line class="st1" x1="1945.4" y1="210.6" x2="1940.4" y2="210.6"/>
	<line class="st1" x1="1935.4" y1="210.6" x2="1930.4" y2="210.6"/>
	<line class="st1" x1="1925.4" y1="210.6" x2="1920.4" y2="210.6"/>
	<line class="st1" x1="1915.4" y1="210.6" x2="1910.4" y2="210.6"/>
	<line class="st1" x1="1905.4" y1="210.6" x2="1900.4" y2="210.6"/>
	<line class="st1" x1="1895.4" y1="210.6" x2="1890.4" y2="210.6"/>
	<line class="st1" x1="1885.4" y1="210.6" x2="1880.4" y2="210.6"/>
	<line class="st1" x1="1875.4" y1="210.6" x2="1870.4" y2="210.6"/>
	<line class="st1" x1="1865.4" y1="210.6" x2="1860.4" y2="210.6"/>
	<line class="st1" x1="1855.4" y1="210.6" x2="1850.4" y2="210.6"/>
	<line class="st1" x1="1845.4" y1="210.6" x2="1840.4" y2="210.6"/>
	<line class="st1" x1="1835.4" y1="210.6" x2="1830.4" y2="210.6"/>
	<line class="st1" x1="1825.4" y1="210.6" x2="1820.4" y2="210.6"/>
	<line class="st1" x1="1815.4" y1="210.6" x2="1810.4" y2="210.6"/>
	<line class="st1" x1="1805.4" y1="210.6" x2="1800.4" y2="210.6"/>
	<line class="st1" x1="1795.4" y1="210.6" x2="1790.4" y2="210.6"/>
	<line class="st1" x1="1785.4" y1="210.6" x2="1780.4" y2="210.6"/>
	<line class="st1" x1="1775.4" y1="210.6" x2="1770.4" y2="210.6"/>
	<line class="st1" x1="1765.4" y1="210.6" x2="1760.4" y2="210.6"/>
	<line class="st1" x1="1755.4" y1="210.6" x2="1750.4" y2="210.6"/>
	<line class="st1" x1="1745.4" y1="210.6" x2="1740.4" y2="210.6"/>
	<line class="st1" x1="1735.4" y1="210.6" x2="1730.4" y2="210.6"/>
	<line class="st1" x1="1725.4" y1="210.6" x2="1720.4" y2="210.6"/>
	<line class="st1" x1="1715.4" y1="210.6" x2="1710.4" y2="210.6"/>
	<line class="st1" x1="1705.4" y1="210.6" x2="1700.4" y2="210.6"/>
	<line class="st1" x1="1695.4" y1="210.6" x2="1690.4" y2="210.6"/>
	<line class="st1" x1="1685.4" y1="210.6" x2="1680.4" y2="210.6"/>
	<line class="st1" x1="1675.4" y1="210.6" x2="1670.4" y2="210.6"/>
	<line class="st1" x1="1665.4" y1="210.6" x2="1660.4" y2="210.6"/>
	<line class="st1" x1="1655.4" y1="210.6" x2="1650.4" y2="210.6"/>
	<line class="st1" x1="1645.4" y1="210.6" x2="1640.4" y2="210.6"/>
	<line class="st1" x1="1635.4" y1="210.6" x2="1630.4" y2="210.6"/>
	<line class="st1" x1="1625.4" y1="210.6" x2="1620.4" y2="210.6"/>
	<line class="st1" x1="1615.4" y1="210.6" x2="1610.4" y2="210.6"/>
	<line class="st1" x1="1605.4" y1="210.6" x2="1600.4" y2="210.6"/>
	<line class="st1" x1="1595.4" y1="210.6" x2="1590.4" y2="210.6"/>
	<line class="st1" x1="1585.4" y1="210.6" x2="1580.4" y2="210.6"/>
	<line class="st1" x1="1575.4" y1="210.6" x2="1570.4" y2="210.6"/>
	<line class="st1" x1="1565.4" y1="210.6" x2="1560.4" y2="210.6"/>
	<line class="st1" x1="1555.4" y1="210.6" x2="1550.4" y2="210.6"/>
	<line class="st1" x1="1545.4" y1="210.6" x2="1540.4" y2="210.6"/>
	<line class="st1" x1="1535.4" y1="210.6" x2="1530.4" y2="210.6"/>
	<line class="st1" x1="1525.4" y1="210.6" x2="1520.4" y2="210.6"/>
	<line class="st1" x1="1515.4" y1="210.6" x2="1510.4" y2="210.6"/>
	<line class="st1" x1="1505.4" y1="210.6" x2="1500.4" y2="210.6"/>
	<line class="st1" x1="1495.4" y1="210.6" x2="1490.4" y2="210.6"/>
	<line class="st1" x1="1485.4" y1="210.6" x2="1480.4" y2="210.6"/>
	<line class="st1" x1="1475.4" y1="210.6" x2="1470.4" y2="210.6"/>
	<line class="st1" x1="1465.4" y1="210.6" x2="1460.4" y2="210.6"/>
	<line class="st1" x1="1455.4" y1="210.6" x2="1450.4" y2="210.6"/>
	<line class="st1" x1="1445.4" y1="210.6" x2="1440.4" y2="210.6"/>
	<line class="st1" x1="1435.4" y1="210.6" x2="1430.4" y2="210.6"/>
	<line class="st1" x1="1425.4" y1="210.6" x2="1420.4" y2="210.6"/>
	<line class="st1" x1="1415.4" y1="210.6" x2="1410.4" y2="210.6"/>
	<line class="st1" x1="1405.4" y1="210.6" x2="1400.4" y2="210.6"/>
	<line class="st1" x1="1395.4" y1="210.6" x2="1390.4" y2="210.6"/>
	<line class="st1" x1="1385.4" y1="210.6" x2="1380.4" y2="210.6"/>
	<line class="st1" x1="1375.4" y1="210.6" x2="1370.4" y2="210.6"/>
	<line class="st1" x1="1380.4" y1="203.6" x2="1368.4" y2="210.6"/>
	<line class="st1" x1="1380.4" y1="217.6" x2="1368.4" y2="210.6"/>
	<text transform="matrix(1 0 0 1 1603.7291 205.6189)" class="st2 st3">Réponse positive ou négative</text>
	<rect x="636.5" y="46.6" class="st0" width="189" height="18"/>
	<rect x="636.5" y="46.6" class="st1" width="188" height="17"/>
	<text transform="matrix(1 0 0 1 637.4852 60.6189)" class="st2 st3">jusqu&apos;à avoir une réponse positive</text>
	<line class="st1" x1="1348.4" y1="294.6" x2="1056.4" y2="294.6"/>
	<line class="st1" x1="1068.4" y1="287.6" x2="1056.4" y2="294.6"/>
	<line class="st1" x1="1068.4" y1="301.6" x2="1056.4" y2="294.6"/>
	<text transform="matrix(1 0 0 1 1131.8591 289.6189)" class="st2 st3">Transmission du lieu d&apos;accueil</text>
	<line class="st1" x1="1056.4" y1="342.6" x2="1672.4" y2="342.6"/>
	<line class="st1" x1="1660.4" y1="349.6" x2="1672.4" y2="342.6"/>
	<line class="st1" x1="1660.4" y1="335.6" x2="1672.4" y2="342.6"/>
	<text transform="matrix(1 0 0 1 1268.4851 337.6189)" class="st2 st3">Transmission du lieu d&apos;accueil</text>
	<polygon class="st4" points="1965.4,170.6 1953.4,177.6 1953.4,163.6 	"/>
	<polygon class="st1" points="1965.4,170.6 1953.4,177.6 1953.4,163.6 	"/>
	<text transform="matrix(1 0 0 1 1585.7233 165.6189)" class="st2 st3">Vérification de la disponibilité du lieu</text>
	<line class="st1" x1="1692.4" y1="358.6" x2="1965.4" y2="358.6"/>
	<polygon class="st4" points="1965.4,358.6 1953.4,365.6 1953.4,351.6 	"/>
	<polygon class="st1" points="1965.4,358.6 1953.4,365.6 1953.4,351.6 	"/>
	<text transform="matrix(1 0 0 1 1807.7986 353.6189)" class="st2 st3">Évacuation</text>
	<line class="st1" x1="1368.4" y1="170.6" x2="1964.4" y2="170.6"/>
</g>
</svg>
