<?xml version="1.0" encoding="utf-8"?>
<!-- Generator: Adobe Illustrator 19.0.0, SVG Export Plug-In . SVG Version: 6.00 Build 0)  -->
<svg version="1.1" id="Calque_1" xmlns="http://www.w3.org/2000/svg" xmlns:xlink="http://www.w3.org/1999/xlink" x="0px" y="0px"
	 viewBox="376 -101 1036 484.5" style="enable-background:new 376 -101 1036 484.5;" xml:space="preserve">
<style type="text/css">
	.st0{fill:none;stroke:#000000;}
	.st1{fill:#FFFFFF;stroke:#FFFFFF;}
	.st2{font-family:'ArialMT';}
	.st3{font-size:12px;}
	.st4{stroke:#000000;}
</style>
<line class="st0" x1="478.5" y1="-38.3" x2="478.5" y2="-33.3"/>
<line class="st0" x1="478.5" y1="-28.3" x2="478.5" y2="-23.3"/>
<line class="st0" x1="478.5" y1="-18.3" x2="478.5" y2="-13.3"/>
<line class="st0" x1="478.5" y1="-8.3" x2="478.5" y2="-3.3"/>
<line class="st0" x1="478.5" y1="1.7" x2="478.5" y2="6.7"/>
<line class="st0" x1="478.5" y1="11.7" x2="478.5" y2="16.7"/>
<line class="st0" x1="478.5" y1="21.7" x2="478.5" y2="26.7"/>
<line class="st0" x1="478.5" y1="31.7" x2="478.5" y2="36.7"/>
<line class="st0" x1="478.5" y1="41.7" x2="478.5" y2="46.7"/>
<line class="st0" x1="478.5" y1="51.7" x2="478.5" y2="56.7"/>
<line class="st0" x1="478.5" y1="61.7" x2="478.5" y2="66.7"/>
<line class="st0" x1="478.5" y1="71.7" x2="478.5" y2="76.7"/>
<line class="st0" x1="478.5" y1="81.7" x2="478.5" y2="86.7"/>
<line class="st0" x1="478.5" y1="91.7" x2="478.5" y2="96.7"/>
<line class="st0" x1="478.5" y1="101.7" x2="478.5" y2="106.7"/>
<line class="st0" x1="478.5" y1="111.7" x2="478.5" y2="116.7"/>
<line class="st0" x1="478.5" y1="121.7" x2="478.5" y2="126.7"/>
<line class="st0" x1="478.5" y1="131.7" x2="478.5" y2="136.7"/>
<line class="st0" x1="478.5" y1="141.7" x2="478.5" y2="146.7"/>
<line class="st0" x1="478.5" y1="151.7" x2="478.5" y2="156.7"/>
<line class="st0" x1="478.5" y1="161.7" x2="478.5" y2="166.7"/>
<line class="st0" x1="478.5" y1="171.7" x2="478.5" y2="176.7"/>
<line class="st0" x1="478.5" y1="181.7" x2="478.5" y2="186.7"/>
<line class="st0" x1="478.5" y1="191.7" x2="478.5" y2="196.7"/>
<line class="st0" x1="478.5" y1="201.7" x2="478.5" y2="206.7"/>
<line class="st0" x1="478.5" y1="211.7" x2="478.5" y2="216.7"/>
<line class="st0" x1="478.5" y1="221.7" x2="478.5" y2="226.7"/>
<line class="st0" x1="478.5" y1="231.7" x2="478.5" y2="236.7"/>
<line class="st0" x1="478.5" y1="241.7" x2="478.5" y2="246.7"/>
<line class="st0" x1="478.5" y1="251.7" x2="478.5" y2="256.7"/>
<line class="st0" x1="478.5" y1="261.7" x2="478.5" y2="266.7"/>
<line class="st0" x1="478.5" y1="271.7" x2="478.5" y2="276.7"/>
<line class="st0" x1="478.5" y1="281.7" x2="478.5" y2="286.7"/>
<line class="st0" x1="478.5" y1="291.7" x2="478.5" y2="296.7"/>
<line class="st0" x1="478.5" y1="301.7" x2="478.5" y2="306.7"/>
<line class="st0" x1="478.5" y1="311.7" x2="478.5" y2="316.7"/>
<line class="st0" x1="478.5" y1="321.7" x2="478.5" y2="326.7"/>
<line class="st0" x1="478.5" y1="331.7" x2="478.5" y2="336.7"/>
<line class="st0" x1="478.5" y1="341.7" x2="478.5" y2="346.7"/>
<line class="st0" x1="478.5" y1="351.7" x2="478.5" y2="356.7"/>
<line class="st0" x1="478.5" y1="361.7" x2="478.5" y2="366.7"/>
<line class="st0" x1="478.5" y1="279.7" x2="478.5" y2="284.7"/>
<line class="st0" x1="478.5" y1="289.7" x2="478.5" y2="294.7"/>
<line class="st0" x1="478.5" y1="299.7" x2="478.5" y2="304.7"/>
<line class="st0" x1="478.5" y1="309.7" x2="478.5" y2="314.7"/>
<line class="st0" x1="478.5" y1="319.7" x2="478.5" y2="324.7"/>
<line class="st0" x1="478.5" y1="329.7" x2="478.5" y2="334.7"/>
<line class="st0" x1="478.5" y1="339.7" x2="478.5" y2="344.7"/>
<line class="st0" x1="478.5" y1="349.7" x2="478.5" y2="354.7"/>
<path class="st0" d="M478.5,362.7"/>
<line class="st0" x1="478.5" y1="367.7" x2="478.5" y2="369.7"/>
<rect x="468.5" y="-38.3" class="st1" width="20" height="408"/>
<rect x="468.5" y="-38.3" class="st0" width="20" height="408"/>
<rect x="390.5" y="-87.3" class="st1" width="176" height="50"/>
<rect x="390.5" y="-87.3" class="st0" width="176" height="50"/>
<text transform="matrix(1 0 0 1 457.5 -73.3399)" class="st2 st3">:Patient</text>
<line class="st0" x1="726.5" y1="-38.3" x2="726.5" y2="-33.3"/>
<line class="st0" x1="726.5" y1="-28.3" x2="726.5" y2="-23.3"/>
<line class="st0" x1="726.5" y1="-18.3" x2="726.5" y2="-13.3"/>
<line class="st0" x1="726.5" y1="-8.3" x2="726.5" y2="-3.3"/>
<line class="st0" x1="726.5" y1="1.7" x2="726.5" y2="6.7"/>
<line class="st0" x1="726.5" y1="11.7" x2="726.5" y2="16.7"/>
<line class="st0" x1="726.5" y1="21.7" x2="726.5" y2="26.7"/>
<line class="st0" x1="726.5" y1="31.7" x2="726.5" y2="36.7"/>
<line class="st0" x1="726.5" y1="41.7" x2="726.5" y2="46.7"/>
<line class="st0" x1="726.5" y1="51.7" x2="726.5" y2="56.7"/>
<line class="st0" x1="726.5" y1="61.7" x2="726.5" y2="66.7"/>
<line class="st0" x1="726.5" y1="71.7" x2="726.5" y2="76.7"/>
<line class="st0" x1="726.5" y1="81.7" x2="726.5" y2="86.7"/>
<line class="st0" x1="726.5" y1="91.7" x2="726.5" y2="96.7"/>
<line class="st0" x1="726.5" y1="101.7" x2="726.5" y2="106.7"/>
<line class="st0" x1="726.5" y1="111.7" x2="726.5" y2="116.7"/>
<line class="st0" x1="726.5" y1="121.7" x2="726.5" y2="126.7"/>
<line class="st0" x1="726.5" y1="131.7" x2="726.5" y2="136.7"/>
<line class="st0" x1="726.5" y1="141.7" x2="726.5" y2="146.7"/>
<line class="st0" x1="726.5" y1="151.7" x2="726.5" y2="156.7"/>
<line class="st0" x1="726.5" y1="161.7" x2="726.5" y2="166.7"/>
<line class="st0" x1="726.5" y1="171.7" x2="726.5" y2="176.7"/>
<line class="st0" x1="726.5" y1="181.7" x2="726.5" y2="186.7"/>
<line class="st0" x1="726.5" y1="191.7" x2="726.5" y2="196.7"/>
<line class="st0" x1="726.5" y1="201.7" x2="726.5" y2="206.7"/>
<line class="st0" x1="726.5" y1="211.7" x2="726.5" y2="216.7"/>
<line class="st0" x1="726.5" y1="221.7" x2="726.5" y2="226.7"/>
<line class="st0" x1="726.5" y1="231.7" x2="726.5" y2="236.7"/>
<line class="st0" x1="726.5" y1="241.7" x2="726.5" y2="246.7"/>
<line class="st0" x1="726.5" y1="251.7" x2="726.5" y2="256.7"/>
<line class="st0" x1="726.5" y1="261.7" x2="726.5" y2="266.7"/>
<line class="st0" x1="726.5" y1="271.7" x2="726.5" y2="276.7"/>
<line class="st0" x1="726.5" y1="281.7" x2="726.5" y2="286.7"/>
<line class="st0" x1="726.5" y1="291.7" x2="726.5" y2="296.7"/>
<line class="st0" x1="726.5" y1="301.7" x2="726.5" y2="306.7"/>
<line class="st0" x1="726.5" y1="311.7" x2="726.5" y2="316.7"/>
<line class="st0" x1="726.5" y1="321.7" x2="726.5" y2="326.7"/>
<line class="st0" x1="726.5" y1="331.7" x2="726.5" y2="336.7"/>
<line class="st0" x1="726.5" y1="341.7" x2="726.5" y2="346.7"/>
<line class="st0" x1="726.5" y1="351.7" x2="726.5" y2="356.7"/>
<line class="st0" x1="726.5" y1="361.7" x2="726.5" y2="366.7"/>
<line class="st0" x1="726.5" y1="279.7" x2="726.5" y2="284.7"/>
<line class="st0" x1="726.5" y1="289.7" x2="726.5" y2="294.7"/>
<line class="st0" x1="726.5" y1="299.7" x2="726.5" y2="304.7"/>
<line class="st0" x1="726.5" y1="309.7" x2="726.5" y2="314.7"/>
<line class="st0" x1="726.5" y1="319.7" x2="726.5" y2="324.7"/>
<line class="st0" x1="726.5" y1="329.7" x2="726.5" y2="334.7"/>
<line class="st0" x1="726.5" y1="339.7" x2="726.5" y2="344.7"/>
<line class="st0" x1="726.5" y1="349.7" x2="726.5" y2="354.7"/>
<path class="st0" d="M726.5,362.7"/>
<line class="st0" x1="726.5" y1="367.7" x2="726.5" y2="369.7"/>
<rect x="716.5" y="-38.3" class="st1" width="20" height="408"/>
<rect x="716.5" y="-38.3" class="st0" width="20" height="408"/>
<rect x="654.5" y="-87.3" class="st1" width="144" height="50"/>
<rect x="654.5" y="-87.3" class="st0" width="144" height="50"/>
<text transform="matrix(1 0 0 1 700.5 -73.3399)" class="st2 st3">:Appelant</text>
<line class="st0" x1="1034.5" y1="-38.3" x2="1034.5" y2="-33.3"/>
<line class="st0" x1="1034.5" y1="-28.3" x2="1034.5" y2="-23.3"/>
<line class="st0" x1="1034.5" y1="-18.3" x2="1034.5" y2="-13.3"/>
<line class="st0" x1="1034.5" y1="-8.3" x2="1034.5" y2="-3.3"/>
<line class="st0" x1="1034.5" y1="1.7" x2="1034.5" y2="6.7"/>
<line class="st0" x1="1034.5" y1="11.7" x2="1034.5" y2="16.7"/>
<line class="st0" x1="1034.5" y1="21.7" x2="1034.5" y2="26.7"/>
<line class="st0" x1="1034.5" y1="31.7" x2="1034.5" y2="36.7"/>
<line class="st0" x1="1034.5" y1="41.7" x2="1034.5" y2="46.7"/>
<line class="st0" x1="1034.5" y1="51.7" x2="1034.5" y2="56.7"/>
<line class="st0" x1="1034.5" y1="61.7" x2="1034.5" y2="66.7"/>
<line class="st0" x1="1034.5" y1="71.7" x2="1034.5" y2="76.7"/>
<line class="st0" x1="1034.5" y1="81.7" x2="1034.5" y2="86.7"/>
<line class="st0" x1="1034.5" y1="91.7" x2="1034.5" y2="96.7"/>
<line class="st0" x1="1034.5" y1="101.7" x2="1034.5" y2="106.7"/>
<line class="st0" x1="1034.5" y1="111.7" x2="1034.5" y2="116.7"/>
<line class="st0" x1="1034.5" y1="121.7" x2="1034.5" y2="126.7"/>
<line class="st0" x1="1034.5" y1="131.7" x2="1034.5" y2="136.7"/>
<line class="st0" x1="1034.5" y1="141.7" x2="1034.5" y2="146.7"/>
<line class="st0" x1="1034.5" y1="151.7" x2="1034.5" y2="156.7"/>
<line class="st0" x1="1034.5" y1="161.7" x2="1034.5" y2="166.7"/>
<line class="st0" x1="1034.5" y1="171.7" x2="1034.5" y2="176.7"/>
<line class="st0" x1="1034.5" y1="181.7" x2="1034.5" y2="186.7"/>
<line class="st0" x1="1034.5" y1="191.7" x2="1034.5" y2="196.7"/>
<line class="st0" x1="1034.5" y1="201.7" x2="1034.5" y2="206.7"/>
<line class="st0" x1="1034.5" y1="211.7" x2="1034.5" y2="216.7"/>
<line class="st0" x1="1034.5" y1="221.7" x2="1034.5" y2="226.7"/>
<line class="st0" x1="1034.5" y1="231.7" x2="1034.5" y2="236.7"/>
<line class="st0" x1="1034.5" y1="241.7" x2="1034.5" y2="246.7"/>
<line class="st0" x1="1034.5" y1="251.7" x2="1034.5" y2="256.7"/>
<line class="st0" x1="1034.5" y1="261.7" x2="1034.5" y2="266.7"/>
<line class="st0" x1="1034.5" y1="271.7" x2="1034.5" y2="276.7"/>
<line class="st0" x1="1034.5" y1="281.7" x2="1034.5" y2="286.7"/>
<line class="st0" x1="1034.5" y1="291.7" x2="1034.5" y2="296.7"/>
<line class="st0" x1="1034.5" y1="301.7" x2="1034.5" y2="306.7"/>
<line class="st0" x1="1034.5" y1="311.7" x2="1034.5" y2="316.7"/>
<line class="st0" x1="1034.5" y1="321.7" x2="1034.5" y2="326.7"/>
<line class="st0" x1="1034.5" y1="331.7" x2="1034.5" y2="336.7"/>
<line class="st0" x1="1034.5" y1="341.7" x2="1034.5" y2="346.7"/>
<line class="st0" x1="1034.5" y1="351.7" x2="1034.5" y2="356.7"/>
<line class="st0" x1="1034.5" y1="361.7" x2="1034.5" y2="366.7"/>
<line class="st0" x1="1034.5" y1="279.7" x2="1034.5" y2="284.7"/>
<line class="st0" x1="1034.5" y1="289.7" x2="1034.5" y2="294.7"/>
<line class="st0" x1="1034.5" y1="299.7" x2="1034.5" y2="304.7"/>
<line class="st0" x1="1034.5" y1="309.7" x2="1034.5" y2="314.7"/>
<line class="st0" x1="1034.5" y1="319.7" x2="1034.5" y2="324.7"/>
<line class="st0" x1="1034.5" y1="329.7" x2="1034.5" y2="334.7"/>
<line class="st0" x1="1034.5" y1="339.7" x2="1034.5" y2="344.7"/>
<line class="st0" x1="1034.5" y1="349.7" x2="1034.5" y2="354.7"/>
<path class="st0" d="M1034.5,362.7"/>
<line class="st0" x1="1034.5" y1="367.7" x2="1034.5" y2="369.7"/>
<rect x="1024.5" y="0.7" class="st1" width="20" height="369"/>
<rect x="1024.5" y="0.7" class="st0" width="20" height="369"/>
<rect x="959.5" y="-87.3" class="st1" width="150" height="50"/>
<rect x="959.5" y="-87.3" class="st0" width="150" height="50"/>
<text transform="matrix(1 0 0 1 1020.5 -73.3399)" class="st2 st3">:ARM</text>
<line class="st0" x1="1301.5" y1="-38.3" x2="1301.5" y2="-33.3"/>
<line class="st0" x1="1301.5" y1="-28.3" x2="1301.5" y2="-23.3"/>
<line class="st0" x1="1301.5" y1="-18.3" x2="1301.5" y2="-13.3"/>
<line class="st0" x1="1301.5" y1="-8.3" x2="1301.5" y2="-3.3"/>
<line class="st0" x1="1301.5" y1="1.7" x2="1301.5" y2="6.7"/>
<line class="st0" x1="1301.5" y1="11.7" x2="1301.5" y2="16.7"/>
<line class="st0" x1="1301.5" y1="21.7" x2="1301.5" y2="26.7"/>
<line class="st0" x1="1301.5" y1="31.7" x2="1301.5" y2="36.7"/>
<line class="st0" x1="1301.5" y1="41.7" x2="1301.5" y2="46.7"/>
<line class="st0" x1="1301.5" y1="51.7" x2="1301.5" y2="56.7"/>
<line class="st0" x1="1301.5" y1="61.7" x2="1301.5" y2="66.7"/>
<line class="st0" x1="1301.5" y1="71.7" x2="1301.5" y2="76.7"/>
<line class="st0" x1="1301.5" y1="81.7" x2="1301.5" y2="86.7"/>
<line class="st0" x1="1301.5" y1="91.7" x2="1301.5" y2="96.7"/>
<line class="st0" x1="1301.5" y1="101.7" x2="1301.5" y2="106.7"/>
<line class="st0" x1="1301.5" y1="111.7" x2="1301.5" y2="116.7"/>
<line class="st0" x1="1301.5" y1="121.7" x2="1301.5" y2="126.7"/>
<line class="st0" x1="1301.5" y1="131.7" x2="1301.5" y2="136.7"/>
<line class="st0" x1="1301.5" y1="141.7" x2="1301.5" y2="146.7"/>
<line class="st0" x1="1301.5" y1="151.7" x2="1301.5" y2="156.7"/>
<line class="st0" x1="1301.5" y1="161.7" x2="1301.5" y2="166.7"/>
<line class="st0" x1="1301.5" y1="171.7" x2="1301.5" y2="176.7"/>
<line class="st0" x1="1301.5" y1="181.7" x2="1301.5" y2="186.7"/>
<line class="st0" x1="1301.5" y1="191.7" x2="1301.5" y2="196.7"/>
<line class="st0" x1="1301.5" y1="201.7" x2="1301.5" y2="206.7"/>
<line class="st0" x1="1301.5" y1="211.7" x2="1301.5" y2="216.7"/>
<line class="st0" x1="1301.5" y1="221.7" x2="1301.5" y2="226.7"/>
<line class="st0" x1="1301.5" y1="231.7" x2="1301.5" y2="236.7"/>
<line class="st0" x1="1301.5" y1="241.7" x2="1301.5" y2="246.7"/>
<line class="st0" x1="1301.5" y1="251.7" x2="1301.5" y2="256.7"/>
<line class="st0" x1="1301.5" y1="261.7" x2="1301.5" y2="266.7"/>
<line class="st0" x1="1301.5" y1="271.7" x2="1301.5" y2="276.7"/>
<line class="st0" x1="1301.5" y1="281.7" x2="1301.5" y2="286.7"/>
<line class="st0" x1="1301.5" y1="291.7" x2="1301.5" y2="296.7"/>
<line class="st0" x1="1301.5" y1="301.7" x2="1301.5" y2="306.7"/>
<line class="st0" x1="1301.5" y1="311.7" x2="1301.5" y2="316.7"/>
<line class="st0" x1="1301.5" y1="321.7" x2="1301.5" y2="326.7"/>
<line class="st0" x1="1301.5" y1="331.7" x2="1301.5" y2="336.7"/>
<line class="st0" x1="1301.5" y1="341.7" x2="1301.5" y2="346.7"/>
<line class="st0" x1="1301.5" y1="351.7" x2="1301.5" y2="356.7"/>
<line class="st0" x1="1301.5" y1="361.7" x2="1301.5" y2="366.7"/>
<line class="st0" x1="1301.5" y1="279.7" x2="1301.5" y2="284.7"/>
<line class="st0" x1="1301.5" y1="289.7" x2="1301.5" y2="294.7"/>
<line class="st0" x1="1301.5" y1="299.7" x2="1301.5" y2="304.7"/>
<line class="st0" x1="1301.5" y1="309.7" x2="1301.5" y2="314.7"/>
<line class="st0" x1="1301.5" y1="319.7" x2="1301.5" y2="324.7"/>
<line class="st0" x1="1301.5" y1="329.7" x2="1301.5" y2="334.7"/>
<line class="st0" x1="1301.5" y1="339.7" x2="1301.5" y2="344.7"/>
<line class="st0" x1="1301.5" y1="349.7" x2="1301.5" y2="354.7"/>
<path class="st0" d="M1301.5,362.7"/>
<line class="st0" x1="1301.5" y1="367.7" x2="1301.5" y2="369.7"/>
<rect x="1291.5" y="240.7" class="st1" width="20" height="129"/>
<rect x="1291.5" y="240.7" class="st0" width="20" height="129"/>
<rect x="1206.5" y="-87.3" class="st1" width="191" height="50"/>
<rect x="1206.5" y="-87.3" class="st0" width="191" height="50"/>
<text transform="matrix(1 0 0 1 1222.5 -73.3399)" class="st2 st3">:Système d&apos;information du 15</text>
<line class="st0" x1="1024.5" y1="80.7" x2="736.5" y2="80.7"/>
<line class="st0" x1="748.5" y1="73.7" x2="736.5" y2="80.7"/>
<line class="st0" x1="748.5" y1="87.7" x2="736.5" y2="80.7"/>
<text transform="matrix(1 0 0 1 773.4795 75.6601)" class="st2 st3">Prise de l&apos;appel, demande d&apos;informations</text>
<line class="st0" x1="716.5" y1="120.7" x2="488.5" y2="120.7"/>
<line class="st0" x1="500.5" y1="113.7" x2="488.5" y2="120.7"/>
<line class="st0" x1="500.5" y1="127.7" x2="488.5" y2="120.7"/>
<text transform="matrix(1 0 0 1 523.4351 113.7)" class="st2 st3">Quelques questions médicales</text>
<line class="st0" x1="488.5" y1="160.7" x2="493.5" y2="160.7"/>
<line class="st0" x1="498.5" y1="160.7" x2="503.5" y2="160.7"/>
<line class="st0" x1="508.5" y1="160.7" x2="513.5" y2="160.7"/>
<line class="st0" x1="518.5" y1="160.7" x2="523.5" y2="160.7"/>
<line class="st0" x1="528.5" y1="160.7" x2="533.5" y2="160.7"/>
<line class="st0" x1="538.5" y1="160.7" x2="543.5" y2="160.7"/>
<line class="st0" x1="548.5" y1="160.7" x2="553.5" y2="160.7"/>
<line class="st0" x1="558.5" y1="160.7" x2="563.5" y2="160.7"/>
<line class="st0" x1="568.5" y1="160.7" x2="573.5" y2="160.7"/>
<line class="st0" x1="578.5" y1="160.7" x2="583.5" y2="160.7"/>
<line class="st0" x1="588.5" y1="160.7" x2="593.5" y2="160.7"/>
<line class="st0" x1="598.5" y1="160.7" x2="603.5" y2="160.7"/>
<line class="st0" x1="608.5" y1="160.7" x2="613.5" y2="160.7"/>
<line class="st0" x1="618.5" y1="160.7" x2="623.5" y2="160.7"/>
<line class="st0" x1="628.5" y1="160.7" x2="633.5" y2="160.7"/>
<line class="st0" x1="638.5" y1="160.7" x2="643.5" y2="160.7"/>
<line class="st0" x1="648.5" y1="160.7" x2="653.5" y2="160.7"/>
<line class="st0" x1="658.5" y1="160.7" x2="663.5" y2="160.7"/>
<line class="st0" x1="668.5" y1="160.7" x2="673.5" y2="160.7"/>
<line class="st0" x1="678.5" y1="160.7" x2="683.5" y2="160.7"/>
<line class="st0" x1="688.5" y1="160.7" x2="693.5" y2="160.7"/>
<line class="st0" x1="698.5" y1="160.7" x2="703.5" y2="160.7"/>
<line class="st0" x1="708.5" y1="160.7" x2="713.5" y2="160.7"/>
<line class="st0" x1="704.5" y1="167.7" x2="716.5" y2="160.7"/>
<line class="st0" x1="704.5" y1="153.7" x2="716.5" y2="160.7"/>
<text transform="matrix(1 0 0 1 544.1216 154.7)" class="st2 st3">Description du ressenti</text>
<line class="st0" x1="736.5" y1="200.7" x2="741.5" y2="200.7"/>
<line class="st0" x1="746.5" y1="200.7" x2="751.5" y2="200.7"/>
<line class="st0" x1="756.5" y1="200.7" x2="761.5" y2="200.7"/>
<line class="st0" x1="766.5" y1="200.7" x2="771.5" y2="200.7"/>
<line class="st0" x1="776.5" y1="200.7" x2="781.5" y2="200.7"/>
<line class="st0" x1="786.5" y1="200.7" x2="791.5" y2="200.7"/>
<line class="st0" x1="796.5" y1="200.7" x2="801.5" y2="200.7"/>
<line class="st0" x1="806.5" y1="200.7" x2="811.5" y2="200.7"/>
<line class="st0" x1="816.5" y1="200.7" x2="821.5" y2="200.7"/>
<line class="st0" x1="826.5" y1="200.7" x2="831.5" y2="200.7"/>
<line class="st0" x1="836.5" y1="200.7" x2="841.5" y2="200.7"/>
<line class="st0" x1="846.5" y1="200.7" x2="851.5" y2="200.7"/>
<line class="st0" x1="856.5" y1="200.7" x2="861.5" y2="200.7"/>
<line class="st0" x1="866.5" y1="200.7" x2="871.5" y2="200.7"/>
<line class="st0" x1="876.5" y1="200.7" x2="881.5" y2="200.7"/>
<line class="st0" x1="886.5" y1="200.7" x2="891.5" y2="200.7"/>
<line class="st0" x1="896.5" y1="200.7" x2="901.5" y2="200.7"/>
<line class="st0" x1="906.5" y1="200.7" x2="911.5" y2="200.7"/>
<line class="st0" x1="916.5" y1="200.7" x2="921.5" y2="200.7"/>
<line class="st0" x1="926.5" y1="200.7" x2="931.5" y2="200.7"/>
<line class="st0" x1="936.5" y1="200.7" x2="941.5" y2="200.7"/>
<line class="st0" x1="946.5" y1="200.7" x2="951.5" y2="200.7"/>
<line class="st0" x1="956.5" y1="200.7" x2="961.5" y2="200.7"/>
<line class="st0" x1="966.5" y1="200.7" x2="971.5" y2="200.7"/>
<line class="st0" x1="976.5" y1="200.7" x2="981.5" y2="200.7"/>
<line class="st0" x1="986.5" y1="200.7" x2="991.5" y2="200.7"/>
<line class="st0" x1="996.5" y1="200.7" x2="1001.5" y2="200.7"/>
<line class="st0" x1="1006.5" y1="200.7" x2="1011.5" y2="200.7"/>
<line class="st0" x1="1016.5" y1="200.7" x2="1021.5" y2="200.7"/>
<line class="st0" x1="1012.5" y1="207.7" x2="1024.5" y2="200.7"/>
<line class="st0" x1="1012.5" y1="193.7" x2="1024.5" y2="200.7"/>
<text transform="matrix(1 0 0 1 836.4736 191.6601)" class="st2 st3">Renseignements</text>
<line class="st0" x1="1024.5" y1="280.7" x2="736.5" y2="280.7"/>
<line class="st0" x1="748.5" y1="273.7" x2="736.5" y2="280.7"/>
<line class="st0" x1="748.5" y1="287.7" x2="736.5" y2="280.7"/>
<text transform="matrix(1 0 0 1 765.4492 275.6601)" class="st2 st3">Donne les premiers conseils de secourisme</text>
<line class="st0" x1="716.5" y1="320.7" x2="488.5" y2="320.7"/>
<line class="st0" x1="500.5" y1="313.7" x2="488.5" y2="320.7"/>
<line class="st0" x1="500.5" y1="327.7" x2="488.5" y2="320.7"/>
<text transform="matrix(1 0 0 1 513.8784 314.7)" class="st2 st3">Effectue les gestes de secourisme</text>
<line class="st0" x1="736.5" y1="0.7" x2="1024.5" y2="0.7"/>
<polygon class="st4" points="1024.5,0.7 1012.5,7.7 1012.5,-6.3 "/>
<polygon class="st0" points="1024.5,0.7 1012.5,7.7 1012.5,-6.3 "/>
<text transform="matrix(1 0 0 1 849.4819 -4.3399)" class="st2 st3">Appel du 15</text>
<line class="st0" x1="1024.5" y1="40.7" x2="736.5" y2="40.7"/>
<line class="st0" x1="748.5" y1="33.7" x2="736.5" y2="40.7"/>
<line class="st0" x1="748.5" y1="47.7" x2="736.5" y2="40.7"/>
<text transform="matrix(1 0 0 1 840.4756 35.6601)" class="st2 st3">Mise en attente</text>
<line class="st0" x1="1044.5" y1="240.7" x2="1291.5" y2="240.7"/>
<polygon class="st4" points="1291.5,240.7 1279.5,247.7 1279.5,233.7 "/>
<polygon class="st0" points="1291.5,240.7 1279.5,247.7 1279.5,233.7 "/>
<text transform="matrix(1 0 0 1 1069.5 235.7)" class="st2 st3">Établissement du dossier du patient</text>
</svg>
