<?xml version="1.0" encoding="utf-8"?>
<!-- Generator: Adobe Illustrator 19.0.0, SVG Export Plug-In . SVG Version: 6.00 Build 0)  -->
<svg version="1.1" id="Calque_1" xmlns="http://www.w3.org/2000/svg" xmlns:xlink="http://www.w3.org/1999/xlink" x="0px" y="0px"
	 viewBox="1284 -633.5 1036 484.5" style="enable-background:new 1284 -633.5 1036 484.5;" xml:space="preserve">
<style type="text/css">
	.st0{fill:none;stroke:#000000;}
	.st1{fill:#FFFFFF;stroke:#FFFFFF;}
	.st2{font-family:'ArialMT';}
	.st3{font-size:12px;}
	.st4{stroke:#000000;}
</style>
<line class="st0" x1="1386.5" y1="-570.8" x2="1386.5" y2="-565.8"/>
<line class="st0" x1="1386.5" y1="-560.8" x2="1386.5" y2="-555.8"/>
<line class="st0" x1="1386.5" y1="-550.8" x2="1386.5" y2="-545.8"/>
<line class="st0" x1="1386.5" y1="-540.8" x2="1386.5" y2="-535.8"/>
<line class="st0" x1="1386.5" y1="-530.8" x2="1386.5" y2="-525.8"/>
<line class="st0" x1="1386.5" y1="-520.8" x2="1386.5" y2="-515.8"/>
<line class="st0" x1="1386.5" y1="-510.8" x2="1386.5" y2="-505.8"/>
<line class="st0" x1="1386.5" y1="-500.8" x2="1386.5" y2="-495.8"/>
<line class="st0" x1="1386.5" y1="-490.8" x2="1386.5" y2="-485.8"/>
<line class="st0" x1="1386.5" y1="-480.8" x2="1386.5" y2="-475.8"/>
<line class="st0" x1="1386.5" y1="-470.8" x2="1386.5" y2="-465.8"/>
<line class="st0" x1="1386.5" y1="-460.8" x2="1386.5" y2="-455.8"/>
<line class="st0" x1="1386.5" y1="-450.8" x2="1386.5" y2="-445.8"/>
<line class="st0" x1="1386.5" y1="-440.8" x2="1386.5" y2="-435.8"/>
<line class="st0" x1="1386.5" y1="-430.8" x2="1386.5" y2="-425.8"/>
<line class="st0" x1="1386.5" y1="-420.8" x2="1386.5" y2="-415.8"/>
<line class="st0" x1="1386.5" y1="-410.8" x2="1386.5" y2="-405.8"/>
<line class="st0" x1="1386.5" y1="-400.8" x2="1386.5" y2="-395.8"/>
<line class="st0" x1="1386.5" y1="-390.8" x2="1386.5" y2="-385.8"/>
<line class="st0" x1="1386.5" y1="-380.8" x2="1386.5" y2="-375.8"/>
<line class="st0" x1="1386.5" y1="-370.8" x2="1386.5" y2="-365.8"/>
<line class="st0" x1="1386.5" y1="-360.8" x2="1386.5" y2="-355.8"/>
<line class="st0" x1="1386.5" y1="-350.8" x2="1386.5" y2="-345.8"/>
<line class="st0" x1="1386.5" y1="-340.8" x2="1386.5" y2="-335.8"/>
<line class="st0" x1="1386.5" y1="-330.8" x2="1386.5" y2="-325.8"/>
<line class="st0" x1="1386.5" y1="-320.8" x2="1386.5" y2="-315.8"/>
<line class="st0" x1="1386.5" y1="-310.8" x2="1386.5" y2="-305.8"/>
<line class="st0" x1="1386.5" y1="-300.8" x2="1386.5" y2="-295.8"/>
<line class="st0" x1="1386.5" y1="-290.8" x2="1386.5" y2="-285.8"/>
<line class="st0" x1="1386.5" y1="-280.8" x2="1386.5" y2="-275.8"/>
<line class="st0" x1="1386.5" y1="-270.8" x2="1386.5" y2="-265.8"/>
<line class="st0" x1="1386.5" y1="-260.8" x2="1386.5" y2="-255.8"/>
<line class="st0" x1="1386.5" y1="-250.8" x2="1386.5" y2="-245.8"/>
<line class="st0" x1="1386.5" y1="-240.8" x2="1386.5" y2="-235.8"/>
<line class="st0" x1="1386.5" y1="-230.8" x2="1386.5" y2="-225.8"/>
<line class="st0" x1="1386.5" y1="-220.8" x2="1386.5" y2="-215.8"/>
<line class="st0" x1="1386.5" y1="-210.8" x2="1386.5" y2="-205.8"/>
<line class="st0" x1="1386.5" y1="-200.8" x2="1386.5" y2="-195.8"/>
<line class="st0" x1="1386.5" y1="-190.8" x2="1386.5" y2="-185.8"/>
<line class="st0" x1="1386.5" y1="-180.8" x2="1386.5" y2="-175.8"/>
<line class="st0" x1="1386.5" y1="-170.8" x2="1386.5" y2="-165.8"/>
<line class="st0" x1="1386.5" y1="-252.8" x2="1386.5" y2="-247.8"/>
<line class="st0" x1="1386.5" y1="-242.8" x2="1386.5" y2="-237.8"/>
<line class="st0" x1="1386.5" y1="-232.8" x2="1386.5" y2="-227.8"/>
<line class="st0" x1="1386.5" y1="-222.8" x2="1386.5" y2="-217.8"/>
<line class="st0" x1="1386.5" y1="-212.8" x2="1386.5" y2="-207.8"/>
<line class="st0" x1="1386.5" y1="-202.8" x2="1386.5" y2="-197.8"/>
<line class="st0" x1="1386.5" y1="-192.8" x2="1386.5" y2="-187.8"/>
<line class="st0" x1="1386.5" y1="-182.8" x2="1386.5" y2="-177.8"/>
<path class="st0" d="M1386.5-169.8"/>
<line class="st0" x1="1386.5" y1="-164.8" x2="1386.5" y2="-162.8"/>
<rect x="1376.5" y="-570.8" class="st1" width="20" height="408"/>
<rect x="1376.5" y="-570.8" class="st0" width="20" height="408"/>
<rect x="1298.5" y="-619.8" class="st1" width="176" height="50"/>
<rect x="1298.5" y="-619.8" class="st0" width="176" height="50"/>
<text transform="matrix(1 0 0 1 1365.5 -605.8499)" class="st2 st3">:Patient</text>
<line class="st0" x1="1634.5" y1="-570.8" x2="1634.5" y2="-565.8"/>
<line class="st0" x1="1634.5" y1="-560.8" x2="1634.5" y2="-555.8"/>
<line class="st0" x1="1634.5" y1="-550.8" x2="1634.5" y2="-545.8"/>
<line class="st0" x1="1634.5" y1="-540.8" x2="1634.5" y2="-535.8"/>
<line class="st0" x1="1634.5" y1="-530.8" x2="1634.5" y2="-525.8"/>
<line class="st0" x1="1634.5" y1="-520.8" x2="1634.5" y2="-515.8"/>
<line class="st0" x1="1634.5" y1="-510.8" x2="1634.5" y2="-505.8"/>
<line class="st0" x1="1634.5" y1="-500.8" x2="1634.5" y2="-495.8"/>
<line class="st0" x1="1634.5" y1="-490.8" x2="1634.5" y2="-485.8"/>
<line class="st0" x1="1634.5" y1="-480.8" x2="1634.5" y2="-475.8"/>
<line class="st0" x1="1634.5" y1="-470.8" x2="1634.5" y2="-465.8"/>
<line class="st0" x1="1634.5" y1="-460.8" x2="1634.5" y2="-455.8"/>
<line class="st0" x1="1634.5" y1="-450.8" x2="1634.5" y2="-445.8"/>
<line class="st0" x1="1634.5" y1="-440.8" x2="1634.5" y2="-435.8"/>
<line class="st0" x1="1634.5" y1="-430.8" x2="1634.5" y2="-425.8"/>
<line class="st0" x1="1634.5" y1="-420.8" x2="1634.5" y2="-415.8"/>
<line class="st0" x1="1634.5" y1="-410.8" x2="1634.5" y2="-405.8"/>
<line class="st0" x1="1634.5" y1="-400.8" x2="1634.5" y2="-395.8"/>
<line class="st0" x1="1634.5" y1="-390.8" x2="1634.5" y2="-385.8"/>
<line class="st0" x1="1634.5" y1="-380.8" x2="1634.5" y2="-375.8"/>
<line class="st0" x1="1634.5" y1="-370.8" x2="1634.5" y2="-365.8"/>
<line class="st0" x1="1634.5" y1="-360.8" x2="1634.5" y2="-355.8"/>
<line class="st0" x1="1634.5" y1="-350.8" x2="1634.5" y2="-345.8"/>
<line class="st0" x1="1634.5" y1="-340.8" x2="1634.5" y2="-335.8"/>
<line class="st0" x1="1634.5" y1="-330.8" x2="1634.5" y2="-325.8"/>
<line class="st0" x1="1634.5" y1="-320.8" x2="1634.5" y2="-315.8"/>
<line class="st0" x1="1634.5" y1="-310.8" x2="1634.5" y2="-305.8"/>
<line class="st0" x1="1634.5" y1="-300.8" x2="1634.5" y2="-295.8"/>
<line class="st0" x1="1634.5" y1="-290.8" x2="1634.5" y2="-285.8"/>
<line class="st0" x1="1634.5" y1="-280.8" x2="1634.5" y2="-275.8"/>
<line class="st0" x1="1634.5" y1="-270.8" x2="1634.5" y2="-265.8"/>
<line class="st0" x1="1634.5" y1="-260.8" x2="1634.5" y2="-255.8"/>
<line class="st0" x1="1634.5" y1="-250.8" x2="1634.5" y2="-245.8"/>
<line class="st0" x1="1634.5" y1="-240.8" x2="1634.5" y2="-235.8"/>
<line class="st0" x1="1634.5" y1="-230.8" x2="1634.5" y2="-225.8"/>
<line class="st0" x1="1634.5" y1="-220.8" x2="1634.5" y2="-215.8"/>
<line class="st0" x1="1634.5" y1="-210.8" x2="1634.5" y2="-205.8"/>
<line class="st0" x1="1634.5" y1="-200.8" x2="1634.5" y2="-195.8"/>
<line class="st0" x1="1634.5" y1="-190.8" x2="1634.5" y2="-185.8"/>
<line class="st0" x1="1634.5" y1="-180.8" x2="1634.5" y2="-175.8"/>
<line class="st0" x1="1634.5" y1="-170.8" x2="1634.5" y2="-165.8"/>
<line class="st0" x1="1634.5" y1="-252.8" x2="1634.5" y2="-247.8"/>
<line class="st0" x1="1634.5" y1="-242.8" x2="1634.5" y2="-237.8"/>
<line class="st0" x1="1634.5" y1="-232.8" x2="1634.5" y2="-227.8"/>
<line class="st0" x1="1634.5" y1="-222.8" x2="1634.5" y2="-217.8"/>
<line class="st0" x1="1634.5" y1="-212.8" x2="1634.5" y2="-207.8"/>
<line class="st0" x1="1634.5" y1="-202.8" x2="1634.5" y2="-197.8"/>
<line class="st0" x1="1634.5" y1="-192.8" x2="1634.5" y2="-187.8"/>
<line class="st0" x1="1634.5" y1="-182.8" x2="1634.5" y2="-177.8"/>
<path class="st0" d="M1634.5-169.8"/>
<line class="st0" x1="1634.5" y1="-164.8" x2="1634.5" y2="-162.8"/>
<rect x="1624.5" y="-570.8" class="st1" width="20" height="408"/>
<rect x="1624.5" y="-570.8" class="st0" width="20" height="408"/>
<rect x="1562.5" y="-619.8" class="st1" width="144" height="50"/>
<rect x="1562.5" y="-619.8" class="st0" width="144" height="50"/>
<text transform="matrix(1 0 0 1 1608.5 -605.8499)" class="st2 st3">:Appelant</text>
<line class="st0" x1="1942.5" y1="-570.8" x2="1942.5" y2="-565.8"/>
<line class="st0" x1="1942.5" y1="-560.8" x2="1942.5" y2="-555.8"/>
<line class="st0" x1="1942.5" y1="-550.8" x2="1942.5" y2="-545.8"/>
<line class="st0" x1="1942.5" y1="-540.8" x2="1942.5" y2="-535.8"/>
<line class="st0" x1="1942.5" y1="-530.8" x2="1942.5" y2="-525.8"/>
<line class="st0" x1="1942.5" y1="-520.8" x2="1942.5" y2="-515.8"/>
<line class="st0" x1="1942.5" y1="-510.8" x2="1942.5" y2="-505.8"/>
<line class="st0" x1="1942.5" y1="-500.8" x2="1942.5" y2="-495.8"/>
<line class="st0" x1="1942.5" y1="-490.8" x2="1942.5" y2="-485.8"/>
<line class="st0" x1="1942.5" y1="-480.8" x2="1942.5" y2="-475.8"/>
<line class="st0" x1="1942.5" y1="-470.8" x2="1942.5" y2="-465.8"/>
<line class="st0" x1="1942.5" y1="-460.8" x2="1942.5" y2="-455.8"/>
<line class="st0" x1="1942.5" y1="-450.8" x2="1942.5" y2="-445.8"/>
<line class="st0" x1="1942.5" y1="-440.8" x2="1942.5" y2="-435.8"/>
<line class="st0" x1="1942.5" y1="-430.8" x2="1942.5" y2="-425.8"/>
<line class="st0" x1="1942.5" y1="-420.8" x2="1942.5" y2="-415.8"/>
<line class="st0" x1="1942.5" y1="-410.8" x2="1942.5" y2="-405.8"/>
<line class="st0" x1="1942.5" y1="-400.8" x2="1942.5" y2="-395.8"/>
<line class="st0" x1="1942.5" y1="-390.8" x2="1942.5" y2="-385.8"/>
<line class="st0" x1="1942.5" y1="-380.8" x2="1942.5" y2="-375.8"/>
<line class="st0" x1="1942.5" y1="-370.8" x2="1942.5" y2="-365.8"/>
<line class="st0" x1="1942.5" y1="-360.8" x2="1942.5" y2="-355.8"/>
<line class="st0" x1="1942.5" y1="-350.8" x2="1942.5" y2="-345.8"/>
<line class="st0" x1="1942.5" y1="-340.8" x2="1942.5" y2="-335.8"/>
<line class="st0" x1="1942.5" y1="-330.8" x2="1942.5" y2="-325.8"/>
<line class="st0" x1="1942.5" y1="-320.8" x2="1942.5" y2="-315.8"/>
<line class="st0" x1="1942.5" y1="-310.8" x2="1942.5" y2="-305.8"/>
<line class="st0" x1="1942.5" y1="-300.8" x2="1942.5" y2="-295.8"/>
<line class="st0" x1="1942.5" y1="-290.8" x2="1942.5" y2="-285.8"/>
<line class="st0" x1="1942.5" y1="-280.8" x2="1942.5" y2="-275.8"/>
<line class="st0" x1="1942.5" y1="-270.8" x2="1942.5" y2="-265.8"/>
<line class="st0" x1="1942.5" y1="-260.8" x2="1942.5" y2="-255.8"/>
<line class="st0" x1="1942.5" y1="-250.8" x2="1942.5" y2="-245.8"/>
<line class="st0" x1="1942.5" y1="-240.8" x2="1942.5" y2="-235.8"/>
<line class="st0" x1="1942.5" y1="-230.8" x2="1942.5" y2="-225.8"/>
<line class="st0" x1="1942.5" y1="-220.8" x2="1942.5" y2="-215.8"/>
<line class="st0" x1="1942.5" y1="-210.8" x2="1942.5" y2="-205.8"/>
<line class="st0" x1="1942.5" y1="-200.8" x2="1942.5" y2="-195.8"/>
<line class="st0" x1="1942.5" y1="-190.8" x2="1942.5" y2="-185.8"/>
<line class="st0" x1="1942.5" y1="-180.8" x2="1942.5" y2="-175.8"/>
<line class="st0" x1="1942.5" y1="-170.8" x2="1942.5" y2="-165.8"/>
<line class="st0" x1="1942.5" y1="-252.8" x2="1942.5" y2="-247.8"/>
<line class="st0" x1="1942.5" y1="-242.8" x2="1942.5" y2="-237.8"/>
<line class="st0" x1="1942.5" y1="-232.8" x2="1942.5" y2="-227.8"/>
<line class="st0" x1="1942.5" y1="-222.8" x2="1942.5" y2="-217.8"/>
<line class="st0" x1="1942.5" y1="-212.8" x2="1942.5" y2="-207.8"/>
<line class="st0" x1="1942.5" y1="-202.8" x2="1942.5" y2="-197.8"/>
<line class="st0" x1="1942.5" y1="-192.8" x2="1942.5" y2="-187.8"/>
<line class="st0" x1="1942.5" y1="-182.8" x2="1942.5" y2="-177.8"/>
<path class="st0" d="M1942.5-169.8"/>
<line class="st0" x1="1942.5" y1="-164.8" x2="1942.5" y2="-162.8"/>
<rect x="1932.5" y="-531.8" class="st1" width="20" height="369"/>
<rect x="1932.5" y="-531.8" class="st0" width="20" height="369"/>
<rect x="1867.5" y="-619.8" class="st1" width="150" height="50"/>
<rect x="1867.5" y="-619.8" class="st0" width="150" height="50"/>
<text transform="matrix(1 0 0 1 1928.5 -605.8499)" class="st2 st3">:ARM</text>
<line class="st0" x1="2209.5" y1="-570.8" x2="2209.5" y2="-565.8"/>
<line class="st0" x1="2209.5" y1="-560.8" x2="2209.5" y2="-555.8"/>
<line class="st0" x1="2209.5" y1="-550.8" x2="2209.5" y2="-545.8"/>
<line class="st0" x1="2209.5" y1="-540.8" x2="2209.5" y2="-535.8"/>
<line class="st0" x1="2209.5" y1="-530.8" x2="2209.5" y2="-525.8"/>
<line class="st0" x1="2209.5" y1="-520.8" x2="2209.5" y2="-515.8"/>
<line class="st0" x1="2209.5" y1="-510.8" x2="2209.5" y2="-505.8"/>
<line class="st0" x1="2209.5" y1="-500.8" x2="2209.5" y2="-495.8"/>
<line class="st0" x1="2209.5" y1="-490.8" x2="2209.5" y2="-485.8"/>
<line class="st0" x1="2209.5" y1="-480.8" x2="2209.5" y2="-475.8"/>
<line class="st0" x1="2209.5" y1="-470.8" x2="2209.5" y2="-465.8"/>
<line class="st0" x1="2209.5" y1="-460.8" x2="2209.5" y2="-455.8"/>
<line class="st0" x1="2209.5" y1="-450.8" x2="2209.5" y2="-445.8"/>
<line class="st0" x1="2209.5" y1="-440.8" x2="2209.5" y2="-435.8"/>
<line class="st0" x1="2209.5" y1="-430.8" x2="2209.5" y2="-425.8"/>
<line class="st0" x1="2209.5" y1="-420.8" x2="2209.5" y2="-415.8"/>
<line class="st0" x1="2209.5" y1="-410.8" x2="2209.5" y2="-405.8"/>
<line class="st0" x1="2209.5" y1="-400.8" x2="2209.5" y2="-395.8"/>
<line class="st0" x1="2209.5" y1="-390.8" x2="2209.5" y2="-385.8"/>
<line class="st0" x1="2209.5" y1="-380.8" x2="2209.5" y2="-375.8"/>
<line class="st0" x1="2209.5" y1="-370.8" x2="2209.5" y2="-365.8"/>
<line class="st0" x1="2209.5" y1="-360.8" x2="2209.5" y2="-355.8"/>
<line class="st0" x1="2209.5" y1="-350.8" x2="2209.5" y2="-345.8"/>
<line class="st0" x1="2209.5" y1="-340.8" x2="2209.5" y2="-335.8"/>
<line class="st0" x1="2209.5" y1="-330.8" x2="2209.5" y2="-325.8"/>
<line class="st0" x1="2209.5" y1="-320.8" x2="2209.5" y2="-315.8"/>
<line class="st0" x1="2209.5" y1="-310.8" x2="2209.5" y2="-305.8"/>
<line class="st0" x1="2209.5" y1="-300.8" x2="2209.5" y2="-295.8"/>
<line class="st0" x1="2209.5" y1="-290.8" x2="2209.5" y2="-285.8"/>
<line class="st0" x1="2209.5" y1="-280.8" x2="2209.5" y2="-275.8"/>
<line class="st0" x1="2209.5" y1="-270.8" x2="2209.5" y2="-265.8"/>
<line class="st0" x1="2209.5" y1="-260.8" x2="2209.5" y2="-255.8"/>
<line class="st0" x1="2209.5" y1="-250.8" x2="2209.5" y2="-245.8"/>
<line class="st0" x1="2209.5" y1="-240.8" x2="2209.5" y2="-235.8"/>
<line class="st0" x1="2209.5" y1="-230.8" x2="2209.5" y2="-225.8"/>
<line class="st0" x1="2209.5" y1="-220.8" x2="2209.5" y2="-215.8"/>
<line class="st0" x1="2209.5" y1="-210.8" x2="2209.5" y2="-205.8"/>
<line class="st0" x1="2209.5" y1="-200.8" x2="2209.5" y2="-195.8"/>
<line class="st0" x1="2209.5" y1="-190.8" x2="2209.5" y2="-185.8"/>
<line class="st0" x1="2209.5" y1="-180.8" x2="2209.5" y2="-175.8"/>
<line class="st0" x1="2209.5" y1="-170.8" x2="2209.5" y2="-165.8"/>
<line class="st0" x1="2209.5" y1="-252.8" x2="2209.5" y2="-247.8"/>
<line class="st0" x1="2209.5" y1="-242.8" x2="2209.5" y2="-237.8"/>
<line class="st0" x1="2209.5" y1="-232.8" x2="2209.5" y2="-227.8"/>
<line class="st0" x1="2209.5" y1="-222.8" x2="2209.5" y2="-217.8"/>
<line class="st0" x1="2209.5" y1="-212.8" x2="2209.5" y2="-207.8"/>
<line class="st0" x1="2209.5" y1="-202.8" x2="2209.5" y2="-197.8"/>
<line class="st0" x1="2209.5" y1="-192.8" x2="2209.5" y2="-187.8"/>
<line class="st0" x1="2209.5" y1="-182.8" x2="2209.5" y2="-177.8"/>
<path class="st0" d="M2209.5-169.8"/>
<line class="st0" x1="2209.5" y1="-164.8" x2="2209.5" y2="-162.8"/>
<rect x="2199.5" y="-291.8" class="st1" width="20" height="129"/>
<rect x="2199.5" y="-291.8" class="st0" width="20" height="129"/>
<rect x="2114.5" y="-619.8" class="st1" width="191" height="50"/>
<rect x="2114.5" y="-619.8" class="st0" width="191" height="50"/>
<text transform="matrix(1 0 0 1 2130.5 -605.8499)" class="st2 st3">:Systeme d&apos;information du 15</text>
<line class="st0" x1="1932.5" y1="-451.8" x2="1644.5" y2="-451.8"/>
<line class="st0" x1="1656.5" y1="-458.8" x2="1644.5" y2="-451.8"/>
<line class="st0" x1="1656.5" y1="-444.8" x2="1644.5" y2="-451.8"/>
<text transform="matrix(1 0 0 1 1681.4795 -456.8499)" class="st2 st3">Prise de l&apos;appel, demande d&apos;informations</text>
<line class="st0" x1="1624.5" y1="-411.8" x2="1396.5" y2="-411.8"/>
<line class="st0" x1="1408.5" y1="-418.8" x2="1396.5" y2="-411.8"/>
<line class="st0" x1="1408.5" y1="-404.8" x2="1396.5" y2="-411.8"/>
<text transform="matrix(1 0 0 1 1431.4351 -418.81)" class="st2 st3">Quelques questions médicales</text>
<line class="st0" x1="1396.5" y1="-371.8" x2="1401.5" y2="-371.8"/>
<line class="st0" x1="1406.5" y1="-371.8" x2="1411.5" y2="-371.8"/>
<line class="st0" x1="1416.5" y1="-371.8" x2="1421.5" y2="-371.8"/>
<line class="st0" x1="1426.5" y1="-371.8" x2="1431.5" y2="-371.8"/>
<line class="st0" x1="1436.5" y1="-371.8" x2="1441.5" y2="-371.8"/>
<line class="st0" x1="1446.5" y1="-371.8" x2="1451.5" y2="-371.8"/>
<line class="st0" x1="1456.5" y1="-371.8" x2="1461.5" y2="-371.8"/>
<line class="st0" x1="1466.5" y1="-371.8" x2="1471.5" y2="-371.8"/>
<line class="st0" x1="1476.5" y1="-371.8" x2="1481.5" y2="-371.8"/>
<line class="st0" x1="1486.5" y1="-371.8" x2="1491.5" y2="-371.8"/>
<line class="st0" x1="1496.5" y1="-371.8" x2="1501.5" y2="-371.8"/>
<line class="st0" x1="1506.5" y1="-371.8" x2="1511.5" y2="-371.8"/>
<line class="st0" x1="1516.5" y1="-371.8" x2="1521.5" y2="-371.8"/>
<line class="st0" x1="1526.5" y1="-371.8" x2="1531.5" y2="-371.8"/>
<line class="st0" x1="1536.5" y1="-371.8" x2="1541.5" y2="-371.8"/>
<line class="st0" x1="1546.5" y1="-371.8" x2="1551.5" y2="-371.8"/>
<line class="st0" x1="1556.5" y1="-371.8" x2="1561.5" y2="-371.8"/>
<line class="st0" x1="1566.5" y1="-371.8" x2="1571.5" y2="-371.8"/>
<line class="st0" x1="1576.5" y1="-371.8" x2="1581.5" y2="-371.8"/>
<line class="st0" x1="1586.5" y1="-371.8" x2="1591.5" y2="-371.8"/>
<line class="st0" x1="1596.5" y1="-371.8" x2="1601.5" y2="-371.8"/>
<line class="st0" x1="1606.5" y1="-371.8" x2="1611.5" y2="-371.8"/>
<line class="st0" x1="1616.5" y1="-371.8" x2="1621.5" y2="-371.8"/>
<line class="st0" x1="1612.5" y1="-364.8" x2="1624.5" y2="-371.8"/>
<line class="st0" x1="1612.5" y1="-378.8" x2="1624.5" y2="-371.8"/>
<text transform="matrix(1 0 0 1 1452.1216 -377.81)" class="st2 st3">Description du ressenti</text>
<line class="st0" x1="1644.5" y1="-331.8" x2="1649.5" y2="-331.8"/>
<line class="st0" x1="1654.5" y1="-331.8" x2="1659.5" y2="-331.8"/>
<line class="st0" x1="1664.5" y1="-331.8" x2="1669.5" y2="-331.8"/>
<line class="st0" x1="1674.5" y1="-331.8" x2="1679.5" y2="-331.8"/>
<line class="st0" x1="1684.5" y1="-331.8" x2="1689.5" y2="-331.8"/>
<line class="st0" x1="1694.5" y1="-331.8" x2="1699.5" y2="-331.8"/>
<line class="st0" x1="1704.5" y1="-331.8" x2="1709.5" y2="-331.8"/>
<line class="st0" x1="1714.5" y1="-331.8" x2="1719.5" y2="-331.8"/>
<line class="st0" x1="1724.5" y1="-331.8" x2="1729.5" y2="-331.8"/>
<line class="st0" x1="1734.5" y1="-331.8" x2="1739.5" y2="-331.8"/>
<line class="st0" x1="1744.5" y1="-331.8" x2="1749.5" y2="-331.8"/>
<line class="st0" x1="1754.5" y1="-331.8" x2="1759.5" y2="-331.8"/>
<line class="st0" x1="1764.5" y1="-331.8" x2="1769.5" y2="-331.8"/>
<line class="st0" x1="1774.5" y1="-331.8" x2="1779.5" y2="-331.8"/>
<line class="st0" x1="1784.5" y1="-331.8" x2="1789.5" y2="-331.8"/>
<line class="st0" x1="1794.5" y1="-331.8" x2="1799.5" y2="-331.8"/>
<line class="st0" x1="1804.5" y1="-331.8" x2="1809.5" y2="-331.8"/>
<line class="st0" x1="1814.5" y1="-331.8" x2="1819.5" y2="-331.8"/>
<line class="st0" x1="1824.5" y1="-331.8" x2="1829.5" y2="-331.8"/>
<line class="st0" x1="1834.5" y1="-331.8" x2="1839.5" y2="-331.8"/>
<line class="st0" x1="1844.5" y1="-331.8" x2="1849.5" y2="-331.8"/>
<line class="st0" x1="1854.5" y1="-331.8" x2="1859.5" y2="-331.8"/>
<line class="st0" x1="1864.5" y1="-331.8" x2="1869.5" y2="-331.8"/>
<line class="st0" x1="1874.5" y1="-331.8" x2="1879.5" y2="-331.8"/>
<line class="st0" x1="1884.5" y1="-331.8" x2="1889.5" y2="-331.8"/>
<line class="st0" x1="1894.5" y1="-331.8" x2="1899.5" y2="-331.8"/>
<line class="st0" x1="1904.5" y1="-331.8" x2="1909.5" y2="-331.8"/>
<line class="st0" x1="1914.5" y1="-331.8" x2="1919.5" y2="-331.8"/>
<line class="st0" x1="1924.5" y1="-331.8" x2="1929.5" y2="-331.8"/>
<line class="st0" x1="1920.5" y1="-324.8" x2="1932.5" y2="-331.8"/>
<line class="st0" x1="1920.5" y1="-338.8" x2="1932.5" y2="-331.8"/>
<text transform="matrix(1 0 0 1 1744.4736 -340.8499)" class="st2 st3">Renseignements</text>
<line class="st0" x1="1932.5" y1="-251.8" x2="1644.5" y2="-251.8"/>
<line class="st0" x1="1656.5" y1="-258.8" x2="1644.5" y2="-251.8"/>
<line class="st0" x1="1656.5" y1="-244.8" x2="1644.5" y2="-251.8"/>
<text transform="matrix(1 0 0 1 1673.4492 -256.8499)" class="st2 st3">Donne les premiers conseils de secourisme</text>
<line class="st0" x1="1624.5" y1="-211.8" x2="1396.5" y2="-211.8"/>
<line class="st0" x1="1408.5" y1="-218.8" x2="1396.5" y2="-211.8"/>
<line class="st0" x1="1408.5" y1="-204.8" x2="1396.5" y2="-211.8"/>
<text transform="matrix(1 0 0 1 1421.8784 -217.81)" class="st2 st3">Effectue les gestes de secourisme</text>
<line class="st0" x1="1644.5" y1="-531.8" x2="1932.5" y2="-531.8"/>
<polygon class="st4" points="1932.5,-531.8 1920.5,-524.8 1920.5,-538.8 "/>
<polygon class="st0" points="1932.5,-531.8 1920.5,-524.8 1920.5,-538.8 "/>
<text transform="matrix(1 0 0 1 1757.4819 -536.8499)" class="st2 st3">Appel du 15</text>
<line class="st0" x1="1932.5" y1="-491.8" x2="1644.5" y2="-491.8"/>
<line class="st0" x1="1656.5" y1="-498.8" x2="1644.5" y2="-491.8"/>
<line class="st0" x1="1656.5" y1="-484.8" x2="1644.5" y2="-491.8"/>
<text transform="matrix(1 0 0 1 1748.4756 -496.8499)" class="st2 st3">Mise en attente</text>
<line class="st0" x1="1952.5" y1="-291.8" x2="2199.5" y2="-291.8"/>
<polygon class="st4" points="2199.5,-291.8 2187.5,-284.8 2187.5,-298.8 "/>
<polygon class="st0" points="2199.5,-291.8 2187.5,-284.8 2187.5,-298.8 "/>
<text transform="matrix(1 0 0 1 1977.5 -296.81)" class="st2 st3">Établissement du dossier du patient</text>
</svg>
